<svg xmlns="http://www.w3.org/2000/svg" viewBox="0 0 71.67 20"><defs><style>.cls-1{fill:#474747;}.cls-2{opacity:0.6;}</style></defs><g id="Layer_2" data-name="Layer 2"><g id="Layer_1-2" data-name="Layer 1"><path class="cls-1" d="M19,1V19H1V1H19m1-1H0V20H20V0Z"/><rect class="cls-1" x="2.98" y="3" width="6" height="6"/><rect class="cls-1" x="11.02" y="3" width="6" height="6"/><rect class="cls-1" x="2.98" y="11" width="6" height="6"/><rect class="cls-1" x="11.02" y="11" width="6" height="6"/><g class="cls-2"><path class="cls-1" d="M44.83,1V19h-18V1h18m1-1h-20V20h20V0Z"/><rect class="cls-1" x="28.81" y="3" width="6" height="6"/><rect x="36.85" y="3" width="6" height="1"/><polygon class="cls-1" points="42.85 3 36.85 3 36.85 4 42.85 4 42.85 3 42.85 3"/><rect x="36.85" y="8" width="6" height="1"/><polygon class="cls-1" points="42.85 8 36.85 8 36.85 9 42.85 9 42.85 8 42.85 8"/><rect x="36.85" y="5.5" width="6" height="1"/><polygon class="cls-1" points="42.85 5.5 36.85 5.5 36.85 6.5 42.85 6.5 42.85 5.5 42.85 5.5"/><rect x="36.85" y="11" width="6" height="1"/><polygon class="cls-1" points="42.85 11 36.85 11 36.85 12 42.85 12 42.85 11 42.85 11"/><rect x="36.85" y="16" width="6" height="1"/><polygon class="cls-1" points="42.85 16 36.85 16 36.85 17 42.85 17 42.85 16 42.85 16"/><rect x="36.85" y="13.5" width="6" height="1"/><polygon class="cls-1" points="42.85 13.5 36.85 13.5 36.85 14.5 42.85 14.5 42.85 13.5 42.85 13.5"/><rect class="cls-1" x="28.81" y="11" width="6" height="6"/></g><g class="cls-2"><rect x="63.18" y="15.5" width="5" height="1"/><polygon class="cls-1" points="68.69 15 62.69 15 62.69 17 68.69 17 68.69 15 68.69 15"/><rect x="55.15" y="15.5" width="5" height="1"/><polygon class="cls-1" points="60.65 15 54.65 15 54.65 17 60.65 17 60.65 15 60.65 15"/><rect x="63.18" y="3.5" width="5" height="1"/><polygon class="cls-1" points="68.69 3 62.69 3 62.69 5 68.69 5 68.69 3 68.69 3"/><rect x="55.15" y="3.5" width="5" height="1"/><polygon class="cls-1" points="60.65 3 54.65 3 54.65 5 60.65 5 60.65 3 60.65 3"/><rect x="63.18" y="7.5" width="5" height="1"/><polygon class="cls-1" points="68.69 7 62.69 7 62.69 9 68.69 9 68.69 7 68.69 7"/><rect x="55.15" y="7.5" width="5" height="1"/><polygon class="cls-1" points="60.65 7 54.65 7 54.65 9 60.65 9 60.65 7 60.65 7"/><path class="cls-1" d="M70.67,1V19h-18V1h18m1-1h-20V20h20V0Z"/><rect x="63.18" y="11.5" width="5" height="1"/><polygon class="cls-1" points="68.69 11 62.69 11 62.69 13 68.69 13 68.69 11 68.69 11"/><rect x="55.15" y="11.5" width="5" height="1"/><polygon class="cls-1" points="60.65 11 54.65 11 54.65 13 60.65 13 60.65 11 60.65 11"/></g></g></g></svg>