<svg xmlns="http://www.w3.org/2000/svg" viewBox="0 0 230.95 233.84"><defs><style>.cls-1{fill:#bae8e4;opacity:0.7;}</style></defs><g id="Layer_2" data-name="Layer 2"><g id="Layer_1-2" data-name="Layer 1"><path class="cls-1" d="M210.7,0a15.62,15.62,0,0,0-5.46,3.46c-9.48,8.92-.62,18.34-10.1,27.26s-18.34-.52-27.82,8.4-.62,18.33-10.1,27.25-18.34-.52-27.82,8.4S128.79,93.1,119.31,102s-18.34-.52-27.82,8.39-.62,18.34-10.09,27.25-18.34-.51-27.82,8.4S53,164.4,43.48,173.31s-18.34-.51-27.82,8.4S15.05,200,5.57,209A14.41,14.41,0,0,1,0,212.3l20.25,21.54a15.78,15.78,0,0,0,5.47-3.47c9.48-8.91.61-18.34,10.09-27.25s18.35.51,27.82-8.4.62-18.34,10.1-27.25,18.34.51,27.82-8.4.62-18.34,10.09-27.25,18.34.52,27.82-8.39.62-18.34,10.1-27.25,18.34.51,27.82-8.4.61-18.34,10.09-27.25,18.34.51,27.82-8.4.61-18.34,10.09-27.25A14.44,14.44,0,0,1,231,21.53Z"/></g></g></svg>