<svg xmlns="http://www.w3.org/2000/svg" viewBox="0 0 1073 1"><defs><style>.cls-1{fill:#212222;}</style></defs><g id="Layer_2" data-name="Layer 2"><g id="Layer_1-2" data-name="Layer 1"><rect class="cls-1" width="2.5" height="1"/><path class="cls-1" d="M1065.49,1h-5V0h5Zm-10,0h-5V0h5Zm-10,0h-5V0h5Zm-10,0h-5V0h5Zm-10,0h-5V0h5Zm-10,0h-5V0h5Zm-10,0h-5V0h5Zm-10,0h-5V0h5Zm-10,0h-5V0h5Zm-10,0h-5V0h5Zm-10,0h-5V0h5Zm-10,0h-5V0h5Zm-10,0h-5V0h5Zm-10,0h-5V0h5Zm-10,0h-5V0h5Zm-10,0h-5V0h5ZM905,1h-5V0h5ZM895,1h-5V0h5ZM885,1h-5V0h5ZM875,1h-5V0h5Zm-10,0h-5V0h5Zm-10,0h-5V0h5Zm-10,0h-5V0h5Zm-10,0h-5V0h5Zm-10,0h-5V0h5Zm-10,0h-5V0h5Zm-10,0h-5V0h5Zm-10,0h-5V0h5Zm-10,0h-5V0h5Zm-10,0h-5V0h5Zm-10,0h-5V0h5Zm-10,0h-5V0h5Zm-10,0h-5V0h5Zm-10,0h-5V0h5Zm-10,0h-5V0h5Zm-10,0h-5V0h5Zm-10,0h-5V0h5Zm-10,0h-5V0h5Zm-10,0h-5V0h5Zm-10,0h-5V0h5Zm-10,0h-5V0h5Zm-10,0h-5V0h5Zm-10,0h-5V0h5Zm-10,0h-5V0h5Zm-10,0h-5V0h5Zm-10,0h-5V0h5Zm-10,0h-5V0h5Zm-10,0h-5V0h5Zm-10,0h-5V0h5Zm-10,0h-5V0h5Zm-10,0h-5V0h5Zm-10,0h-5V0h5ZM544,1h-5V0h5ZM534,1h-5V0h5ZM524,1h-5V0h5Zm-10,0h-5V0h5Zm-10,0h-5V0h5Zm-10,0h-5V0h5Zm-10,0h-5V0h5Zm-10,0h-5V0h5Zm-10,0h-5V0h5Zm-10,0h-5V0h5Zm-10,0h-5V0h5Zm-10,0h-5V0h5Zm-10,0h-5V0h5Zm-10,0h-5V0h5Zm-10,0h-5V0h5Zm-10,0h-5V0h5Zm-10,0h-5V0h5Zm-10,0h-5V0h5Zm-10,0h-5V0h5Zm-10,0h-5V0h5Zm-10,0h-5V0h5Zm-10,0h-5V0h5Zm-10,0h-5V0h5Zm-10,0h-5V0h5Zm-10,0h-5V0h5Zm-10,0h-5V0h5Zm-10,0h-5V0h5Zm-10,0h-5V0h5Zm-10,0h-5V0h5Zm-10,0h-5V0h5Zm-10,0h-5V0h5Zm-10,0h-5V0h5Zm-10,0h-5V0h5Zm-10,0h-5V0h5Zm-10,0h-5V0h5ZM193,1h-5V0h5ZM183,1h-5V0h5ZM173,1h-5V0h5ZM163,1h-5V0h5Zm-10,0h-5V0h5Zm-10,0h-5V0h5Zm-10,0h-5V0h5Zm-10,0h-5V0h5Zm-10,0h-5V0h5Zm-10,0h-5V0h5Zm-10,0h-5V0h5Zm-10,0h-5V0h5Zm-10,0h-5V0h5Zm-10,0h-5V0h5Zm-10,0h-5V0h5Zm-10,0h-5V0h5Zm-10,0h-5V0h5Zm-10,0h-5V0h5Zm-10,0h-5V0h5Z"/><rect class="cls-1" x="1070.5" width="2.5" height="1"/></g></g></svg>