<svg xmlns="http://www.w3.org/2000/svg" viewBox="0 0 1280.15 1"><defs><style>.cls-1{fill:#212222;}</style></defs><g id="Layer_2" data-name="Layer 2"><g id="Layer_1-2" data-name="Layer 1"><rect class="cls-1" width="2.5" height="1"/><path class="cls-1" d="M1272.66,1h-5V0h5Zm-10,0h-5V0h5Zm-10,0h-5V0h5Zm-10,0h-5V0h5Zm-10,0h-5V0h5Zm-10,0h-5V0h5Zm-10,0h-5V0h5Zm-10,0h-5V0h5Zm-10,0h-5V0h5Zm-10,0h-5V0h5Zm-10,0h-5V0h5Zm-10,0h-5V0h5Zm-10,0h-5V0h5Zm-10,0h-5V0h5Zm-10,0h-5V0h5Zm-10,0h-5V0h5Zm-10,0h-5V0h5Zm-10,0h-5V0h5Zm-10,0h-5V0h5Zm-10,0h-5V0h5Zm-10,0h-5V0h5Zm-10,0h-5V0h5Zm-10,0h-5V0h5Zm-10,0h-5V0h5Zm-10,0h-5V0h5Zm-10,0h-5V0h5Zm-10,0h-5V0h5Zm-10,0h-5V0h5Zm-10,0h-5V0h5Zm-10,0h-5V0h5Zm-10,0h-5V0h5Zm-10,0h-5V0h5Zm-10,0h-5V0h5Zm-10,0h-5V0h5Zm-10,0h-5V0h5Zm-10,0h-5V0h5Zm-10,0h-5V0h5Zm-10,0h-5V0h5Zm-10,0h-5V0h5Zm-10,0h-5V0h5Zm-10,0h-5V0h5Zm-10,0h-5V0h5Zm-10,0h-5V0h5Zm-10,0h-5V0h5Zm-10,0h-5V0h5Zm-10,0h-5V0h5Zm-10,0h-5V0h5Zm-10,0h-5V0h5Zm-10,0h-5V0h5Zm-10,0h-5V0h5Zm-10,0h-5V0h5Zm-10,0h-5V0h5Zm-10,0h-5V0h5Zm-10,0h-5V0h5Zm-10,0h-5V0h5Zm-10,0h-5V0h5Zm-10,0h-5V0h5Zm-10,0h-5V0h5Zm-10,0h-5V0h5Zm-10,0h-5V0h5Zm-10,0h-5V0h5Zm-10,0h-5V0h5Zm-10,0h-5V0h5Zm-10,0h-5V0h5Zm-10,0h-5V0h5Zm-10,0h-5V0h5Zm-10,0h-5V0h5Zm-10,0h-5V0h5Zm-10,0h-5V0h5Zm-10,0h-5V0h5Zm-10,0h-5V0h5Zm-10,0h-5V0h5Zm-10,0h-5V0h5Zm-10,0h-5V0h5Zm-10,0h-5V0h5Zm-10,0h-5V0h5Zm-10,0h-5V0h5Zm-10,0h-5V0h5Zm-10,0h-5V0h5Zm-10,0h-5V0h5Zm-10,0h-5V0h5Zm-10,0h-5V0h5Zm-10,0h-5V0h5Zm-10,0h-5V0h5Zm-10,0h-5V0h5Zm-10,0h-5V0h5Zm-10,0h-5V0h5Zm-10,0h-5V0h5Zm-10,0h-5V0h5Zm-10,0h-5V0h5Zm-10,0h-5V0h5Zm-10,0h-5V0h5Zm-10,0h-5V0h5Zm-10,0h-5V0h5Zm-10,0h-5V0h5Zm-10,0h-5V0h5Zm-10,0h-5V0h5Zm-10,0h-5V0h5Zm-10,0h-5V0h5Zm-10,0h-5V0h5Zm-10,0h-5V0h5Zm-10,0h-5V0h5Zm-10,0h-5V0h5Zm-10,0h-5V0h5Zm-10,0h-5V0h5Zm-10,0h-5V0h5Zm-10,0h-5V0h5Zm-10,0h-5V0h5Zm-10,0h-5V0h5Zm-10,0h-5V0h5Zm-10,0h-5V0h5Zm-10,0h-5V0h5Zm-10,0h-5V0h5Zm-10,0h-5V0h5Zm-10,0h-5V0h5Zm-10,0h-5V0h5Zm-10,0h-5V0h5Zm-10,0h-5V0h5Zm-10,0h-5V0h5Zm-10,0h-5V0h5Zm-10,0h-5V0h5Zm-10,0h-5V0h5Zm-10,0h-5V0h5Zm-10,0h-5V0h5Zm-10,0h-5V0h5Zm-10,0h-5V0h5Zm-10,0h-5V0h5Z"/><rect class="cls-1" x="1277.65" width="2.5" height="1"/></g></g></svg>