<svg width="208" height="34" viewBox="0 0 208 34" fill="none" xmlns="http://www.w3.org/2000/svg">
<path d="M32.34 25.41C32.34 24.815 31.955 24.43 31.29 24.255C30.345 24.01 29.33 23.87 28.28 23.87C28 23.87 27.58 24.01 26.985 24.255C26.39 24.535 25.235 24.71 23.415 24.815C23.24 24.815 23.1 24.85 22.925 24.85C23.8 21.945 24.535 19.04 25.13 15.575C25.55 13.125 25.865 9.835 26.04 7.14C26.495 6.72 26.705 6.37 26.705 6.195C26.705 5.95 26.46 5.74 26.005 5.6C25.305 5.39 24.535 5.285 23.695 5.285C23.38 5.285 22.435 5.705 21.84 5.74C18.165 5.985 13.965 6.09 9.275 6.09C7.735 6.09 6.265 5.985 4.795 5.74C4.305 5.67 4.025 5.775 4.025 6.09C4.025 6.265 4.2 6.475 4.585 6.755C5.425 7.385 6.475 7.91 7.665 8.365C7.945 8.505 8.19 8.54 8.4 8.54C8.575 8.54 8.785 8.47 9.03 8.33C9.73 7.945 10.85 7.7 12.425 7.595C16.065 7.35 19.46 7.28 22.61 7.385C22.61 9.625 22.575 12.32 22.47 14.14C22.225 18.305 21.84 21.7 21.28 24.92C15.715 25.095 10.5 25.2 6.65 25.2C4.83 25.2 3.115 25.06 1.505 24.815C0.945 24.745 0.7 24.85 0.7 25.095C0.7 25.34 0.875 25.585 1.225 25.795C2.38 26.565 3.605 27.16 4.865 27.58C5.075 27.65 5.285 27.685 5.495 27.685C5.67 27.685 5.915 27.615 6.23 27.475C6.965 27.16 8.05 26.915 9.52 26.81C14 26.495 20.055 26.355 26.355 26.355C27.545 26.355 28.91 26.39 30.45 26.495C31.675 26.6 32.34 26.215 32.34 25.41ZM60.635 2.59C60.635 2.1 60.355 1.75 59.795 1.575C58.115 1.015 56.68 0.734998 55.385 0.734998C54.405 0.734998 53.915 0.909998 53.915 1.26C53.915 1.505 54.09 1.68 54.44 1.785C55.98 2.24 57.065 2.94 57.66 3.78V16.1C55.175 16.695 52.515 17.15 50.135 17.465C47.405 17.85 44.465 17.955 41.805 18.025C41.245 18.025 41 17.745 41 17.22V13.72C41 13.545 41 13.3 41.035 13.055C44.85 12.74 48.245 12.565 50.87 12.46C51.535 12.425 51.85 12.18 51.85 11.655C51.85 11.235 51.395 10.885 50.45 10.675C50.8 9.66 51.115 7.84 51.43 6.02C51.465 5.88 51.57 5.74 51.745 5.6C52.06 5.32 52.2 5.11 52.2 4.935C52.2 4.69 52.025 4.55 51.71 4.48C50.835 4.235 50.065 4.13 49.4 4.13C49.015 4.13 48.175 4.48 47.79 4.515C45.305 4.725 42.505 4.795 40.16 4.76C38.655 4.725 37.43 4.655 36.555 4.55C36.1 4.48 35.82 4.585 35.82 4.83C35.82 5.005 35.96 5.145 36.205 5.32C37.08 5.985 37.99 6.475 38.9 6.86C39.145 6.965 39.355 7 39.635 7C39.81 7 40.055 6.93 40.405 6.79C40.93 6.545 41.77 6.37 42.785 6.3C44.115 6.195 46.215 6.125 48.315 6.125C48.385 7.455 48.385 9.17 48.28 10.71C48.245 10.85 48.14 10.955 48.035 10.99C47.825 11.13 46.46 11.2 44.64 11.305C43.1 11.375 42.155 11.41 41.56 11.41C41.21 11.41 40.93 11.41 40.72 11.375C39.285 11.095 37.78 10.92 36.275 10.92C35.505 10.92 35.155 11.27 35.155 11.515C35.155 11.795 35.365 11.9 35.75 12.005C37.01 12.355 37.745 12.705 38.095 13.125V17.57C38.095 18.375 38.2 19.005 38.515 19.53C38.865 20.195 39.25 20.545 39.705 20.615C40.09 20.72 40.65 20.755 41.385 20.685C43.8 20.475 46.81 19.95 50.17 19.215C52.725 18.655 55.42 18.025 57.66 17.325V18.76C57.66 20.51 57.94 21.385 58.57 21.385C59.41 21.385 60.005 20.37 60.285 18.27C60.39 17.325 60.46 16.065 60.46 14.455V4.69C60.46 3.64 60.635 2.975 60.635 2.59ZM60.95 22.995C60.95 22.75 60.775 22.575 60.39 22.47C59.69 22.295 58.955 22.19 58.08 22.19C57.765 22.19 56.96 22.47 56.645 22.47C53.705 22.645 50.415 22.75 47.02 22.75C46.705 22.61 46.18 22.505 45.445 22.4C44.325 22.26 43.275 22.19 42.365 22.19C41.875 22.19 41.315 22.47 41.315 22.785C41.315 22.995 41.525 23.135 41.91 23.24C42.96 23.52 43.66 23.94 44.08 24.395L44.815 31.99C44.92 33.25 45.27 33.845 45.83 33.845C46.53 33.845 46.985 33.285 47.195 32.095C51.395 31.955 55.35 31.92 58.815 31.955C59.865 31.955 60.425 31.71 60.425 31.185C60.425 30.66 59.97 30.275 59.06 30.03C59.55 27.72 59.9 25.97 60.145 24.255C60.18 23.835 60.95 23.38 60.95 22.995ZM57.135 24.08L57.03 29.855C56.925 30.1 56.75 30.205 56.435 30.24C54.09 30.415 51.01 30.52 47.265 30.45L47.09 25.095C47.09 24.78 47.09 24.535 47.125 24.325C51.08 24.15 54.44 24.08 57.135 24.08ZM88.5801 4.41C88.5801 3.92 88.3351 3.535 87.8101 3.36C86.3051 2.835 85.0101 2.59 83.8901 2.59C82.9451 2.59 82.4901 2.765 82.4901 3.115C82.4901 3.325 82.6651 3.5 83.0501 3.605C84.3801 4.095 85.2551 4.69 85.6751 5.425V18.55C85.6751 20.58 86.0251 21.595 86.6201 21.595C87.3901 21.595 87.9501 20.545 88.2301 18.375C88.3701 17.395 88.4401 16.31 88.4401 15.19V13.685L92.1851 13.58V18.515C92.1851 20.545 92.4651 21.525 93.0601 21.525C93.9701 21.525 94.4951 20.44 94.7401 18.165C94.9151 17.045 94.9851 15.61 94.9851 13.895V4.655C94.9851 4.2 95.0201 3.745 95.0901 3.36C95.1601 3.08 95.1951 2.835 95.1951 2.59C95.1951 2.1 94.9151 1.785 94.2851 1.61C92.6401 1.015 91.2401 0.734998 90.1551 0.734998C89.1751 0.734998 88.6851 0.909998 88.6851 1.26C88.6851 1.47 88.8601 1.645 89.2101 1.75C90.6451 2.24 91.6601 2.905 92.1851 3.71V12.005L88.4401 12.11V6.405C88.4401 5.6 88.5801 4.655 88.5801 4.41ZM82.8751 8.19C82.8751 7.945 82.6651 7.77 82.2801 7.665C81.5801 7.49 80.8801 7.385 80.1101 7.42C79.5851 7.42 79.2351 7.77 78.5351 7.805C76.7851 7.98 74.3351 8.085 72.3401 8.05C71.1501 8.015 69.9951 7.945 68.9101 7.805C68.5251 7.77 68.3501 7.875 68.3501 8.12C68.3151 8.33 68.4901 8.54 68.8401 8.75C69.8201 9.415 70.6251 9.905 71.3251 10.185C71.5701 10.255 71.7801 10.29 71.9201 10.29C72.0601 10.29 72.2351 10.255 72.4451 10.15C72.9351 9.87 73.3201 9.73 73.6701 9.695C74.7201 9.52 76.8201 9.38 78.8851 9.31C77.9751 11.06 76.2601 13.475 73.8451 15.82C71.6051 17.955 69.6101 19.705 67.8251 20.825C67.5451 21 67.4401 21.14 67.4401 21.385C67.4401 21.63 67.5801 21.735 67.8601 21.735C68.0001 21.735 68.1751 21.7 68.3501 21.595C70.9051 20.545 73.3901 18.795 75.7701 16.87C76.4351 16.345 77.0651 15.75 77.6601 15.155L82.4201 19.565C82.9101 20.02 83.2951 20.265 83.6101 20.23C84.2051 20.195 84.5201 19.915 84.4851 19.39C84.4501 19.11 84.4151 18.865 84.2751 18.585C84.0651 18.06 83.7851 17.43 83.3301 16.835C83.1201 16.52 82.7351 16.31 82.1751 16.205C81.5451 16.03 80.9501 15.68 80.2851 15.19L78.8151 13.93C80.0401 12.53 81.0901 11.025 81.9301 9.59C82.1051 9.415 82.2101 9.275 82.2451 9.17C82.5251 8.89 82.8751 8.61 82.8751 8.19ZM95.1951 23.24C95.1951 22.96 94.9851 22.75 94.5301 22.645C93.7601 22.47 93.0601 22.4 92.5351 22.4C92.1151 22.4 91.0651 22.715 90.6801 22.75C87.0051 22.995 82.6301 23.1 78.9901 23.1C77.3101 23.1 75.8401 22.995 74.5801 22.785C74.0201 22.715 73.7751 22.82 73.7751 23.1C73.7751 23.31 73.9501 23.52 74.3001 23.765C75.4201 24.535 76.4701 25.06 77.4151 25.375C77.6951 25.48 77.9401 25.515 78.1501 25.515C78.3251 25.515 78.5351 25.445 78.7801 25.34C79.5151 24.955 80.6351 24.71 82.1751 24.605C85.0451 24.43 88.7201 24.325 91.7651 24.36V31.255C91.7651 33.075 92.0801 33.985 92.6751 33.985C93.5501 33.985 94.1101 32.9 94.3551 30.66C94.4601 29.645 94.5301 28.735 94.5651 28.035L94.6351 24.15C95.0201 23.73 95.1951 23.45 95.1951 23.24ZM80.0751 4.795C80.0751 4.095 79.6201 3.745 78.7451 3.745C76.6801 3.745 74.7201 3.605 72.9001 3.29C72.5151 3.22 72.2701 3.185 72.2351 3.185C71.8851 3.185 71.7101 3.29 71.7101 3.5C71.7101 3.675 71.7801 3.85 71.9551 4.025C73.3901 5.565 74.0201 6.02 75.0001 5.985C75.2101 5.985 75.4551 5.985 75.7351 5.95C76.1201 5.915 77.1701 5.845 78.7801 5.775C79.6551 5.74 80.0751 5.39 80.0751 4.795ZM127.85 4.655C127.85 4.235 127.64 3.955 127.22 3.85C125.505 3.36 124.14 3.115 123.02 3.115C122.565 3.115 121.83 3.36 121.83 3.71C121.83 3.885 121.97 4.06 122.32 4.165C123.545 4.62 124.385 5.11 124.805 5.67V9.485L116.51 9.625L116.545 7.665C116.545 7.35 116.615 6.37 116.615 6.475C116.615 5.95 116.265 5.6 115.635 5.495C114.235 5.215 112.905 5.075 111.54 5.075C111.12 5.075 110.385 5.355 110.385 5.67C110.385 5.915 110.56 6.09 110.945 6.195C112.275 6.545 113.15 7 113.57 7.56L113.745 17.885C113.78 19.495 114.095 20.335 114.725 20.335C115.46 20.335 116.16 19.215 116.335 18.165L124.805 18.025C124.91 19.215 125.19 19.775 125.715 19.775C126.52 19.775 127.045 19.075 127.29 17.675C127.5 16.835 127.57 15.96 127.57 15.085L127.675 6.615C127.675 6.265 127.71 5.775 127.78 5.145C127.815 4.9 127.85 4.725 127.85 4.655ZM135.55 2.59C135.55 2.1 135.27 1.75 134.71 1.575C133.065 1.015 131.595 0.734998 130.3 0.734998C129.355 0.734998 128.83 0.909998 128.83 1.26C128.83 1.505 129.04 1.68 129.39 1.785C130.93 2.275 131.98 2.94 132.61 3.78V18.55C132.61 20.3 132.89 21.175 133.485 21.175C134.36 21.175 134.92 20.16 135.165 18.06C135.305 17.115 135.375 15.855 135.375 14.245V13.09C137.02 13.055 138.735 13.02 140.555 12.985C141.57 12.95 142.06 12.565 142.06 11.795C142.06 11.27 141.78 10.92 141.22 10.78C140.135 10.43 139.085 10.43 138.14 10.675C137.79 10.815 137.44 10.99 137.125 11.235C136.775 11.55 136.25 11.655 135.375 11.655V4.69C135.375 3.64 135.55 2.975 135.55 2.59ZM135.655 22.925C135.655 22.68 135.41 22.47 134.92 22.33C134.22 22.12 133.66 22.015 133.17 22.015C132.75 22.015 131.735 22.365 131.35 22.365C126.835 22.61 123.37 22.75 120.955 22.75C119.555 22.75 117.945 22.645 116.195 22.4C115.81 22.365 115.6 22.47 115.6 22.75C115.6 22.96 115.775 23.17 116.125 23.415C117.175 24.115 118.26 24.64 119.275 25.025C119.555 25.13 119.8 25.165 120.01 25.165C120.22 25.165 120.43 25.095 120.675 24.99C121.445 24.605 122.565 24.36 124 24.255C126.94 24.08 129.705 23.975 132.19 23.975V30.905C132.19 32.97 132.54 33.985 133.135 33.985C133.87 33.985 134.465 32.935 134.78 30.835C134.885 29.96 134.99 29.085 135.025 28.105L135.165 23.87C135.48 23.45 135.655 23.17 135.655 22.925ZM124.805 16.38L116.475 16.555L116.51 11.27L124.805 11.13V16.38ZM169.935 31.29C169.935 30.625 169.55 30.24 168.745 30.1C168.08 29.995 167.205 29.925 166.155 29.925C165.84 29.925 165.385 30.065 164.825 30.31C164.195 30.59 163.18 30.765 161.885 30.87C160.065 31.01 157.51 31.045 154.605 31.01C154.08 30.975 153.835 30.73 153.835 30.275V28C153.835 27.685 153.835 27.475 153.87 27.3C158.385 27.125 163.075 27.055 167.135 27.055C167.87 27.055 168.22 26.81 168.22 26.355C168.22 25.9 167.765 25.515 166.855 25.34C167.275 24.36 167.66 23.31 167.94 22.225C167.975 22.05 168.115 21.875 168.29 21.7C168.605 21.455 168.745 21.21 168.745 21C168.745 20.755 168.57 20.615 168.22 20.51C167.345 20.265 166.54 20.125 165.735 20.125C165.315 20.125 164.475 20.51 164.09 20.545C162.83 20.65 161.5 20.72 160.17 20.755C160.275 20.475 160.38 20.09 160.45 19.67C160.59 18.865 160.66 17.955 160.66 17.045C163.285 16.975 166.085 16.94 168.955 16.94C170.355 16.94 171.755 17.01 173.225 17.15C174.275 17.22 174.835 16.835 174.835 15.995C174.835 15.47 174.45 15.085 173.75 14.875C172.805 14.595 171.685 14.455 170.39 14.455C170.005 14.455 169.585 14.595 169.025 14.91C168.5 15.155 167.345 15.33 165.525 15.4C159.505 15.645 153.555 15.785 149.145 15.785C147.185 15.785 145.47 15.68 144 15.435C143.44 15.33 143.195 15.435 143.195 15.715C143.195 15.96 143.37 16.17 143.72 16.38C144.945 17.22 146.17 17.815 147.395 18.2C147.64 18.27 147.815 18.305 147.99 18.305C148.41 18.305 149.18 17.78 150.44 17.605C150.86 17.535 151.385 17.465 152.085 17.43C153.8 17.325 155.76 17.22 157.895 17.15V19.32C157.895 19.95 157.93 20.44 158.035 20.825C156.425 20.86 154.885 20.86 153.555 20.825C152.225 20.79 150.895 20.685 149.495 20.475C149.075 20.44 148.83 20.545 148.83 20.825C148.83 21 149.005 21.175 149.25 21.35C150.055 21.875 151.07 22.4 152.19 22.855C152.505 22.96 152.75 23.03 152.925 23.03C153.31 23.03 153.8 22.575 155.48 22.435C159.295 22.225 162.865 22.12 164.755 22.12C164.755 23.135 164.685 24.22 164.545 25.235C164.44 25.445 164.3 25.585 164.125 25.585C161.745 25.76 158.245 25.83 154.325 25.83C154.08 25.83 153.8 25.795 153.52 25.725C153.135 25.62 152.855 25.585 152.68 25.515C151.49 25.34 150.265 25.27 149.005 25.27C148.41 25.27 148.13 25.445 148.13 25.795C148.13 26.04 148.305 26.18 148.655 26.285C149.74 26.6 150.44 26.95 150.825 27.37V29.96C150.825 31.955 151.875 32.55 153.905 32.55C157.965 32.48 162.9 32.445 168.395 32.445C169.445 32.445 169.935 32.06 169.935 31.29ZM168.815 3.395C168.815 3.15 168.64 2.94 168.255 2.835C167.555 2.625 166.785 2.52 166.05 2.52C165.84 2.52 165.56 2.59 165.175 2.73C164.93 2.8 164.685 2.835 164.44 2.87C161.255 3.08 157.335 3.15 153.38 3.115C153.1 3.01 152.54 2.87 151.805 2.765C150.93 2.66 149.845 2.59 148.62 2.59C148.2 2.59 147.57 2.905 147.57 3.185C147.57 3.43 147.78 3.57 148.165 3.675C149.215 3.955 149.95 4.375 150.405 4.83L151.21 12.425C151.35 13.65 151.665 14.245 152.12 14.245C152.89 14.245 153.31 13.685 153.485 12.53C156.915 12.39 161.5 12.355 166.61 12.39C167.73 12.425 168.255 12.145 168.255 11.62C168.255 11.06 167.835 10.675 166.925 10.43C167.24 9.24 167.625 7.315 168.01 4.655C168.115 4.2 168.815 3.78 168.815 3.395ZM164.965 4.48L164.825 10.325C164.72 10.57 164.51 10.71 164.265 10.745C161.85 10.92 158.105 10.99 153.555 10.92L153.485 5.46V4.69C156.39 4.55 160.45 4.48 164.965 4.48ZM201.38 2.59C201.38 2.135 201.1 1.785 200.575 1.61C198.895 1.015 197.425 0.734998 196.13 0.734998C195.185 0.734998 194.66 0.909998 194.66 1.295C194.66 1.54 194.87 1.715 195.22 1.82C196.76 2.31 197.81 2.975 198.44 3.815V16.765C196.27 17.185 193.75 17.535 190.915 17.885C189.445 18.06 188.045 18.2 186.75 18.305L186.855 13.965C186.89 13.37 186.96 12.95 187.03 12.705C187.135 12.075 186.82 11.62 186.12 11.445C184.755 11.13 183.46 10.955 182.27 10.955C181.5 10.955 181.15 11.13 181.15 11.48C181.15 11.69 181.325 11.9 181.64 12.005C182.76 12.355 183.53 12.845 184.055 13.44L184.16 18.48C183.495 18.515 182.83 18.515 182.235 18.515C180.31 18.585 178.56 18.515 176.985 18.34C176.425 18.27 176.145 18.375 176.145 18.655C176.145 18.935 176.32 19.145 176.635 19.355C178.735 20.755 180.17 21.385 180.94 21.42C181.22 21.42 181.5 21.35 181.745 21.21C182.305 20.93 182.9 20.79 183.635 20.65C186.505 20.37 189.06 20.055 191.44 19.635C193.75 19.25 196.13 18.725 198.44 18.2V22.155C198.44 24.29 198.72 25.305 199.28 25.305C200.575 25.305 201.205 22.75 201.205 17.605V15.19C202.85 15.12 204.565 15.085 206.385 15.05C207.4 15.05 207.89 14.665 207.89 13.895C207.89 13.335 207.61 12.985 207.05 12.845C205.965 12.53 204.915 12.53 203.97 12.775C203.655 12.88 203.27 13.055 202.955 13.335C202.605 13.685 202.08 13.79 201.205 13.79V4.69C201.205 4.235 201.38 3.08 201.38 2.59ZM204.215 30.625C204.215 29.435 202.535 29.295 200.155 29.4C199.875 29.4 199.42 29.54 198.86 29.855C198.23 30.17 197.11 30.345 195.535 30.38C193.085 30.485 191.44 30.485 189.445 30.45C188.815 30.415 188.5 30.065 188.5 29.365V26.04C188.5 25.55 188.5 25.13 188.535 24.745C188.64 23.975 188.395 23.555 187.835 23.45C186.855 23.275 185.385 23.17 183.46 23.17C182.935 23.17 182.06 23.555 182.06 23.87C182.06 24.115 182.235 24.29 182.655 24.36C184.405 24.71 185.385 25.13 185.63 25.585L185.665 28.805C185.7 31.115 186.54 31.99 189.41 31.955C192.945 31.92 197.04 31.885 202.745 31.885C203.725 31.885 204.215 31.43 204.215 30.625ZM195.08 5.32C195.08 5.075 194.87 4.865 194.38 4.725C193.68 4.515 192.945 4.41 192.105 4.41C191.72 4.41 190.67 4.83 190.285 4.865C188.36 5.005 185.665 5.075 182.865 5.075C181.08 5.11 179.61 5.005 178.455 4.83C177.895 4.76 177.65 4.865 177.65 5.18C177.65 5.355 177.825 5.565 178.175 5.81C179.12 6.475 180.1 6.965 181.08 7.315C181.325 7.42 181.535 7.455 181.71 7.455C181.92 7.455 182.13 7.385 182.375 7.28C182.97 6.965 183.81 6.79 184.825 6.685C186.715 6.51 188.99 6.44 191.02 6.475C191.055 7.49 191.055 9.17 191.02 10.43C190.95 12.18 190.845 13.545 190.67 14.665C190.635 14.84 190.635 15.05 190.635 15.225C190.635 15.505 190.775 15.68 191.09 15.68C191.37 15.68 191.615 15.435 191.79 15.015C192.455 13.65 193.05 12.145 193.54 10.465C193.89 9.275 194.17 7.525 194.415 6.265C194.87 5.81 195.08 5.495 195.08 5.32Z" fill="white"/>
</svg>
