<svg xmlns="http://www.w3.org/2000/svg" viewBox="0 0 278.14 44.65"><g id="Layer_2" data-name="Layer 2"><g id="Layer_1-2" data-name="Layer 1"><path d="M40,34.59c-2.07-.14-3.9-.19-5.5-.19-8.46,0-16.59.19-22.61.61a13.78,13.78,0,0,0-4.41.9,2.9,2.9,0,0,1-1,.28,2.8,2.8,0,0,1-.85-.14,20.86,20.86,0,0,1-4.88-2.4C.23,33.37,0,33,0,32.71s.33-.47,1.08-.38A45.75,45.75,0,0,0,8,32.85c5.17,0,12.17-.14,19.64-.37A124.66,124.66,0,0,0,29.23,18c.14-2.44.19-6.06.19-9.07a136.64,136.64,0,0,0-13.68.28,11.39,11.39,0,0,0-4.55,1,1.79,1.79,0,0,1-.85.28,2.26,2.26,0,0,1-1-.23A17,17,0,0,1,5.22,8.08c-.52-.37-.76-.65-.76-.89,0-.42.38-.56,1-.47a36.11,36.11,0,0,0,6,.47c6.3,0,11.94-.14,16.88-.47.8,0,2.06-.61,2.49-.61a10.86,10.86,0,0,1,3.1.42c.61.19.94.47.94.8S34.64,8,34,8.6c-.24,3.62-.66,8-1.23,11.33a100.46,100.46,0,0,1-3,12.45c.24,0,.43-.05.66-.05a15.05,15.05,0,0,0,4.79-.75A5.48,5.48,0,0,1,37,31.06a16.16,16.16,0,0,1,4,.52c.89.24,1.41.75,1.41,1.55C42.49,34.21,41.59,34.73,40,34.59Z"/><path d="M80.23,5.31V18.42A47.68,47.68,0,0,1,80,23.55c-.37,2.82-1.17,4.18-2.3,4.18-.85,0-1.22-1.18-1.22-3.53V22.28c-3,.94-6.63,1.78-10.06,2.53a96.44,96.44,0,0,1-11.8,2,6.39,6.39,0,0,1-2.25-.1c-.61-.09-1.13-.56-1.6-1.45a5,5,0,0,1-.57-2.63v-6a6.33,6.33,0,0,0-3.14-1.51c-.52-.14-.8-.28-.8-.65s.47-.8,1.5-.8a31.08,31.08,0,0,1,6,.61,9,9,0,0,0,1.13,0c.8,0,2.07,0,4.13-.14a24.65,24.65,0,0,0,4.56-.42.56.56,0,0,0,.33-.38,55.35,55.35,0,0,0,.05-6.15c-2.82,0-5.64.09-7.43.23a9.74,9.74,0,0,0-3.19.66,3,3,0,0,1-1,.28,2.15,2.15,0,0,1-1-.19,16.12,16.12,0,0,1-3.62-2.06c-.33-.24-.52-.43-.52-.66s.38-.47,1-.38c1.17.14,2.82.24,4.84.28,3.15,0,6.91,0,10.24-.32.52,0,1.65-.52,2.17-.52a11.57,11.57,0,0,1,3.1.47c.42.09.65.28.65.61s-.18.52-.61.89a1.17,1.17,0,0,0-.42.57,49.68,49.68,0,0,1-1.32,6.25c1.27.28,1.88.75,1.88,1.31s-.42,1-1.31,1.08c-3.53.15-8.08.38-13.21.8a7.49,7.49,0,0,0,0,.9v4.7a1,1,0,0,0,1.08,1.08,101.44,101.44,0,0,0,11.18-.76,100.87,100.87,0,0,0,10.11-1.83V4.09a7.89,7.89,0,0,0-4.33-2.68c-.47-.14-.7-.38-.7-.7,0-.48.66-.71,2-.71a18.89,18.89,0,0,1,5.92,1.13,1.38,1.38,0,0,1,1.13,1.36C80.46,3,80.23,3.9,80.23,5.31ZM79.8,31.58c-.33,2.31-.8,4.65-1.45,7.76,1.22.33,1.83.84,1.83,1.55s-.75,1-2.16,1c-4.66-.05-10,0-15.61.19-.28,1.6-.89,2.35-1.83,2.35-.75,0-1.22-.8-1.36-2.49l-1-10.2a6,6,0,0,0-2.91-1.55c-.52-.14-.8-.33-.8-.61s.75-.8,1.41-.8a33.41,33.41,0,0,1,4.13.28,8.84,8.84,0,0,1,2.12.47c4.56,0,9-.14,12.92-.37.43,0,1.51-.38,1.93-.38a12.18,12.18,0,0,1,3.1.38c.52.14.75.37.75.7C80.88,30.41,79.85,31,79.8,31.58Zm-17.48.1a6.2,6.2,0,0,0,0,1l.24,7.19c5,.09,9.16,0,12.31-.28a.85.85,0,0,0,.8-.52l.14-7.75C72.14,31.35,67.63,31.44,62.32,31.68Z"/><path d="M109.46,11.33a1.77,1.77,0,0,1-.42.56,38.12,38.12,0,0,1-4.19,5.83l2,1.69a7.72,7.72,0,0,0,2.54,1.36,2.27,2.27,0,0,1,1.55.85A10,10,0,0,1,112.19,24a3.26,3.26,0,0,1,.28,1.08c0,.7-.38,1.08-1.18,1.13-.42,0-.94-.28-1.59-.9l-6.4-5.92a30.79,30.79,0,0,1-2.53,2.31A42.07,42.07,0,0,1,90.8,28a1.29,1.29,0,0,1-.66.19c-.37,0-.56-.14-.56-.47s.14-.52.52-.75a57,57,0,0,0,8.08-6.72A36.44,36.44,0,0,0,105,11.51,69.85,69.85,0,0,0,98,12a4.38,4.38,0,0,0-1.65.61,1.6,1.6,0,0,1-.7.19,3.35,3.35,0,0,1-.8-.14,18.87,18.87,0,0,1-3.34-1.93c-.47-.28-.7-.56-.66-.84s.24-.47.75-.43a44.62,44.62,0,0,0,4.61.33,76.3,76.3,0,0,0,8.32-.33c.94,0,1.41-.51,2.11-.51a9.67,9.67,0,0,1,2.92.33c.51.14.8.37.8.7C110.31,10.57,109.84,11,109.46,11.33Zm-4.65-4.56c-2.16.09-3.57.19-4.09.23a7.26,7.26,0,0,1-1,0c-1.31,0-2.16-.56-4.09-2.63a1,1,0,0,1-.33-.71c0-.28.24-.42.71-.42l.89.14a46.64,46.64,0,0,0,7.85.61c1.18,0,1.79.47,1.79,1.41S106,6.72,104.81,6.77ZM126.1,31.44l-.1,5.22c0,.94-.14,2.16-.28,3.52-.33,3-1.08,4.47-2.25,4.47-.8,0-1.23-1.22-1.23-3.67V31.72c-4.08,0-9,.1-12.87.33a11.86,11.86,0,0,0-4.56,1,2.31,2.31,0,0,1-.85.23,2.73,2.73,0,0,1-1-.18,17.18,17.18,0,0,1-4.19-2.17c-.47-.32-.7-.61-.7-.89s.33-.52,1.08-.42a36.62,36.62,0,0,0,5.92.42c4.89,0,10.76-.14,15.7-.47.51,0,1.92-.47,2.49-.47a12.92,12.92,0,0,1,2.68.33c.61.14.89.42.89.8S126.61,30.88,126.1,31.44ZM117.78,7.61v7.66l5-.14V4a7.56,7.56,0,0,0-4-2.63c-.47-.14-.7-.37-.7-.65,0-.48.66-.71,2-.71a17,17,0,0,1,5.55,1.18c.84.23,1.22.65,1.22,1.31a4.31,4.31,0,0,1-.14,1,9.51,9.51,0,0,0-.14,1.74V17.67a39.47,39.47,0,0,1-.33,5.73c-.33,3.06-1,4.52-2.26,4.52-.8,0-1.17-1.32-1.17-4.05V17.25l-5,.14v2a30.47,30.47,0,0,1-.28,4.28c-.38,2.91-1.13,4.32-2.17,4.32-.79,0-1.26-1.36-1.26-4.09V6.3a6.43,6.43,0,0,0-3.53-2.45c-.52-.14-.75-.37-.75-.65,0-.47.61-.71,1.88-.71a16.29,16.29,0,0,1,5.26,1,1.41,1.41,0,0,1,1,1.42C118,5.26,117.78,6.53,117.78,7.61Z"/><path d="M170.61,5.92a17.63,17.63,0,0,0-.14,2l-.15,11.37a14.5,14.5,0,0,1-.37,3.48c-.33,1.88-1,2.82-2.12,2.82-.7,0-1.08-.76-1.22-2.35l-11.37.18c-.24,1.41-1.18,2.92-2.16,2.92s-1.27-1.13-1.32-3.29l-.23-13.87A6.46,6.46,0,0,0,148,7.33c-.52-.14-.75-.37-.75-.7s1-.8,1.55-.8a28.13,28.13,0,0,1,5.5.56c.85.14,1.31.61,1.31,1.32,0-.14-.09,1.17-.09,1.6l-.05,2.63,11.14-.19V6.63a7.27,7.27,0,0,0-3.34-2c-.46-.15-.65-.38-.65-.62,0-.47,1-.79,1.6-.79a21,21,0,0,1,5.63,1,1,1,0,0,1,.85,1.08C170.7,5.36,170.65,5.59,170.61,5.92Zm9.91,25.14-.18,5.69c-.05,1.32-.19,2.49-.33,3.67-.43,2.82-1.23,4.23-2.21,4.23-.8,0-1.27-1.37-1.27-4.14v-9.3c-3.34,0-7.05.14-11,.37a12.19,12.19,0,0,0-4.46,1,2.3,2.3,0,0,1-.9.23,2.73,2.73,0,0,1-1-.18A21.24,21.24,0,0,1,155,30.45c-.47-.32-.71-.61-.71-.89s.28-.52.8-.47a46.35,46.35,0,0,0,6.39.47c3.25,0,7.9-.19,14-.52.52,0,1.88-.47,2.44-.47a8.41,8.41,0,0,1,2.35.43c.66.19,1,.47,1,.8A2.4,2.4,0,0,1,180.52,31.06ZM166.61,14l-11.14.19,0,7.09L166.61,21Zm14.2-8.65v9.35a3.36,3.36,0,0,0,2.34-.56,5.75,5.75,0,0,1,1.37-.75,7.31,7.31,0,0,1,4.13.14,1.31,1.31,0,0,1,1.13,1.36c0,1-.66,1.55-2,1.6l-6.95.14v1.55a36,36,0,0,1-.29,5.12c-.33,2.82-1.08,4.19-2.25,4.19-.8,0-1.18-1.18-1.18-3.53V4.09a8.31,8.31,0,0,0-4.32-2.68c-.47-.14-.75-.38-.75-.7,0-.48.7-.71,2-.71a18.69,18.69,0,0,1,5.92,1.13A1.38,1.38,0,0,1,181,2.49C181,3,180.81,3.9,180.81,5.31Z"/><path d="M225.13,42.58c-7.38,0-14,.05-19.46.14-2.73,0-4.14-.8-4.14-3.48V35.77a6.22,6.22,0,0,0-2.91-1.46c-.47-.14-.71-.33-.71-.66s.38-.71,1.18-.71a34.5,34.5,0,0,1,4.93.33c.24.1.62.15,1.13.29a4.78,4.78,0,0,0,1.08.14c5.27,0,10-.1,13.16-.33.24,0,.42-.19.57-.47a32.61,32.61,0,0,0,.28-4.18c-2.54,0-7.33.14-12.46.42a17.25,17.25,0,0,0-3.43.8,3.66,3.66,0,0,1-1-.24,23,23,0,0,1-4-2c-.33-.23-.57-.47-.57-.7s.33-.52.9-.47a45.08,45.08,0,0,0,5.45.47c1.78,0,3.85,0,6,0a8.1,8.1,0,0,1-.18-2V22c-2.87.1-5.5.24-7.8.38a18.2,18.2,0,0,0-2.21.23c-1.7.24-2.73.94-3.29.94a2.64,2.64,0,0,1-.8-.14A18.58,18.58,0,0,1,192,21c-.47-.28-.7-.57-.7-.9s.33-.51,1.08-.37a42.62,42.62,0,0,0,6.91.47c5.92,0,13.91-.19,22-.52A14.59,14.59,0,0,0,226,19a3.83,3.83,0,0,1,1.83-.61,15.88,15.88,0,0,1,4.52.57c.94.28,1.45.8,1.45,1.5,0,1.13-.75,1.65-2.16,1.55-2-.19-3.85-.28-5.73-.28-3.86,0-7.62,0-11.14.14a21,21,0,0,1-.28,3.53,8.57,8.57,0,0,1-.38,1.45c1.79,0,3.57-.14,5.27-.28.51-.05,1.64-.56,2.2-.56a12.16,12.16,0,0,1,3.34.51c.47.14.71.33.71.66a1.3,1.3,0,0,1-.62.94,1.51,1.51,0,0,0-.46.71A30.74,30.74,0,0,1,223.06,33c1.22.23,1.83.75,1.83,1.36s-.47.94-1.46.94c-5.45,0-11.74.1-17.81.33a4.88,4.88,0,0,0-.05.94v3.06c0,.61.33.94,1,1,3.9.05,7.33,0,9.77-.19a13.1,13.1,0,0,0,4-.75,4.94,4.94,0,0,1,1.79-.51,23.15,23.15,0,0,1,3.48.23c1.08.19,1.59.71,1.59,1.6S226.54,42.58,225.13,42.58Zm-.52-37.32A75,75,0,0,1,223.15,13c1.22.33,1.79.84,1.79,1.6s-.71,1.08-2.21,1c-6.86-.05-13,0-17.63.19-.23,1.55-.79,2.3-1.83,2.3-.61,0-1-.8-1.22-2.44L201,5.5A6.59,6.59,0,0,0,198,4c-.52-.14-.8-.33-.8-.66s.85-.8,1.41-.8a34.59,34.59,0,0,1,4.28.24A11.07,11.07,0,0,1,205,3.2c5.31,0,10.58-.05,14.85-.33a8.63,8.63,0,0,0,1-.19A3.64,3.64,0,0,1,222,2.4a10.59,10.59,0,0,1,3,.42c.51.14.75.42.75.75C225.69,4.09,224.75,4.65,224.61,5.26Zm-19.51,0v1l.1,7.34c6.11.09,11.14,0,14.38-.24a.93.93,0,0,0,.75-.56L220.52,5C214.46,5,209,5.12,205.1,5.31Z"/><path d="M269.16,5.31V17.53a3.13,3.13,0,0,0,2.35-.61,3.89,3.89,0,0,1,1.37-.75,7.76,7.76,0,0,1,4.13.09,1.34,1.34,0,0,1,1.13,1.41c0,1-.66,1.55-2,1.55-2.44.05-4.75.1-7,.19v3.24c0,6.91-.84,10.34-2.58,10.34-.75,0-1.13-1.36-1.13-4.23V23.45c-3.1.71-6.3,1.41-9.4,1.93s-6.62,1-10.48,1.36a9.86,9.86,0,0,0-2.54.75,2.16,2.16,0,0,1-1.08.29c-1-.05-3-.9-5.78-2.78-.42-.28-.66-.56-.66-.94s.38-.51,1.13-.42a48.05,48.05,0,0,0,7.05.23c.8,0,1.69,0,2.59,0l-.14-6.77a6.94,6.94,0,0,0-3.25-1.93c-.42-.14-.66-.42-.66-.7,0-.47.47-.71,1.51-.71a23.4,23.4,0,0,1,5.17.66,1.41,1.41,0,0,1,1.22,1.69,8.39,8.39,0,0,0-.23,1.7l-.15,5.82c1.74-.14,3.62-.33,5.6-.56,3.8-.47,7.19-.94,10.1-1.51V4.14a8.29,8.29,0,0,0-4.32-2.68c-.47-.14-.75-.38-.75-.71,0-.52.7-.75,2-.75a18.06,18.06,0,0,1,6,1.18,1.37,1.37,0,0,1,1.08,1.31C269.4,3.15,269.16,4.7,269.16,5.31Zm-9.11,2.12c-.33,1.69-.71,4-1.18,5.64a39,39,0,0,1-2.35,6.1c-.23.57-.56.9-.94.9a.55.55,0,0,1-.61-.61,3.73,3.73,0,0,1,.05-.75,54.08,54.08,0,0,0,.47-5.69c0-1.69,0-3.95,0-5.31a78,78,0,0,0-8.32.28,9.42,9.42,0,0,0-3.29.8A2.3,2.3,0,0,1,243,9a2.13,2.13,0,0,1-.85-.18,16,16,0,0,1-3.9-2c-.47-.32-.71-.61-.71-.84,0-.42.33-.57,1.09-.47a36.63,36.63,0,0,0,5.92.33c3.76,0,7.38-.1,10-.28.52,0,1.93-.61,2.44-.61a10.53,10.53,0,0,1,3.06.42c.66.19.94.47.94.8S260.66,6.81,260.05,7.43Zm11.18,34.4c-7.66,0-13.16,0-17.9.09-3.86,0-5-1.13-5-4.23l-.05-4.32c-.33-.61-1.65-1.18-4-1.65-.57-.09-.8-.33-.8-.66s1.17-.93,1.88-.93a36.38,36.38,0,0,1,5.87.37c.75.14,1.08.71.94,1.74-.05.52-.05,1.08-.05,1.74v4.46c0,.94.43,1.41,1.27,1.46,2.68.05,4.89.05,8.18-.09A11.73,11.73,0,0,0,266,39.1a4,4,0,0,1,1.73-.61c3.2-.14,5.46,0,5.46,1.65C273.21,41.22,272.55,41.83,271.23,41.83Z"/></g></g></svg>