<svg xmlns="http://www.w3.org/2000/svg" viewBox="0 0 640 676"><defs><style>.cls-1{opacity:0.5;}.cls-2{fill:#fff;}</style></defs><g id="Layer_2" data-name="Layer 2"><g id="Layer_1-2" data-name="Layer 1"><g class="cls-1"><rect width="640" height="676"/></g><path class="cls-2" d="M77.7,274.31c-.07.49-.42.95-.68.95s-.17-.06-.17-.25l-.11-4.25c0-.17-.59-.46-.77-.52s-.1,0-.1-.08.07-.34.22-.34a9.68,9.68,0,0,1,1.53.19c.32,0,3.07,0,3.25-.05a1.12,1.12,0,0,0,.38-.15c.49,0,1.06.24,1.06.39a2.33,2.33,0,0,0,0,.34l-.13,2.35a2.63,2.63,0,0,1-.14.72.88.88,0,0,1,.25.54c0,.1,0,.14-.15.14Zm3.59-3.63-3.59,0,0,2.87h3.5Zm5.49,10.21c0,.11-.06.15-.17.15l-5.39.1c-1,0-1.32-.33-1.32-1v-1.7a1.13,1.13,0,0,1-.29-.34.18.18,0,0,1,0-.11s0-.1,0-.1c.8,0,4.54,0,5,0v-1.6c-1,0-3.83.13-4.58.27a1.9,1.9,0,0,1-.72-.65.28.28,0,0,1,0-.15c0-.11,0-.16.07-.16a36.21,36.21,0,0,0,5.24-.07c.45,0,1.08.28,1.08.41a2.17,2.17,0,0,0,0,.25l-.15,1.72a1.66,1.66,0,0,1,.13.52.12.12,0,0,1-.13.13c-.42,0-3.29,0-4.68.07v1.44c0,.2.09.28.42.3s3.87-.09,4.09-.1a10.25,10.25,0,0,0,1-.23C86.51,280.06,86.78,280.64,86.78,280.89Zm2-8.28c0,.13-.06.16-.17.16h-3c0,.82,0,1.72,0,2s-.33.32-.75.32c-.16,0-.24-.07-.24-.23v-5.7a2,2,0,0,0-.07-.52c-.06-.18-.63-.47-1-.58-.13-.05-.17-.07-.17-.14a.33.33,0,0,1,.35-.3c.59,0,1.9.31,1.9.55a3.84,3.84,0,0,0-.08.67c0,.32,0,2.26,0,2.93v.29h1.87a3.45,3.45,0,0,0,.88-.28C88.49,271.77,88.83,272.32,88.83,272.61Z"/><path class="cls-2" d="M97.36,274.53a41.48,41.48,0,0,1-5.59.93.64.64,0,0,1-.23,0,2.28,2.28,0,0,1-.73-.46.29.29,0,0,1-.07-.22v-2.22a1.36,1.36,0,0,1-.3-.35.26.26,0,0,1,0-.11c0-.05,0-.1,0-.1.87,0,4.2,0,4.79,0v-1.65c-.91,0-3.32.14-4.06.29a2,2,0,0,1-.72-.66.26.26,0,0,1,0-.15c0-.11,0-.15.07-.15.7.09,3.94,0,4.37,0a.73.73,0,0,0,.36-.11c.45,0,1.07.33,1.07.47a1.18,1.18,0,0,0,0,.26l-.16,1.72a1.53,1.53,0,0,1,.13.52c0,.08,0,.12-.13.12-.42,0-3.07.05-4.42.12v1.76c0,.07,0,.11.15.11.6,0,5.2-.49,5.58-.61l.11,0s.11.11.11.22A.37.37,0,0,1,97.36,274.53Zm2.4,4.4c0,1.44-1.15,2.48-3,2.48s-3-1-3-2.48,1.15-2.48,3-2.48S99.76,277.46,99.76,278.93Zm-1,0c0-1-.71-1.71-2-1.71s-2,.67-2,1.71.72,1.71,2,1.71S98.79,280,98.79,278.93Zm4-5.62c0,.13-.06.16-.17.16H99.6c0,.95.05,2.15.07,2.46,0,.13-.33.32-.75.32-.16,0-.24-.07-.24-.22v-6.88a2,2,0,0,0-.07-.52c-.06-.18-.63-.47-1-.58-.13-.05-.17-.07-.17-.14a.33.33,0,0,1,.35-.3c.59,0,1.9.31,1.9.55a3.84,3.84,0,0,0-.08.67c0,.32,0,3.18,0,3.92h1.87a3.45,3.45,0,0,0,.88-.28C102.49,272.47,102.83,273,102.83,273.31Z"/><path class="cls-2" d="M105.7,274.31c-.07.49-.42.95-.68.95s-.17-.06-.17-.25l-.11-4.25c0-.17-.59-.46-.77-.52s-.1,0-.1-.08.07-.34.22-.34a9.68,9.68,0,0,1,1.53.19c.32,0,3.07,0,3.25-.05a1.12,1.12,0,0,0,.38-.15c.49,0,1.06.24,1.06.39a2.33,2.33,0,0,0,0,.34l-.13,2.35a2.63,2.63,0,0,1-.14.72.88.88,0,0,1,.25.54c0,.1,0,.14-.15.14Zm3.59-3.63-3.59,0,0,2.87h3.5Zm5.49,10.21c0,.11-.06.15-.17.15l-5.39.1c-1,0-1.32-.33-1.32-1v-1.7a1.13,1.13,0,0,1-.29-.34.18.18,0,0,1,0-.11s0-.1,0-.1c.8,0,4.54,0,5,0v-1.6c-1,0-3.83.13-4.58.27a1.9,1.9,0,0,1-.72-.65.28.28,0,0,1,0-.15c0-.11,0-.16.07-.16a36.21,36.21,0,0,0,5.24-.07c.45,0,1.08.28,1.08.41a2.17,2.17,0,0,0,0,.25l-.15,1.72a1.66,1.66,0,0,1,.13.52.12.12,0,0,1-.13.13c-.42,0-3.29,0-4.68.07v1.44c0,.2.09.28.42.3s3.87-.09,4.09-.1a10.25,10.25,0,0,0,1-.23C114.51,280.06,114.78,280.64,114.78,280.89Zm2-8.28c0,.13-.06.16-.17.16h-3c0,.82,0,1.72,0,2s-.33.32-.75.32c-.16,0-.24-.07-.24-.23v-5.7a2,2,0,0,0-.07-.52c-.06-.18-.63-.47-1-.58-.13-.05-.17-.07-.17-.14a.33.33,0,0,1,.35-.3c.59,0,1.9.31,1.9.55a3.84,3.84,0,0,0-.08.67c0,.32,0,2.26,0,2.93v.29h1.87a3.45,3.45,0,0,0,.88-.28C116.49,271.77,116.83,272.32,116.83,272.61Z"/><path class="cls-2" d="M125.36,274.53a41.48,41.48,0,0,1-5.59.93.64.64,0,0,1-.23,0,2.28,2.28,0,0,1-.73-.46.29.29,0,0,1-.07-.22v-2.22a1.36,1.36,0,0,1-.3-.35.26.26,0,0,1,0-.11c0-.05,0-.1,0-.1.87,0,4.2,0,4.79,0v-1.65c-.91,0-3.32.14-4.06.29a2,2,0,0,1-.72-.66.26.26,0,0,1,0-.15c0-.11,0-.15.07-.15.7.09,3.94,0,4.37,0a.73.73,0,0,0,.36-.11c.45,0,1.07.33,1.07.47a1.18,1.18,0,0,0,0,.26l-.16,1.72a1.53,1.53,0,0,1,.13.52c0,.08,0,.12-.13.12-.42,0-3.07.05-4.42.12v1.76c0,.07,0,.11.15.11.6,0,5.2-.49,5.58-.61l.11,0s.11.11.11.22A.37.37,0,0,1,125.36,274.53Zm2.4,4.4c0,1.44-1.15,2.48-3,2.48s-3-1-3-2.48,1.15-2.48,3-2.48S127.76,277.46,127.76,278.93Zm-1,0c0-1-.71-1.71-2-1.71s-2,.67-2,1.71.72,1.71,2,1.71S126.79,280,126.79,278.93Zm4-5.62c0,.13-.06.16-.17.16H127.6c0,.95.05,2.15.07,2.46,0,.13-.33.32-.75.32-.16,0-.24-.07-.24-.22v-6.88a2,2,0,0,0-.07-.52c-.06-.18-.63-.47-1-.58-.13-.05-.17-.07-.17-.14a.33.33,0,0,1,.35-.3c.59,0,1.9.31,1.9.55a3.84,3.84,0,0,0-.08.67c0,.32,0,3.18,0,3.92h1.87a3.45,3.45,0,0,0,.88-.28C130.49,272.47,130.83,273,130.83,273.31Z"/><path class="cls-2" d="M139.33,272c-1.35,0-6.24,0-7.05.18a2.19,2.19,0,0,1-.75-.59.23.23,0,0,1,0-.14c0-.08,0-.15.06-.15.8.11,6.38,0,6.57,0a8.72,8.72,0,0,0,.91-.19c.12,0,.46.49.46.74S139.45,272,139.33,272Zm-3.66,4.69c-1.53,0-2.57-.74-2.57-1.92s1-1.89,2.57-1.89,2.54.74,2.54,1.89S137.19,276.66,135.67,276.66Zm-2.39-6.91c0-.18.06-.39.1-.39a13.76,13.76,0,0,0,3.21,0,2.3,2.3,0,0,0,.53-.23c.17,0,.52.45.52.73a.19.19,0,0,1-.17.21,10.61,10.61,0,0,1-1.95.11,7.18,7.18,0,0,1-2.08-.24C133.31,269.91,133.28,269.85,133.28,269.75Zm2.39,6.22c1,0,1.59-.47,1.59-1.23s-.63-1.2-1.59-1.2-1.62.46-1.62,1.2S134.68,276,135.67,276Zm7.45,4.74c0,.11-.06.15-.17.15l-5.41.1c-1.08,0-1.57-.43-1.57-1v-1.59c0-.19-.38-.42-.57-.48a.07.07,0,0,1-.06-.07.28.28,0,0,1,.3-.29c.47,0,1.3.19,1.3.32s0,.36,0,.49v1.48c0,.24.14.4.58.41s3.89-.07,4.14-.1a8.39,8.39,0,0,0,1.05-.25C142.82,279.84,143.12,280.41,143.12,280.71Zm1.71-6.61c0,.12-.06.15-.17.15H141.6v.41c0,1,.05,3,.09,3.46,0,.12-.35.32-.77.32-.16,0-.24-.07-.24-.23v-9.06a2,2,0,0,0-.07-.52c-.06-.18-.63-.47-1-.58-.13-.05-.17-.07-.17-.14a.33.33,0,0,1,.35-.3c.59,0,1.9.31,1.9.55a3.84,3.84,0,0,0-.08.67c0,.24,0,3,0,4.71h1.87a3.89,3.89,0,0,0,.88-.28C144.49,273.26,144.83,273.8,144.83,274.1Z"/><path class="cls-2" d="M153.51,272.79a11.12,11.12,0,0,1-3.58,3.09.79.79,0,0,1-.34.09.33.33,0,0,1-.32-.28c0-.05,0-.08.17-.16a12.88,12.88,0,0,0,4-4.56.48.48,0,0,0-.14-.4,24.48,24.48,0,0,0-2.47.11,2.71,2.71,0,0,1-.7-.59.19.19,0,0,1,0-.13c0-.08,0-.15.06-.15.7.08,5.39,0,5.6,0a6.52,6.52,0,0,0,1-.22c.13,0,.46.5.46.77,0,.1,0,.14-.15.14l-2.91,0a2,2,0,0,1,.46.5,5.12,5.12,0,0,1-.69,1.29,14.78,14.78,0,0,1,3,1.56.48.48,0,0,1,.21.43c0,.38-.18.64-.4.64-.07,0-.1,0-.21-.12A17.79,17.79,0,0,0,153.51,272.79Zm7.75,8.1c0,.11,0,.15-.17.15l-5.6.1c-1,0-1.32-.33-1.32-1v-1.61a1.44,1.44,0,0,1-.29-.34.22.22,0,0,1,0-.11c0-.06,0-.1,0-.1.79,0,4.75,0,5.26,0v-1.54c-1,0-4,.13-4.79.27a1.9,1.9,0,0,1-.72-.65.28.28,0,0,1,0-.15c0-.11,0-.16.07-.16a39.18,39.18,0,0,0,5.45-.07c.45,0,1.08.28,1.08.41a2.17,2.17,0,0,0,0,.25L160,278a1.54,1.54,0,0,1,.13.5.12.12,0,0,1-.13.13c-.42,0-3.46,0-4.89.07v1.37c0,.2.09.28.42.3s4.08-.09,4.3-.1a10.25,10.25,0,0,0,1-.23C161,280.06,161.26,280.64,161.26,280.89Zm-3.19-13a.33.33,0,0,1,.35-.3c.59,0,1.9.31,1.9.55a3.84,3.84,0,0,0-.08.67c0,.32,0,2.38,0,3.05,0,.89,0,2.62.07,3,0,.12-.33.32-.75.32-.16,0-.24-.07-.24-.23v-5.84a2,2,0,0,0-.07-.52c-.06-.18-.63-.47-1-.58C158.11,268,158.07,268,158.07,267.91Z"/><path class="cls-2" d="M176.44,275.15c0,.12-.07.18-.24.17s-1.46,0-2.17,0l-3.18,0v.75c0,.73,0,2.07.05,2.35,0,.13-.32.31-.71.31-.18,0-.24-.07-.24-.24v-3.17l-3.72.05c-.45,0-1.45.09-1.84.14a2.25,2.25,0,0,1-.9-.64.3.3,0,0,1-.08-.2c0-.08,0-.17.06-.17l.14,0c1.15.14,10.46,0,10.8,0,.15,0,1.29-.25,1.45-.29S176.44,274.8,176.44,275.15Zm-2.24,5.56c0,.11-.06.15-.17.15l-5.76.1c-1.09,0-1.57-.46-1.57-1.06v-2.25c0-.19-.46-.44-.7-.51,0,0-.05,0-.05-.07a.28.28,0,0,1,.29-.3c.53,0,1.44.24,1.44.37s0,.37,0,.5v2.13c0,.24.14.41.58.42s4.23-.07,4.48-.1a8.39,8.39,0,0,0,1-.25C173.9,279.84,174.2,280.41,174.2,280.71ZM166,268.93c0-.14.07-.34.22-.34a12.44,12.44,0,0,1,1.53.16c.26,0,3.72-.06,3.89-.07a1.54,1.54,0,0,0,.38-.16c.49,0,1.06.24,1.06.41l-.07.36-.11,1.78a3.63,3.63,0,0,1-.21.95h0c.1,0,.31.34.31.58s-.05.14-.15.14l-5.09.05a.91.91,0,0,1-.67.59c-.13,0-.15-.07-.17-.26l-.11-3.58c0-.16-.55-.47-.76-.53S166,269,166,268.93Zm6.06.47-4.24.07v2.61l4.16,0Z"/><path class="cls-2" d="M178.42,274a3.07,3.07,0,1,1,3.07,2.9A2.82,2.82,0,0,1,178.42,274Zm5.14,0a2.08,2.08,0,1,0-2.07,2.12A2,2,0,0,0,183.56,274Zm3.74,7.09V269.28a2.49,2.49,0,0,0-.07-.58,2.08,2.08,0,0,0-1-.65c-.13-.05-.17-.06-.17-.14a.33.33,0,0,1,.35-.3c.6,0,1.9.38,1.9.62a4.94,4.94,0,0,0-.08.77c0,.33,0,7.62,0,8.36,0,1,.05,3.22.09,3.61,0,.13-.31.34-.77.34C187.37,281.31,187.3,281.23,187.3,281.07Z"/><path class="cls-2" d="M198.83,272.71a10.17,10.17,0,0,1-3,3.11c-.18.1-.23.11-.3.11a.36.36,0,0,1-.34-.29c0-.06,0-.1.13-.17a12.88,12.88,0,0,0,3.54-5.18c0-.19-.36-.45-.52-.52s-.1-.06-.1-.1a.24.24,0,0,1,.26-.24,2.85,2.85,0,0,1,1.56.63,6.82,6.82,0,0,1-.91,2.12,12.26,12.26,0,0,1,2.16,2,.63.63,0,0,1,.14.42c0,.46-.18.73-.39.73s-.11,0-.21-.17A23.9,23.9,0,0,0,198.83,272.71Zm7.82,6.15c0,1.48-1.18,2.55-3.08,2.55s-3.08-1.07-3.08-2.55,1.17-2.55,3.08-2.55S206.65,277.35,206.65,278.86Zm-1,0c0-1.08-.74-1.78-2.11-1.78s-2.12.7-2.12,1.78.74,1.78,2.12,1.78S205.68,279.92,205.68,278.86Zm1-3.07c0,.13-.31.32-.74.32-.17,0-.24-.07-.24-.22v-3.1h-2.21v.06c0,.78,0,2.13.07,2.48,0,.13-.3.32-.73.32-.17,0-.24-.07-.24-.22v-5.75a1,1,0,0,0-.06-.33,1,1,0,0,0-.57-.51c-.13,0-.16-.07-.16-.14a.32.32,0,0,1,.34-.28c.53,0,1.46.31,1.46.51a3.85,3.85,0,0,0-.09.6c0,.21,0,1.61,0,2.56h2.2V269a1.17,1.17,0,0,0-.07-.38,1.41,1.41,0,0,0-.74-.54c-.13-.05-.16-.07-.16-.14a.33.33,0,0,1,.37-.3c.56,0,1.62.32,1.62.55a3.25,3.25,0,0,0-.08.63c0,.29,0,3.47,0,4.14C206.66,273.79,206.69,275.4,206.73,275.79Z"/><path class="cls-2" d="M209.81,276.38a1.08,1.08,0,0,1-.28.06.4.4,0,0,1-.34-.33c0-.05,0-.08.15-.12,1.53-.6,5.15-3.8,5.82-5.37a38.55,38.55,0,0,0-4.29.34,1.86,1.86,0,0,1-.7-.69.28.28,0,0,1,0-.15c0-.11,0-.16.07-.16a41.14,41.14,0,0,0,4.58,0,.75.75,0,0,0,.38-.11c.46,0,1.22.42,1.22.59a2.28,2.28,0,0,0-.17.35A13.68,13.68,0,0,1,209.81,276.38Zm9.68.81c0,.27,0,3.46,0,3.88,0,.13-.36.3-.76.3-.16,0-.23-.07-.23-.23v-4c-1.13,0-4.25.21-5,.35a1.87,1.87,0,0,1-.77-.66.26.26,0,0,1,0-.15c0-.11,0-.15.07-.15a46.28,46.28,0,0,0,5.73-.13c.47,0,1.06.28,1.06.43A2.32,2.32,0,0,0,219.49,277.19Zm3.18-3.85c0,.13-.06.15-.17.15h-3c0,.87,0,1.83,0,2.11,0,.12-.33.32-.75.32-.16,0-.24-.07-.24-.23v-6.54a2,2,0,0,0-.07-.52c-.06-.18-.63-.47-1-.58-.13-.05-.17-.07-.17-.14a.33.33,0,0,1,.35-.3c.59,0,1.9.31,1.9.55a3.84,3.84,0,0,0-.08.67c0,.32,0,3,0,3.66v.29h1.87a3.89,3.89,0,0,0,.88-.28C222.33,272.5,222.67,273.05,222.67,273.34Z"/><path class="cls-2" d="M224.76,274.15a.28.28,0,0,1-.07-.22v-3.42c0-.24-.65-.52-.92-.6,0,0,0,0,0-.07a.3.3,0,0,1,.29-.32c.48,0,1.7.23,1.7.39a2.48,2.48,0,0,0-.06.54v3.14c0,.13.05.18.22.18a49.68,49.68,0,0,0,5.4-.93l.12,0c.06,0,.11.1.11.23a.38.38,0,0,1-.23.38,26.91,26.91,0,0,1-5.5,1.27.62.62,0,0,1-.23,0A2.47,2.47,0,0,1,224.76,274.15Zm3.14,4.36a8.54,8.54,0,0,1-2.59,2.42.69.69,0,0,1-.28.09.31.31,0,0,1-.33-.28c0-.07,0-.1.16-.19a10.38,10.38,0,0,0,2.94-3.93.47.47,0,0,0-.2-.41s-.07,0-.07-.08a.25.25,0,0,1,.26-.23,1.64,1.64,0,0,1,1.17.63,5,5,0,0,1-.73,1.49,9,9,0,0,1,1.45,1,.67.67,0,0,1,.21.49c0,.36-.19.62-.38.62s-.13,0-.21-.13A15.12,15.12,0,0,0,227.9,278.51Zm6.9,1.54a.78.78,0,0,1,.18.52c0,.36-.18.61-.39.61s-.14,0-.24-.16a19.75,19.75,0,0,0-2.17-2.4,8.71,8.71,0,0,1-2.71,2.61.85.85,0,0,1-.28.07.31.31,0,0,1-.33-.28c0-.07,0-.1.16-.17a11.37,11.37,0,0,0,3.21-4.47.43.43,0,0,0-.2-.41c-.06,0-.07,0-.07-.08a.23.23,0,0,1,.25-.22,1.63,1.63,0,0,1,1.15.64,6.24,6.24,0,0,1-.83,1.81A12.35,12.35,0,0,1,234.8,280.05Zm1.87-7.37c0,.13-.06.16-.17.16h-3.06c0,.85.05,1.82.07,2.1,0,.12-.33.32-.75.32-.16,0-.24-.07-.24-.22v-5.89a2,2,0,0,0-.07-.52c-.06-.18-.63-.47-1-.58-.13-.05-.17-.07-.17-.14a.33.33,0,0,1,.35-.3c.59,0,1.9.31,1.9.55a3.84,3.84,0,0,0-.08.67c0,.32,0,2.41,0,3.1v.19h1.87a3.45,3.45,0,0,0,.88-.28C236.33,271.84,236.67,272.39,236.67,272.68Z"/><path class="cls-2" d="M248.23,281c0,.13-.31.34-.77.34-.17,0-.24-.08-.24-.24,0-.47,0-3.72,0-6.71h-2.75a2.92,2.92,0,1,1,0-.7h2.75v-4.38a2.49,2.49,0,0,0-.07-.58,2.08,2.08,0,0,0-1-.65c-.13-.05-.17-.06-.17-.14a.33.33,0,0,1,.35-.3c.6,0,1.9.38,1.9.62a4.94,4.94,0,0,0-.08.77c0,.33,0,7.62,0,8.36C248.14,278.4,248.19,280.58,248.23,281Zm-4.75-7a2.08,2.08,0,1,0-2.07,2.12A2,2,0,0,0,243.48,274Z"/><path class="cls-2" d="M252,278.69a.94.94,0,1,1,.94.94A.93.93,0,0,1,252,278.69Z"/><path class="cls-2" d="M83.33,294.65c-1.35,0-6.24.05-7,.18a2.16,2.16,0,0,1-.75-.58.23.23,0,0,1,0-.14c0-.1,0-.15.06-.15.8.1,6.38,0,6.57,0a5.55,5.55,0,0,0,.91-.2c.12,0,.46.49.46.75C83.49,294.6,83.45,294.65,83.33,294.65ZM79.67,299c-1.55,0-2.57-.7-2.57-1.81s1-1.79,2.57-1.79,2.54.7,2.54,1.79S81.19,299,79.67,299Zm-2.39-6.49c0-.18.06-.39.1-.39a13.76,13.76,0,0,0,3.21,0,2.3,2.3,0,0,0,.53-.23c.17,0,.52.45.52.73a.19.19,0,0,1-.17.21,10.61,10.61,0,0,1-2,.11,7.18,7.18,0,0,1-2.08-.24C77.31,292.7,77.28,292.64,77.28,292.54Zm2.39,5.8c1,0,1.59-.43,1.59-1.12s-.61-1.1-1.59-1.1-1.62.42-1.62,1.1S78.68,298.34,79.67,298.34Zm6,2.34c0,.27,0,3.06,0,3.39,0,.13-.36.3-.76.3-.16,0-.23-.07-.23-.23v-3.53c-1.13,0-4.25.21-5,.35a1.87,1.87,0,0,1-.77-.66.26.26,0,0,1,0-.15c0-.11,0-.15.07-.15a46.28,46.28,0,0,0,5.73-.13c.47,0,1.06.28,1.06.43A2.32,2.32,0,0,0,85.65,300.68Zm3.18-4.16c0,.13-.06.16-.17.16H85.6c0,.95.05,2.1.07,2.41,0,.12-.33.32-.75.32-.16,0-.24-.07-.24-.23v-7a2,2,0,0,0-.07-.52c-.06-.18-.63-.47-1-.58-.13-.05-.17-.07-.17-.14a.33.33,0,0,1,.35-.3c.59,0,1.9.31,1.9.55a3.84,3.84,0,0,0-.08.67c0,.32,0,3.38,0,4.08v0h1.87a3.45,3.45,0,0,0,.88-.28C88.49,295.68,88.83,296.23,88.83,296.52Z"/><path class="cls-2" d="M102.52,302c0,.12-.07.18-.24.17s-1.46,0-2.17,0c-.94,0-7.13,0-7.8.08-.45,0-1.45.09-1.84.14a2.25,2.25,0,0,1-.9-.64.3.3,0,0,1-.08-.2c0-.08,0-.17.06-.17l.14,0c.43.05,2.06.07,3.92.07,0-.9-.06-3.5-.07-3.62a.68.68,0,0,0-.34-.39s-.07,0-.07-.07a.27.27,0,0,1,.24-.27c.42,0,1.14.23,1.12.34l0,.41v3.58h1.87c0-.84.07-3.66,0-3.78a.68.68,0,0,0-.33-.38c-.06,0-.07,0-.07-.07s.09-.27.23-.27c.44,0,1.25.32,1.22.51l-.05.39-.34,3.6c1.84,0,3.32,0,3.45-.06s1.29-.25,1.45-.29S102.52,301.61,102.52,302ZM92,293.33a.32.32,0,0,1,0-.16c0-.11,0-.15.07-.15,1,.11,5.74,0,6.6,0a.81.81,0,0,0,.37-.11c.48,0,1.14.35,1.14.54a1.05,1.05,0,0,0-.06.33,16.4,16.4,0,0,1-1,5.63.45.45,0,0,1-.39.28c-.1,0-.18,0-.18-.13a.37.37,0,0,1,0-.08,36.1,36.1,0,0,0,.49-5.8c-1.3,0-5.35.17-6.25.35A1.68,1.68,0,0,1,92,293.33Z"/><path class="cls-2" d="M110.52,294.48a2,2,0,0,0-.15.35,14.55,14.55,0,0,1-6.36,6.26.82.82,0,0,1-.32.08.4.4,0,0,1-.34-.32c0-.06,0-.08.15-.14,1.55-.7,5.16-4.31,5.82-6a41.33,41.33,0,0,0-4.43.34,1.86,1.86,0,0,1-.7-.69.32.32,0,0,1,0-.16c0-.11,0-.15.07-.15,1,.11,3.87,0,4.72,0a.86.86,0,0,0,.38-.11C109.78,293.89,110.52,294.31,110.52,294.48Zm6.31,3.74c0,.12-.06.15-.17.15H113.6v2c0,1,.05,3.22.09,3.61,0,.13-.31.34-.77.34-.17,0-.24-.08-.24-.24V292.28a2.49,2.49,0,0,0-.07-.58,2.08,2.08,0,0,0-1-.65c-.13-.05-.17-.06-.17-.14a.33.33,0,0,1,.35-.3c.6,0,1.9.38,1.9.62a4.94,4.94,0,0,0-.08.77c0,.21,0,3.29,0,5.66h1.87a3.89,3.89,0,0,0,.88-.28C116.49,297.38,116.83,297.92,116.83,298.22Z"/><path class="cls-2" d="M134.44,296.75c0,.12-.07.18-.24.16l-2.17,0c-.94,0-7.13.05-7.8.08-.45,0-1.45.08-1.84.14a2.35,2.35,0,0,1-.9-.64.3.3,0,0,1-.08-.2c0-.08,0-.17.06-.17l.14,0c1.15.14,10.46,0,10.8,0,.15,0,1.29-.25,1.45-.29S134.44,296.4,134.44,296.75Zm-10.8-4.82a.32.32,0,0,1,0-.16c0-.09,0-.14.07-.14a19.87,19.87,0,0,0,2.34.05.8.8,0,0,0,.37-.12c.47,0,1.1.33,1.1.54a1.32,1.32,0,0,0-.07.3,6,6,0,0,1-.91,2.72.58.58,0,0,1-.44.24c-.1,0-.17-.06-.17-.13s0,0,0-.14a13.33,13.33,0,0,0,.47-2.77,20.77,20.77,0,0,0-2.21.24A1.77,1.77,0,0,1,123.64,291.93Zm8.44,11.93a.14.14,0,0,1-.16.16l-5.49.09c-1,0-1.29-.32-1.29-.93v-3.83a5.33,5.33,0,0,1-.56-.26c-.07,0-.09-.06-.1-.12s0-.32,0-.32c.56.07,5.65,0,5.86,0a7.43,7.43,0,0,0,.9-.23c.14,0,.46.55.46.8s0,.14-.16.14l-5.53,0V301l3.7-.05a7.38,7.38,0,0,0,.88-.2c.13,0,.39.51.39.73s0,.14-.15.14l-4.82.06v1.41c0,.2.09.28.42.3s4-.09,4.18-.1.86-.17,1-.23S132.08,303.62,132.08,303.86Zm-4.07-12a.32.32,0,0,1,0-.16c0-.1,0-.14.07-.14a19.09,19.09,0,0,0,2.41,0,.71.71,0,0,0,.37-.11c.47,0,1.1.32,1.1.53a1.73,1.73,0,0,0-.07.31,6.29,6.29,0,0,1-1,2.78.53.53,0,0,1-.43.23c-.1,0-.17-.05-.17-.12s0,0,0-.14a13,13,0,0,0,.52-2.83,22.33,22.33,0,0,0-2.28.22A1.64,1.64,0,0,1,128,291.89Z"/><path class="cls-2" d="M143.33,296.86a26.91,26.91,0,0,1-5.5,1.27.62.62,0,0,1-.23,0,2.47,2.47,0,0,1-.76-.48.28.28,0,0,1-.07-.22v-3.67c0-.24-.65-.52-.92-.6,0,0-.05,0-.05-.07a.3.3,0,0,1,.29-.32c.48,0,1.7.23,1.7.39a2.48,2.48,0,0,0-.06.54v3.39c0,.13,0,.19.22.19a49.77,49.77,0,0,0,5.4-.94l.12,0c.06,0,.11.09.11.22A.38.38,0,0,1,143.33,296.86Zm3.71,6.85c0,.11-.06.15-.17.15l-5.41.1c-1.08,0-1.57-.43-1.57-1v-2.5c0-.2-.5-.44-.77-.52,0,0-.05,0-.05-.07a.28.28,0,0,1,.29-.3c.6,0,1.5.24,1.5.37s0,.38,0,.52v2.36c0,.24.14.4.58.41s3.89-.07,4.14-.1a8.39,8.39,0,0,0,1-.25C146.74,302.84,147,303.41,147,303.71Zm1.71-7c0,.13-.06.15-.17.15h-3.06v.4c0,1,0,3,.09,3.39,0,.12-.35.32-.77.32-.16,0-.24-.07-.24-.23v-8.57a2,2,0,0,0-.07-.52c-.06-.18-.63-.47-1-.58-.13-.05-.17-.07-.17-.14a.33.33,0,0,1,.35-.3c.59,0,1.9.31,1.9.55a3.84,3.84,0,0,0-.08.67c0,.24,0,2.76,0,4.3h1.87a3.89,3.89,0,0,0,.88-.28C148.41,295.85,148.75,296.4,148.75,296.69Z"/><path class="cls-2" d="M160.78,299.28a.78.78,0,0,1,.14.46c0,.42-.21.73-.43.73s-.1,0-.17-.14a33.73,33.73,0,0,0-2.94-3.4,12.15,12.15,0,0,1-3.59,3.68.47.47,0,0,1-.25.09.4.4,0,0,1-.35-.31c0-.06,0-.09.14-.16a15,15,0,0,0,4.3-6.09c0-.17-.42-.48-.6-.56s-.1-.06-.1-.1a.23.23,0,0,1,.25-.24,3.33,3.33,0,0,1,1.66.66,9.18,9.18,0,0,1-1.13,2.5A20.41,20.41,0,0,1,160.78,299.28Zm3.45,4.69c0,.13-.31.34-.77.34-.17,0-.24-.08-.24-.24V292.28a2.49,2.49,0,0,0-.07-.58,2.08,2.08,0,0,0-1-.65c-.13-.05-.17-.06-.17-.14a.33.33,0,0,1,.35-.3c.6,0,1.9.38,1.9.62a4.94,4.94,0,0,0-.08.77c0,.33,0,7.62,0,8.36C164.14,301.4,164.19,303.58,164.23,304Z"/><path class="cls-2" d="M167.82,299.79a1,1,0,0,1-.29.07.4.4,0,0,1-.34-.33s0-.08.15-.14c1.53-.61,5.15-3.95,5.82-5.56a38.55,38.55,0,0,0-4.29.34,1.86,1.86,0,0,1-.7-.69.28.28,0,0,1,0-.15c0-.11,0-.16.07-.16a41.14,41.14,0,0,0,4.58,0,.75.75,0,0,0,.38-.11c.46,0,1.22.42,1.22.59a2.28,2.28,0,0,0-.17.35A14,14,0,0,1,167.82,299.79ZM179,303.71c0,.11-.06.15-.17.15l-5.41.1c-1.08,0-1.57-.43-1.57-1v-2.5c0-.2-.5-.44-.77-.52,0,0,0,0,0-.07a.28.28,0,0,1,.29-.3c.6,0,1.5.24,1.5.37s0,.38,0,.52v2.36c0,.24.14.4.58.41s3.89-.07,4.14-.1a8.39,8.39,0,0,0,1.05-.25C178.66,302.84,179,303.41,179,303.71Zm1.71-6.94c0,.13-.06.16-.17.16h-3.06v.31c0,1,.05,3,.09,3.39,0,.12-.35.32-.77.32-.16,0-.24-.07-.24-.23v-8.57a2,2,0,0,0-.07-.52c-.06-.18-.63-.47-1-.58-.13-.05-.17-.07-.17-.14a.33.33,0,0,1,.35-.3c.59,0,1.9.31,1.9.55a3.84,3.84,0,0,0-.08.67c0,.25,0,2.84,0,4.38h1.87a3.45,3.45,0,0,0,.88-.28C180.33,295.93,180.67,296.48,180.67,296.77Z"/><path class="cls-2" d="M181.48,304.25c0-.09.16-.11.23-.14a1.8,1.8,0,0,0,1.16-1.62,2.3,2.3,0,0,0-.88-.56c0-.51.57-1.29.91-1.29s.91.63.91,1.36a2.86,2.86,0,0,1-1.81,2.72A.62.62,0,0,1,181.48,304.25Z"/><path class="cls-2" d="M193.44,297.31a10.11,10.11,0,0,1-3.54,2.56,1,1,0,0,1-.27.06.37.37,0,0,1-.32-.31c0-.06,0-.09.15-.16a10.67,10.67,0,0,0,4-3.92.52.52,0,0,0-.17-.43c-1.3,0-2.48.05-2.77.11a2.29,2.29,0,0,1-.69-.57.21.21,0,0,1,0-.13c0-.08,0-.16.05-.16.7.09,5.91.05,6.12,0s.73-.13.93-.18.48.45.48.71c0,.1-.05.14-.16.14l-3.12,0a1.76,1.76,0,0,1,.53.55,5.13,5.13,0,0,1-.77,1.21,19.14,19.14,0,0,1,3.11,1.49.51.51,0,0,1,.22.43c0,.37-.18.61-.39.61s-.1,0-.21-.12A22.79,22.79,0,0,0,193.44,297.31Zm-2.07-4.71c0-.15.06-.38.1-.38a13.65,13.65,0,0,0,3.32,0,3.08,3.08,0,0,0,.53-.21c.17,0,.52.45.52.73a.19.19,0,0,1-.17.21,11,11,0,0,1-2,.11,7.39,7.39,0,0,1-2.13-.24A.2.2,0,0,1,191.37,292.6Zm10.2,11.11c0,.11-.06.15-.17.15l-5.55.1c-1.08,0-1.57-.43-1.57-1v-2.24c0-.19-.46-.42-.71-.5,0,0-.06,0-.06-.07a.29.29,0,0,1,.3-.3,2.79,2.79,0,0,1,1.44.35c0,.13,0,.38,0,.52v2.1c0,.24.14.4.58.41s4-.07,4.28-.1a8.39,8.39,0,0,0,1-.25C201.27,302.84,201.57,303.41,201.57,303.71Zm-3.46-12.8a.33.33,0,0,1,.35-.3c.59,0,1.9.31,1.9.55a3.84,3.84,0,0,0-.08.67c0,.32,0,4.86,0,5.59,0,1,.05,3,.09,3.42,0,.12-.35.32-.77.32-.16,0-.24-.07-.24-.23v-8.78a2,2,0,0,0-.07-.52c-.06-.18-.63-.47-1-.58C198.15,291,198.11,291,198.11,290.91Z"/><path class="cls-2" d="M216.48,297.77c0,.13-.07.18-.24.17s-1.46,0-2.17,0l-3.63,0v2.42c0,1,0,3.22.08,3.61,0,.13-.33.34-.78.34-.17,0-.24-.08-.24-.24V298l-3.23,0c-.45,0-1.45.09-1.84.14a2.16,2.16,0,0,1-.9-.64.3.3,0,0,1-.08-.2c0-.08,0-.17.06-.17l.14,0c1.15.14,10.46,0,10.8,0,.15,0,1.29-.25,1.45-.29S216.48,297.42,216.48,297.77Zm-10.27-5.66a.23.23,0,0,1,0-.15c0-.12,0-.16.07-.16,1,.11,4.9,0,5.76,0a.71.71,0,0,0,.37-.11c.48,0,1.15.35,1.15.55a1.63,1.63,0,0,0-.07.3,9,9,0,0,1-.88,3.79.53.53,0,0,1-.41.23c-.09,0-.15-.05-.15-.12v-.13a24.91,24.91,0,0,0,.38-3.85c-1,0-4.58.18-5.41.35A1.63,1.63,0,0,1,206.21,292.11Z"/><path class="cls-2" d="M225.74,300c0,.21-.09.3-.29.37a44.66,44.66,0,0,1-5.62.83,9.76,9.76,0,0,0-1.52.29,2.43,2.43,0,0,1-.87-.7.25.25,0,0,1-.06-.16c0-.1,0-.17.07-.17a35,35,0,0,0,3.66-.17v-2.41a2.4,2.4,0,0,1-2.41-2.39c0-1.46,1.12-2.44,2.85-2.44s2.86,1,2.86,2.44a2.41,2.41,0,0,1-2.38,2.39v2.33a32.5,32.5,0,0,0,3.45-.42l.14-.05S225.74,299.88,225.74,300Zm-4.19-2.83a1.7,1.7,0,1,0-1.9-1.68A1.68,1.68,0,0,0,221.55,297.17Zm9.24,1.15c0,.12-.06.15-.17.15h-3.06v1.89c0,1,.05,3.22.09,3.61,0,.13-.31.34-.77.34-.17,0-.24-.08-.24-.24V292.28a2.49,2.49,0,0,0-.07-.58,2.08,2.08,0,0,0-1-.65c-.13-.05-.17-.06-.17-.14a.33.33,0,0,1,.35-.3c.6,0,1.9.38,1.9.62a4.94,4.94,0,0,0-.08.77c0,.22,0,3.37,0,5.76h1.87a3.49,3.49,0,0,0,.88-.29C230.45,297.47,230.79,298,230.79,298.32Z"/><path class="cls-2" d="M243.21,294.65c-1.35,0-6.24.05-7.05.18a2.07,2.07,0,0,1-.75-.58.23.23,0,0,1,0-.14c0-.1,0-.15.06-.15.8.1,6.38,0,6.57,0a5.55,5.55,0,0,0,.91-.2c.12,0,.46.49.46.75C243.37,294.6,243.33,294.65,243.21,294.65ZM239.54,299c-1.54,0-2.56-.7-2.56-1.81s1-1.79,2.56-1.79,2.55.7,2.55,1.79S241.07,299,239.54,299Zm-2.38-6.49c0-.18.06-.39.1-.39a13.76,13.76,0,0,0,3.21,0,2.3,2.3,0,0,0,.53-.23c.17,0,.52.45.52.73a.19.19,0,0,1-.17.21,10.61,10.61,0,0,1-1.95.11,7.18,7.18,0,0,1-2.08-.24C237.19,292.7,237.16,292.64,237.16,292.54Zm2.38,5.8c1,0,1.6-.43,1.6-1.12s-.61-1.1-1.6-1.1-1.61.42-1.61,1.1S238.56,298.34,239.54,298.34Zm6,4.84c.12,0,.33.35.33.56s-.05.14-.15.14l-4.29.07a4.18,4.18,0,0,1-.91-.12c-.09.38-.43.7-.67.7s-.15,0-.17-.25l-.17-3.51c0-.16-.43-.38-.58-.45s-.07,0-.07-.09.07-.29.22-.29a9.79,9.79,0,0,1,1.33.15c.25,0,3.52-.08,3.7-.09a1.74,1.74,0,0,0,.38-.14c.47,0,1.06.26,1.06.4a2,2,0,0,0-.05.34l-.06,1.18a6.53,6.53,0,0,1-.28,1.4Zm-5,.08,4-.07v-2.48l-4.05.1Zm8.14-6.74c0,.13-.06.16-.17.16h-3.06c0,.93.05,2.08.07,2.38,0,.12-.33.32-.75.32-.16,0-.24-.07-.24-.22v-7a2,2,0,0,0-.07-.52c-.06-.18-.63-.47-1-.58-.13-.05-.17-.07-.17-.14a.33.33,0,0,1,.35-.3c.59,0,1.9.31,1.9.55a3.84,3.84,0,0,0-.08.67c0,.32,0,3.36,0,4.06V296h1.87a3.45,3.45,0,0,0,.88-.28C248.37,295.68,248.71,296.23,248.71,296.52Z"/><path class="cls-2" d="M252.61,295a9.45,9.45,0,0,1-2.79,5.28.52.52,0,0,1-.27.1.33.33,0,0,1-.32-.28c0-.06,0-.09.17-.21a12.28,12.28,0,0,0,2.24-5,9,9,0,0,0-1.3.19,1.64,1.64,0,0,1-.51-.61.36.36,0,0,1,0-.16c0-.09,0-.14.08-.14a11.25,11.25,0,0,0,1.38.06,1,1,0,0,0,.38-.11c.48,0,1,.33,1,.53A1.29,1.29,0,0,0,252.61,295Zm5.47-2.34c0,.29,0,6.75,0,7.51,0,1,0,2.81.08,3.2,0,.13-.29.34-.74.34-.18,0-.24-.07-.24-.22v-5.21a13.66,13.66,0,0,0-1.89.15,1.81,1.81,0,0,1-.47-.53,9.61,9.61,0,0,1-2.36,3.29.58.58,0,0,1-.32.15.32.32,0,0,1-.31-.28s0-.1.16-.21a16.82,16.82,0,0,0,2.84-5.92,8.9,8.9,0,0,0-1.29.19,1.75,1.75,0,0,1-.5-.61.32.32,0,0,1,0-.16c0-.09,0-.14.07-.14a7,7,0,0,0,1.37.06.82.82,0,0,0,.38-.11c.48,0,1,.32,1,.52a1.2,1.2,0,0,0-.07.3,9.6,9.6,0,0,1-.84,2.64c.5,0,1.68,0,2.21,0v-4.8a.84.84,0,0,0-.06-.34,1.19,1.19,0,0,0-.68-.55c-.13,0-.16-.07-.16-.14a.32.32,0,0,1,.34-.28c.55,0,1.57.31,1.57.52A4,4,0,0,0,258.08,292.63ZM260.79,304c0,.13-.31.34-.76.34-.17,0-.24-.07-.24-.22V292a1.19,1.19,0,0,0-.07-.4,1.66,1.66,0,0,0-.86-.56c-.12-.05-.15-.07-.15-.14a.32.32,0,0,1,.35-.3c.59,0,1.75.31,1.75.55a3.84,3.84,0,0,0-.08.67c0,.39,0,7.8,0,8.54C260.7,301.41,260.74,303.58,260.79,304Z"/><path class="cls-2" d="M280.32,302c0,.12-.07.18-.24.17s-1.46,0-2.17,0c-.94,0-7.13,0-7.8.08-.45,0-1.45.09-1.84.14a2.25,2.25,0,0,1-.9-.64.3.3,0,0,1-.08-.2c0-.08,0-.17.06-.17l.14,0c.59.07,3.3.07,5.87.05l0-2.08a.5.5,0,0,0-.27-.35c-.05,0-.07-.05-.07-.07a.25.25,0,0,1,.24-.26c.41,0,1.08.2,1.06.31l0,.37,0,2.07c2.1,0,3.9,0,4-.06s1.29-.25,1.45-.29S280.32,301.61,280.32,302Zm-11-8.65c0-.08,0-.32.06-.32.46.06,6.12,0,6.35,0s.78-.23.91-.28.47.59.47.87c0,.09,0,.14-.15.14-.72,0-4.12,0-5.72,0v3c0,.28.11.39.56.4.62,0,3.83,0,4.14,0a6.7,6.7,0,0,0,1-.25c.13,0,.44.56.44.84,0,.1-.05.14-.16.14l-5.5,0c-1.07,0-1.45-.35-1.45-1v-3.14a4.88,4.88,0,0,1-.88-.3C269.32,293.38,269.31,293.37,269.29,293.31Z"/><path class="cls-2" d="M289.16,298.23a41.48,41.48,0,0,1-5.59.93.64.64,0,0,1-.23-.05,2.28,2.28,0,0,1-.73-.46.28.28,0,0,1-.07-.22V296a1.36,1.36,0,0,1-.3-.35.18.18,0,0,1,0-.11c0-.06,0-.1.05-.1.87,0,4.2,0,4.79,0v-1.89c-.91,0-3.32.14-4.06.29a2,2,0,0,1-.72-.66.26.26,0,0,1,0-.15c0-.11,0-.15.07-.15.7.09,3.94,0,4.37,0a.73.73,0,0,0,.36-.11c.45,0,1.07.33,1.07.47a1.18,1.18,0,0,0,0,.26l-.16,2a1.53,1.53,0,0,1,.13.52c0,.08,0,.12-.13.12-.42,0-3.07,0-4.42.11v2c0,.07,0,.11.15.11.6,0,5.2-.49,5.58-.61l.11,0s.11.11.11.22A.37.37,0,0,1,289.16,298.23Zm3.76,5.48c0,.11-.06.15-.17.15l-5.41.1c-1.08,0-1.57-.43-1.57-1v-2.1c0-.19-.45-.43-.68-.5,0,0-.06,0-.06-.07a.28.28,0,0,1,.29-.3,2.73,2.73,0,0,1,1.42.35c0,.13,0,.37,0,.51v2c0,.24.14.4.58.41s3.89-.07,4.14-.1a8.39,8.39,0,0,0,1.05-.25C292.62,302.84,292.92,303.41,292.92,303.71Zm1.71-6.87c0,.13-.06.16-.17.16H291.4v.36c0,1,.05,3,.09,3.41,0,.12-.35.32-.77.32-.16,0-.24-.07-.24-.23v-8.71a2,2,0,0,0-.07-.52c-.06-.18-.63-.47-1-.58-.13-.05-.17-.07-.17-.14a.33.33,0,0,1,.35-.3c.59,0,1.9.31,1.9.55a3.84,3.84,0,0,0-.08.67c0,.24,0,2.87,0,4.45h1.87a3.45,3.45,0,0,0,.88-.28C294.29,296,294.63,296.55,294.63,296.84Z"/><path class="cls-2" d="M308.32,302c0,.12-.07.18-.24.17s-1.46,0-2.17,0c-.94,0-7.13,0-7.8.08-.45,0-1.45.09-1.84.14a2.25,2.25,0,0,1-.9-.64.3.3,0,0,1-.08-.2c0-.08,0-.17.06-.17l.14,0c.59.07,3.3.07,5.87.05l0-2.08a.5.5,0,0,0-.27-.35c-.05,0-.07-.05-.07-.07a.25.25,0,0,1,.24-.26c.41,0,1.08.2,1.06.31l0,.37,0,2.07c2.1,0,3.9,0,4-.06s1.29-.25,1.45-.29S308.32,301.61,308.32,302Zm-11-8.65c0-.08,0-.32.06-.32.46.06,6.12,0,6.35,0s.78-.23.91-.28.47.59.47.87c0,.09,0,.14-.15.14-.72,0-4.12,0-5.72,0v3c0,.28.11.39.56.4.62,0,3.83,0,4.14,0a6.7,6.7,0,0,0,1-.25c.13,0,.44.56.44.84,0,.1-.05.14-.16.14l-5.5,0c-1.07,0-1.45-.35-1.45-1v-3.14a4.88,4.88,0,0,1-.88-.3C297.32,293.38,297.31,293.37,297.29,293.31Z"/><path class="cls-2" d="M317.16,298.23a41.48,41.48,0,0,1-5.59.93.64.64,0,0,1-.23-.05,2.28,2.28,0,0,1-.73-.46.28.28,0,0,1-.07-.22V296a1.36,1.36,0,0,1-.3-.35.18.18,0,0,1,0-.11c0-.06,0-.1.05-.1.87,0,4.2,0,4.79,0v-1.89c-.91,0-3.32.14-4.06.29a2,2,0,0,1-.72-.66.26.26,0,0,1,0-.15c0-.11,0-.15.07-.15.7.09,3.94,0,4.37,0a.73.73,0,0,0,.36-.11c.45,0,1.07.33,1.07.47a1.18,1.18,0,0,0,0,.26l-.16,2a1.53,1.53,0,0,1,.13.52c0,.08,0,.12-.13.12-.42,0-3.07,0-4.42.11v2c0,.07,0,.11.15.11.6,0,5.2-.49,5.58-.61l.11,0s.11.11.11.22A.37.37,0,0,1,317.16,298.23Zm3.76,5.48c0,.11-.06.15-.17.15l-5.41.1c-1.08,0-1.57-.43-1.57-1v-2.1c0-.19-.45-.43-.68-.5,0,0-.06,0-.06-.07a.28.28,0,0,1,.29-.3,2.73,2.73,0,0,1,1.42.35c0,.13,0,.37,0,.51v2c0,.24.14.4.58.41s3.89-.07,4.14-.1a8.39,8.39,0,0,0,1.05-.25C320.62,302.84,320.92,303.41,320.92,303.71Zm1.71-6.87c0,.13-.06.16-.17.16H319.4v.36c0,1,.05,3,.09,3.41,0,.12-.35.32-.77.32-.16,0-.24-.07-.24-.23v-8.71a2,2,0,0,0-.07-.52c-.06-.18-.63-.47-1-.58-.13-.05-.17-.07-.17-.14a.33.33,0,0,1,.35-.3c.59,0,1.9.31,1.9.55a3.84,3.84,0,0,0-.08.67c0,.24,0,2.87,0,4.45h1.87a3.45,3.45,0,0,0,.88-.28C322.29,296,322.63,296.55,322.63,296.84Z"/><path class="cls-2" d="M328.22,297a3.07,3.07,0,1,1,3.07,2.9A2.82,2.82,0,0,1,328.22,297Zm5.14,0a2.08,2.08,0,1,0-2.07,2.12A2,2,0,0,0,333.36,297Zm3.74,7.09V292.28a2.49,2.49,0,0,0-.07-.58,2.08,2.08,0,0,0-1-.65c-.13-.05-.17-.06-.17-.14a.33.33,0,0,1,.35-.3c.6,0,1.9.38,1.9.62a4.94,4.94,0,0,0-.08.77c0,.33,0,7.62,0,8.36,0,1,.05,3.22.09,3.61,0,.13-.31.34-.77.34C337.17,304.31,337.1,304.23,337.1,304.07Z"/><path class="cls-2" d="M348.1,297a3,3,0,1,1-3-2.89A2.79,2.79,0,0,1,348.1,297Zm-1,0a2,2,0,1,0-2,2.12A1.94,1.94,0,0,0,347.12,297Zm7.43,2.61c0,.13-.06.15-.17.15h-3.06v.62c0,1,.05,3.22.09,3.61,0,.13-.31.34-.77.34-.17,0-.24-.08-.24-.24V292.28a2.49,2.49,0,0,0-.07-.58,2.07,2.07,0,0,0-1-.65c-.12-.05-.16-.06-.16-.14a.33.33,0,0,1,.35-.3c.6,0,1.9.38,1.9.62a4.94,4.94,0,0,0-.08.77c0,.15,0,1.71,0,3.44h1.87a3.45,3.45,0,0,0,.88-.28c.14,0,.48.55.48.84,0,.13-.06.16-.17.16h-3.06V299h1.87a3.89,3.89,0,0,0,.88-.28C354.21,298.75,354.55,299.3,354.55,299.59Z"/><path class="cls-2" d="M355.07,300.85c0-.06,0-.08.15-.14,1.56-.69,5.27-4.31,6-6a44.22,44.22,0,0,0-4.57.34,1.86,1.86,0,0,1-.7-.69.32.32,0,0,1,0-.16c0-.11,0-.15.07-.15,1,.11,4,0,4.86,0a.86.86,0,0,0,.38-.11c.46,0,1.2.42,1.2.59a2,2,0,0,0-.15.35c-.9,2.24-4.46,5.53-6.49,6.26a.89.89,0,0,1-.33.08A.4.4,0,0,1,355.07,300.85Zm10,3.22V292.28a2.49,2.49,0,0,0-.07-.58,2.08,2.08,0,0,0-1-.65c-.13-.05-.17-.06-.17-.14a.33.33,0,0,1,.35-.3c.6,0,1.9.38,1.9.62a4.94,4.94,0,0,0-.08.77c0,.33,0,7.62,0,8.36,0,1,.05,3.22.09,3.61,0,.13-.31.34-.77.34C365.17,304.31,365.1,304.23,365.1,304.07Z"/><path class="cls-2" d="M382.24,297.77c0,.13-.07.18-.24.17s-1.46,0-2.17,0c-.94,0-7.13,0-7.8.08-.45,0-1.45.09-1.84.14a2.16,2.16,0,0,1-.9-.64.3.3,0,0,1-.08-.2c0-.08,0-.17.06-.17l.14,0c1.15.14,10.46,0,10.8,0,.15,0,1.29-.25,1.45-.29S382.24,297.42,382.24,297.77Zm-10.13-6.08a.31.31,0,0,1,0-.15c0-.12,0-.16.07-.16.71.1,4.7.06,5.14,0a1,1,0,0,0,.36-.11c.44,0,1.08.31,1.08.46s0,.14,0,.25l-.15,1.32a2.19,2.19,0,0,1,.12.49.11.11,0,0,1-.12.12c-.68,0-3.58,0-5,0v.93c0,.21.09.28.42.29.51,0,3.55,0,3.83,0s.76-.11,1-.16.4.49.4.72,0,.14-.15.14l-5.11,0c-1,0-1.29-.31-1.29-.89v-1.2a1.18,1.18,0,0,1-.3-.32.18.18,0,0,1,0-.11c0-.06,0-.1.05-.1.7,0,4.56,0,5.36,0v-1.22c-.91,0-4.08.14-4.85.28A2.05,2.05,0,0,1,372.11,291.69Zm8,12.2c0,.11-.06.15-.17.15l-5.77.1c-1,0-1.29-.33-1.29-1v-1.36a1.2,1.2,0,0,1-.3-.34.28.28,0,0,1,0-.11c0-.06,0-.1,0-.1.75,0,4.87,0,5.39,0v-1.31c-.95,0-4.17.12-4.93.26a2,2,0,0,1-.71-.64.33.33,0,0,1-.05-.16c0-.11,0-.15.07-.15a44.74,44.74,0,0,0,5.59-.07c.45,0,1.08.28,1.08.41a2.19,2.19,0,0,0,0,.25l-.15,1.44a2,2,0,0,1,.12.52c0,.08,0,.13-.12.13-.42,0-3.58,0-5,.06v1.13c0,.19.07.26.4.28s4.23-.09,4.46-.1a10.08,10.08,0,0,0,1-.23C379.8,303.06,380.07,303.62,380.07,303.89Z"/><path class="cls-2" d="M395.28,298.58a.36.36,0,0,1-.24.38,26.67,26.67,0,0,1-5.49,1.27.62.62,0,0,1-.23,0,2.66,2.66,0,0,1-.76-.47.3.3,0,0,1-.07-.23V294.7c0-.24-.65-.52-.92-.6,0,0-.05,0-.05-.07a.3.3,0,0,1,.29-.32c.48,0,1.7.23,1.7.39a2.51,2.51,0,0,0-.06.55v4.51c0,.12.05.18.22.18a49.18,49.18,0,0,0,5.39-.94l.13,0C395.23,298.36,395.28,298.46,395.28,298.58Zm5.19-.57c0,.12-.06.15-.17.15h-3.06v2.2c0,1,.05,3.22.09,3.61,0,.13-.31.34-.77.34-.17,0-.24-.08-.24-.24V292.28a2.49,2.49,0,0,0-.07-.58,2.07,2.07,0,0,0-1-.65c-.12-.05-.16-.06-.16-.14a.33.33,0,0,1,.35-.3c.6,0,1.9.38,1.9.62a4.94,4.94,0,0,0-.08.77c0,.21,0,3.11,0,5.45h1.87a4.06,4.06,0,0,0,.88-.28C400.13,297.17,400.47,297.71,400.47,298Z"/><path class="cls-2" d="M414.16,298.48c0,.13-.07.19-.24.17l-2.17,0-3.63,0v1.71c0,1,0,3.22.08,3.61,0,.13-.33.34-.78.34-.17,0-.24-.08-.24-.24v-5.4c-1.54,0-2.94,0-3.23,0-.45,0-1.45.08-1.84.14a2.27,2.27,0,0,1-.9-.65.28.28,0,0,1-.08-.19c0-.09,0-.17.06-.17h.14c1.15.14,10.46,0,10.8,0,.15,0,1.29-.25,1.45-.3S414.16,298.13,414.16,298.48Zm-10.79-6.69a.3.3,0,0,1,.3-.32,4,4,0,0,1,1.59.36c0,.13,0,.36,0,.52v2.13c0,.28.11.39.56.4.65,0,3.87,0,4.18-.07a8.47,8.47,0,0,0,1-.25c.13,0,.44.58.44.83s-.06.15-.17.15l-5.53.07c-1,0-1.45-.35-1.45-1v-2.2c0-.16-.61-.47-.85-.54C403.39,291.84,403.37,291.83,403.37,291.79Z"/><path class="cls-2" d="M417.48,298.15c-.08.52-.43,1-.68,1s-.17-.06-.17-.27l-.11-4.92c0-.17-.58-.46-.77-.52s-.1,0-.1-.08.07-.34.22-.34a9.39,9.39,0,0,1,1.53.19c.32,0,3,0,3.18-.05A1.12,1.12,0,0,0,421,293c.49,0,1.06.24,1.06.39a2.33,2.33,0,0,0,0,.34l0,.32H425v-1.92a2,2,0,0,0-.07-.52c-.06-.18-.63-.47-1-.58-.13-.05-.17-.07-.17-.14a.33.33,0,0,1,.35-.3c.59,0,1.9.31,1.9.55a3.84,3.84,0,0,0-.08.67c0,.32,0,4.68,0,5.41,0,1,.05,3,.09,3.39,0,.12-.35.32-.77.32-.16,0-.24-.07-.24-.23v-3.47h-3.28l0,.18a1,1,0,0,1,.25.56c0,.1-.05.14-.15.14Zm3.52-4.26-3.52,0,0,3.5h3.43Zm6.25,9.82c0,.11-.06.15-.17.15l-5.55.1c-1.08,0-1.57-.43-1.57-1v-2.36c0-.2-.49-.44-.74-.52,0,0-.06,0-.06-.07a.29.29,0,0,1,.3-.3c.59,0,1.47.24,1.47.37s0,.36,0,.5v2.24c0,.24.14.4.58.41s4-.07,4.28-.1a8.39,8.39,0,0,0,1.05-.25C427,302.84,427.25,303.41,427.25,303.71Zm-5.33-9-.08,1.86H425c0-.63,0-1.27,0-1.86Z"/><path class="cls-2" d="M436.29,299.58a.74.74,0,0,1,.12.46c0,.42-.21.73-.43.73s-.1,0-.15-.14a37.57,37.57,0,0,0-2.88-3.38,11.84,11.84,0,0,1-3.36,3.36.47.47,0,0,1-.25.09.4.4,0,0,1-.35-.31c0-.06,0-.09.14-.16a15,15,0,0,0,4.3-6.09c0-.17-.42-.48-.6-.56s-.1-.06-.1-.1a.23.23,0,0,1,.25-.24,3.33,3.33,0,0,1,1.66.66,9.61,9.61,0,0,1-1.32,2.83A20.94,20.94,0,0,1,436.29,299.58ZM440,304c0,.13-.31.34-.77.34-.17,0-.24-.08-.24-.24,0-.52,0-4.33,0-7.49a20.66,20.66,0,0,0-2.68.22,2.24,2.24,0,0,1-.59-.6.26.26,0,0,1,0-.14c0-.08,0-.15.06-.15.44,0,2.5,0,3.25,0v-3.64a2.49,2.49,0,0,0-.07-.58,2.08,2.08,0,0,0-1-.65c-.13-.05-.17-.06-.17-.14a.33.33,0,0,1,.35-.3c.6,0,1.9.38,1.9.62a4.94,4.94,0,0,0-.08.77c0,.33,0,7.62,0,8.36C439.94,301.4,440,303.58,440,304Z"/><path class="cls-2" d="M79.58,318.86A11.31,11.31,0,0,1,76,322a.85.85,0,0,1-.34.09.33.33,0,0,1-.32-.28c0-.05,0-.08.17-.16a13.24,13.24,0,0,0,4-4.7.55.55,0,0,0-.14-.4,24.48,24.48,0,0,0-2.47.11,2.71,2.71,0,0,1-.7-.59.19.19,0,0,1,0-.13c0-.08,0-.15.06-.15.7.08,5.39,0,5.6,0a6.52,6.52,0,0,0,1-.22c.13,0,.46.5.46.77,0,.1,0,.14-.15.14l-2.93,0a1.79,1.79,0,0,1,.48.5,5.64,5.64,0,0,1-.7,1.35,19.17,19.17,0,0,1,3,2,.56.56,0,0,1,.19.44c0,.39-.19.64-.41.64-.07,0-.11,0-.21-.14A21.31,21.31,0,0,0,79.58,318.86ZM86.21,322l0,.32c0,.24,0,3.86,0,4.26s-.35,1-.61,1a.29.29,0,0,1-.28-.29v-.55a6.26,6.26,0,0,1-.91.12l-2.5.05a3.08,3.08,0,0,1-.88-.11c-.08.41-.39.78-.64.78s-.17-.05-.17-.23L80,322.52c0-.13-.38-.34-.56-.41s-.09,0-.09-.07a.24.24,0,0,1,.24-.25c.45,0,1.4.21,1.39.34l0,.35,0,1.27,4.27-.07v-1.29c0-.12-.39-.37-.56-.44s-.09-.05-.09-.07a.25.25,0,0,1,.24-.26C85.32,321.62,86.21,321.88,86.21,322ZM81,326.26l4.26-.07v-1.82l-4.27.07Zm5.36-5.39c0,.12-.33.32-.75.32-.16,0-.24-.07-.24-.23v-5.81a2,2,0,0,0-.07-.52c-.06-.18-.63-.47-1-.58-.13-.05-.17-.07-.17-.14a.33.33,0,0,1,.35-.3c.59,0,1.9.31,1.9.55a3.84,3.84,0,0,0-.08.67c0,.32,0,2.35,0,3C86.3,318.74,86.33,320.47,86.37,320.87Z"/><path class="cls-2" d="M89.57,324.68a.3.3,0,0,1-.08-.2c0-.08,0-.17.06-.17l.14,0c1.15.14,10.46,0,10.8,0,.15,0,1.29-.25,1.45-.29s.58.59.58.94c0,.12-.07.18-.24.17s-1.46,0-2.17,0c-.94,0-7.13,0-7.8.08-.45,0-1.45.09-1.84.14A2.25,2.25,0,0,1,89.57,324.68Zm3.11-6.15c0-1.74,1.34-2.93,3.32-2.93s3.32,1.19,3.32,2.93S98,321.44,96,321.44,92.68,320.25,92.68,318.53Zm5.65,0A2.33,2.33,0,1,0,96,320.66,2.07,2.07,0,0,0,98.33,318.53Z"/><path class="cls-2" d="M116.52,325c0,.12-.07.18-.24.17s-1.46,0-2.17,0c-.94,0-7.13,0-7.8.08-.45,0-1.45.09-1.84.14a2.25,2.25,0,0,1-.9-.64.3.3,0,0,1-.08-.2c0-.08,0-.17.06-.17l.14,0c.59.07,3.3.07,5.87.05l0-1.48a.5.5,0,0,0-.27-.35c-.05,0-.07,0-.07-.07a.25.25,0,0,1,.24-.25c.41,0,1.08.19,1.06.3l0,.37,0,1.47c2.1,0,3.9,0,4-.06s1.29-.25,1.45-.29S116.52,324.61,116.52,325ZM106.08,316a.31.31,0,0,1,0-.15c0-.12,0-.16.07-.16.71.1,5.27.06,5.7,0a1.16,1.16,0,0,0,.37-.11c.43,0,1.07.33,1.07.49s0,.14,0,.25l-.15,2a2.12,2.12,0,0,1,.12.5c0,.09,0,.13-.12.13-.67,0-4,0-5.56,0v1.65c0,.26.09.36.52.37s4.23,0,4.51-.06.81-.18,1-.23.43.56.43.81,0,.14-.15.14l-5.9.05c-1,0-1.34-.33-1.34-.95v-1.92a1.19,1.19,0,0,1-.34-.36.22.22,0,0,1,0-.11c0-.06,0-.1,0-.1.7,0,5.17,0,6,0V316.4c-1,0-4.7.15-5.4.29A2.2,2.2,0,0,1,106.08,316Z"/><path class="cls-2" d="M134.44,320.39c0,.13-.07.18-.24.17s-1.46,0-2.17,0c-.94,0-7.13.06-7.8.08-.45,0-1.45.09-1.84.15a2.27,2.27,0,0,1-.9-.65.3.3,0,0,1-.08-.2c0-.08,0-.16.06-.16h.14c.59.07,3.29.07,5.85.06v-1.75H126c-1,0-1.31-.34-1.31-1v-1.85a5.61,5.61,0,0,1-.78-.3c-.07,0-.09-.06-.1-.12s0-.32.06-.32c.42.06,5.67,0,5.89,0s.79-.23.91-.28.48.59.48.87c0,.09,0,.14-.15.14-.72,0-3.86,0-5.37,0V317c0,.21.09.3.42.31.49,0,3.62,0,3.92,0a6.82,6.82,0,0,0,1-.25c.13,0,.43.56.43.84,0,.1,0,.14-.15.14l-2.91,0v1.73c2.08,0,3.88,0,4-.05s1.29-.26,1.45-.3S134.44,320,134.44,320.39Zm-2.17,6.5c0,.11-.06.15-.17.15l-5.77.1c-1,0-1.29-.33-1.29-1v-1.55a1.19,1.19,0,0,1-.3-.33.31.31,0,0,1,0-.11c0-.06,0-.1,0-.1.75,0,4.87,0,5.39,0v-1.48c-1,0-4.17.12-4.93.26a2,2,0,0,1-.71-.64.33.33,0,0,1-.05-.16c0-.11,0-.15.07-.15a44.71,44.71,0,0,0,5.59-.07c.45,0,1.08.28,1.08.41a2.19,2.19,0,0,0,0,.25l-.15,1.61a2,2,0,0,1,.12.52.11.11,0,0,1-.12.12c-.42,0-3.58,0-5,.07v1.31c0,.19.07.26.4.28s4.23-.09,4.46-.1a10.08,10.08,0,0,0,1-.23C132,326.06,132.27,326.62,132.27,326.89Z"/><path class="cls-2" d="M142.3,320a3,3,0,1,1-3-2.89A2.79,2.79,0,0,1,142.3,320Zm-1,0a2,2,0,1,0-2,2.12A1.94,1.94,0,0,0,141.32,320Zm7.43.94c0,.13-.06.16-.17.16h-3.06v2.28c0,1,0,3.22.09,3.61,0,.13-.31.34-.77.34-.17,0-.24-.08-.24-.24V315.28a2.49,2.49,0,0,0-.07-.58,2.08,2.08,0,0,0-1-.65c-.13-.05-.17-.06-.17-.14a.33.33,0,0,1,.35-.3c.6,0,1.9.38,1.9.62a4.94,4.94,0,0,0-.08.77c0,.21,0,3,0,5.36h1.87a3.45,3.45,0,0,0,.88-.28C148.41,320.08,148.75,320.63,148.75,320.92Z"/><path class="cls-2" d="M156.44,317.48a2,2,0,0,0-.15.35,14.55,14.55,0,0,1-6.36,6.26.82.82,0,0,1-.32.08.4.4,0,0,1-.34-.32c0-.06,0-.08.15-.14,1.55-.7,5.16-4.31,5.82-6a41.33,41.33,0,0,0-4.43.34,1.86,1.86,0,0,1-.7-.69.32.32,0,0,1,0-.16c0-.11,0-.15.07-.15,1,.11,3.87,0,4.72,0a.86.86,0,0,0,.38-.11C155.7,316.89,156.44,317.31,156.44,317.48Zm6.31,3.74c0,.12-.06.15-.17.15h-3.06v2c0,1,0,3.22.09,3.61,0,.13-.31.34-.77.34-.17,0-.24-.08-.24-.24V315.28a2.49,2.49,0,0,0-.07-.58,2.08,2.08,0,0,0-1-.65c-.13-.05-.17-.06-.17-.14a.33.33,0,0,1,.35-.3c.6,0,1.9.38,1.9.62a4.94,4.94,0,0,0-.08.77c0,.21,0,3.29,0,5.66h1.87a3.89,3.89,0,0,0,.88-.28C162.41,320.38,162.75,320.92,162.75,321.22Z"/><path class="cls-2" d="M163.49,321a.3.3,0,0,1-.08-.2c0-.08,0-.17.06-.17l.14,0c1.15.14,10.46,0,10.8,0,.15,0,1.29-.25,1.45-.29s.58.59.58.94c0,.12-.07.18-.24.17s-1.46,0-2.17,0c-.94,0-7.13.05-7.8.08-.45,0-1.45.09-1.84.14A2.25,2.25,0,0,1,163.49,321Zm4.66-2.29c-1,0-1.45-.35-1.45-1v-2.29c0-.17-.61-.47-.85-.54,0,0-.06,0-.06-.07a.31.31,0,0,1,.3-.33,3.93,3.93,0,0,1,1.59.37c0,.12,0,.36,0,.53v2.2c0,.28.11.39.56.41.66,0,3.73-.05,4-.07.15,0,.82-.19,1-.26s.44.58.44.83-.06.15-.17.15Zm.37,8.24c-1.09,0-1.57-.46-1.57-1.06v-2.22c0-.19-.46-.45-.7-.52,0,0-.05,0-.05-.07a.27.27,0,0,1,.29-.29,2.92,2.92,0,0,1,1.45.36,4.12,4.12,0,0,0,0,.51v2.1c0,.24.14.41.57.42s4-.07,4.2-.1a8,8,0,0,0,1-.25c.14,0,.44.57.44.87,0,.11-.06.15-.17.15Z"/><path class="cls-2" d="M188.22,320a3,3,0,1,1-3-2.89A2.79,2.79,0,0,1,188.22,320Zm-1,0a2,2,0,1,0-2,2.12A1.94,1.94,0,0,0,187.24,320Zm7.43.94c0,.13-.06.16-.17.16h-3.06v2.28c0,1,.05,3.22.09,3.61,0,.13-.31.34-.77.34-.17,0-.24-.08-.24-.24V315.28a2.49,2.49,0,0,0-.07-.58,2.08,2.08,0,0,0-1-.65c-.13-.05-.17-.06-.17-.14a.33.33,0,0,1,.35-.3c.6,0,1.9.38,1.9.62a4.94,4.94,0,0,0-.08.77c0,.21,0,3,0,5.36h1.87a3.45,3.45,0,0,0,.88-.28C194.33,320.08,194.67,320.63,194.67,320.92Z"/><path class="cls-2" d="M196.34,320a3.07,3.07,0,1,1,3.07,2.9A2.82,2.82,0,0,1,196.34,320Zm5.14,0a2.08,2.08,0,1,0-2.07,2.12A2,2,0,0,0,201.48,320Zm3.74,7.09V315.28a2.49,2.49,0,0,0-.07-.58,2.08,2.08,0,0,0-1-.65c-.13-.05-.17-.06-.17-.14a.33.33,0,0,1,.35-.3c.6,0,1.9.38,1.9.62a4.94,4.94,0,0,0-.08.77c0,.33,0,7.62,0,8.36,0,1,.05,3.22.09,3.61,0,.13-.31.34-.77.34C205.29,327.31,205.22,327.23,205.22,327.07Z"/><path class="cls-2" d="M216.36,317.48a2,2,0,0,0-.15.35,14.55,14.55,0,0,1-6.36,6.26.82.82,0,0,1-.32.08.4.4,0,0,1-.34-.32c0-.06,0-.08.15-.14,1.55-.7,5.16-4.31,5.82-6a41.33,41.33,0,0,0-4.43.34,1.86,1.86,0,0,1-.7-.69.32.32,0,0,1,0-.16c0-.11,0-.15.07-.15,1,.11,3.87,0,4.72,0a.86.86,0,0,0,.38-.11C215.62,316.89,216.36,317.31,216.36,317.48Zm6.31,3.74c0,.12-.06.15-.17.15h-3.06v2c0,1,.05,3.22.09,3.61,0,.13-.31.34-.77.34-.17,0-.24-.08-.24-.24V315.28a2.49,2.49,0,0,0-.07-.58,2.08,2.08,0,0,0-1-.65c-.13-.05-.17-.06-.17-.14a.33.33,0,0,1,.35-.3c.6,0,1.9.38,1.9.62a4.94,4.94,0,0,0-.08.77c0,.21,0,3.29,0,5.66h1.87a3.89,3.89,0,0,0,.88-.28C222.33,320.38,222.67,320.92,222.67,321.22Z"/><path class="cls-2" d="M228.26,318.19c0-1.5,1.18-2.51,3-2.51s3,1,3,2.51-1.17,2.51-3,2.51S228.26,319.69,228.26,318.19Zm3.72,6.39a8.4,8.4,0,0,1-2.66,2.35.68.68,0,0,1-.3.09.31.31,0,0,1-.33-.27c0-.07,0-.1.14-.17a10.51,10.51,0,0,0,3.2-4,.46.46,0,0,0-.23-.44c-.05,0-.07,0-.07-.08a.24.24,0,0,1,.25-.23,1.66,1.66,0,0,1,1.21.65,5.91,5.91,0,0,1-.85,1.62,6.11,6.11,0,0,1,1.49.88.69.69,0,0,1,.21.5c0,.36-.18.61-.37.61s-.14,0-.21-.14A11.43,11.43,0,0,0,232,324.58Zm-2.74-6.39a2,2,0,1,0,2-1.74C230,316.45,229.24,317.14,229.24,318.19Zm10.09,8.38c0,.36-.19.61-.4.61s-.14,0-.24-.16a19.48,19.48,0,0,0-2.19-2.45,9.23,9.23,0,0,1-2.86,2.66.75.75,0,0,1-.28.07A.3.3,0,0,1,233,327c0-.07,0-.1.16-.2a11.35,11.35,0,0,0,3.35-4.49.47.47,0,0,0-.22-.44c-.06,0-.07,0-.07-.08a.23.23,0,0,1,.25-.22,1.71,1.71,0,0,1,1.2.65,6.42,6.42,0,0,1-.86,1.81,12.36,12.36,0,0,1,2.29,2A.8.8,0,0,1,239.33,326.57Zm-3.42-12.66a.33.33,0,0,1,.35-.3c.59,0,1.9.31,1.9.55a3.84,3.84,0,0,0-.08.67c0,.32,0,2.35,0,3,0,.88,0,2.61.07,3,0,.12-.33.32-.75.32-.16,0-.24-.07-.24-.23v-5.81a2,2,0,0,0-.07-.52c-.06-.18-.63-.47-1-.58C236,314,235.91,314,235.91,313.91Z"/><path class="cls-2" d="M242.26,318.19c0-1.5,1.18-2.51,3-2.51a2.71,2.71,0,0,1,2.94,2h2.93v-2.5a2,2,0,0,0-.07-.52c-.06-.18-.63-.47-1-.58-.13-.05-.17-.07-.17-.14a.33.33,0,0,1,.35-.3c.59,0,1.9.31,1.9.55a3.84,3.84,0,0,0-.08.67c0,.32,0,2.35,0,3,0,.88,0,2.61.07,3,0,.12-.33.32-.75.32-.16,0-.24-.07-.24-.23v-2.63h-2.89c-.07,1.42-1.23,2.37-3,2.37S242.26,319.69,242.26,318.19Zm3.72,6.39a8.4,8.4,0,0,1-2.66,2.35.68.68,0,0,1-.3.09.31.31,0,0,1-.33-.27c0-.07,0-.1.14-.17a10.51,10.51,0,0,0,3.2-4,.46.46,0,0,0-.23-.44c-.05,0-.07,0-.07-.08a.24.24,0,0,1,.25-.23,1.66,1.66,0,0,1,1.21.65,5.91,5.91,0,0,1-.85,1.62,6.11,6.11,0,0,1,1.49.88.69.69,0,0,1,.21.5c0,.36-.18.61-.37.61s-.14,0-.21-.14A11.43,11.43,0,0,0,246,324.58Zm-2.74-6.39a2,2,0,1,0,2-1.74C244,316.45,243.24,317.14,243.24,318.19Zm10.09,8.38c0,.36-.19.61-.4.61s-.14,0-.24-.16a19.48,19.48,0,0,0-2.19-2.45,9.23,9.23,0,0,1-2.86,2.66.75.75,0,0,1-.28.07A.3.3,0,0,1,247,327c0-.07,0-.1.16-.2a11.35,11.35,0,0,0,3.35-4.49.47.47,0,0,0-.22-.44c-.06,0-.07,0-.07-.08a.23.23,0,0,1,.25-.22,1.71,1.71,0,0,1,1.2.65,6.42,6.42,0,0,1-.86,1.81,12.36,12.36,0,0,1,2.29,2A.8.8,0,0,1,253.33,326.57Z"/><path class="cls-2" d="M266.15,327c0,.13-.31.34-.77.34-.17,0-.24-.08-.24-.24,0-.47,0-3.72,0-6.71h-2.75a2.92,2.92,0,1,1,0-.7h2.75v-4.38a2.49,2.49,0,0,0-.07-.58,2.08,2.08,0,0,0-1-.65c-.13-.05-.17-.06-.17-.14a.33.33,0,0,1,.35-.3c.6,0,1.9.38,1.9.62a4.94,4.94,0,0,0-.08.77c0,.33,0,7.62,0,8.36C266.06,324.4,266.11,326.58,266.15,327Zm-4.75-7a2.08,2.08,0,1,0-2.07,2.12A2,2,0,0,0,261.4,320Z"/><path class="cls-2" d="M282.28,325c0,.12-.07.18-.24.17s-1.46,0-2.17,0c-.94,0-7.13,0-7.8.08-.45,0-1.45.09-1.84.14a2.25,2.25,0,0,1-.9-.64.3.3,0,0,1-.08-.2c0-.08,0-.17.06-.17l.14,0c.45.05,2.17.07,4.1.07,0-.63,0-2-.06-2.1a.55.55,0,0,0-.28-.38s-.07,0-.07-.07a.25.25,0,0,1,.24-.25c.44,0,1.1.22,1.08.33l0,.37v2.08h2.89c0-.6.06-2.1,0-2.21a.59.59,0,0,0-.29-.35c-.06,0-.07-.05-.07-.07a.25.25,0,0,1,.23-.26c.45,0,1.25.33,1.21.49l-.1.38-.26,2c1.2,0,2.07,0,2.17-.05s1.29-.25,1.45-.29S282.28,324.61,282.28,325Zm-9.84-6.57c0-1.66,1.33-2.79,3.32-2.79s3.32,1.13,3.32,2.79-1.33,2.77-3.32,2.77S272.44,320,272.44,318.39Zm1,0c0,1.16.83,2,2.32,2s2.33-.83,2.33-2-.83-2-2.33-2S273.44,317.21,273.44,318.39Z"/><path class="cls-2" d="M283.92,324.69a.94.94,0,1,1,.94.94A.93.93,0,0,1,283.92,324.69Z"/><path class="cls-2" d="M75.57,347.68a.3.3,0,0,1-.08-.2c0-.08,0-.17.06-.17l.14,0c1.15.14,10.46,0,10.8,0,.15,0,1.29-.25,1.45-.29s.58.59.58.94c0,.12-.07.18-.24.17s-1.46,0-2.17,0c-.94,0-7.13,0-7.8.08-.45,0-1.45.09-1.84.14A2.25,2.25,0,0,1,75.57,347.68Zm8.27-1.94a.66.66,0,0,1,0-.15,32.42,32.42,0,0,0,.74-5.77c-1.2,0-4.9.18-5.77.35a1.63,1.63,0,0,1-.78-.7.32.32,0,0,1,0-.16c0-.11,0-.15.07-.15,1,.11,5.26,0,6.12,0a.86.86,0,0,0,.38-.11c.47,0,1.13.35,1.13.54a1.05,1.05,0,0,0-.06.33,14.42,14.42,0,0,1-1.26,5.7.49.49,0,0,1-.4.25C83.9,345.87,83.84,345.81,83.84,345.74Z"/><path class="cls-2" d="M97.18,344.33a37.77,37.77,0,0,1-5.42.83.74.74,0,0,1-.24-.05,2.9,2.9,0,0,1-.71-.46.28.28,0,0,1-.07-.22V342a1.36,1.36,0,0,1-.3-.35.26.26,0,0,1,0-.11c0-.06,0-.1,0-.1.81,0,4,0,4.58,0v-1.89a38,38,0,0,0-3.85.29,2,2,0,0,1-.72-.66.26.26,0,0,1,0-.15c0-.11,0-.15.07-.15.69.09,3.73,0,4.16,0a.73.73,0,0,0,.36-.11c.45,0,1.07.33,1.07.47a1.18,1.18,0,0,0,0,.26l-.16,2a1.53,1.53,0,0,1,.13.52c0,.08,0,.12-.13.12-.42,0-2.91,0-4.21.11v2c0,.07,0,.11.15.11.63,0,5-.39,5.36-.5l.13,0s.11.11.11.22A.36.36,0,0,1,97.18,344.33Zm4.43,5.38c0,.11-.06.15-.17.15l-5.55.1c-1.08,0-1.57-.43-1.57-1v-2.1c0-.19-.44-.43-.68-.5,0,0-.06,0-.06-.07a.29.29,0,0,1,.3-.3,2.72,2.72,0,0,1,1.41.35c0,.13,0,.37,0,.51v2c0,.24.14.4.58.41s4-.07,4.28-.1a8.39,8.39,0,0,0,1-.25C101.31,348.84,101.61,349.41,101.61,349.71Zm-5-8.45a.27.27,0,0,1,0-.15c0-.09,0-.14,0-.14.44,0,2.1,0,2.71,0v-2.83a2,2,0,0,0-.07-.52c-.06-.18-.63-.47-1-.58-.13-.05-.17-.07-.17-.14a.33.33,0,0,1,.35-.3c.59,0,1.9.31,1.9.55a3.84,3.84,0,0,0-.08.67c0,.32,0,4.79,0,5.53,0,1,0,3,.09,3.41,0,.12-.35.32-.77.32-.16,0-.24-.07-.24-.23,0-.36,0-2.95,0-5.22a14.67,14.67,0,0,0-2.2.2A2.4,2.4,0,0,1,96.65,341.26Z"/><path class="cls-2" d="M110.1,345.24a.35.35,0,0,1-.24.35,21.74,21.74,0,0,1-4,.76.64.64,0,0,1-.23-.05,2.23,2.23,0,0,1-.76-.47.3.3,0,0,1-.07-.23v-4.66a3.87,3.87,0,0,1-.69-.29c-.07,0-.08-.06-.1-.12s0-.32.06-.32c.44.06,3.83,0,4,0A7,7,0,0,0,109,340c.13,0,.44.48.44.8,0,.1,0,.14-.16.14-.47,0-2.31,0-3.43,0v4.34c0,.08.06.14.2.14.53,0,3.61-.32,3.88-.42l.11,0C110.05,345,110.1,345.1,110.1,345.24Zm1.82-6.61c0,.29,0,6.75,0,7.51,0,1,0,2.81.08,3.2,0,.13-.29.34-.74.34-.18,0-.24-.07-.24-.22,0-.41,0-3.46,0-6.2a24.08,24.08,0,0,0-2.44.17,1.93,1.93,0,0,1-.56-.54.31.31,0,0,1,0-.14c0-.09,0-.16.06-.16.42.06,2.21,0,3,0V338.8a1.06,1.06,0,0,0-.06-.34,1.19,1.19,0,0,0-.68-.55c-.13,0-.16-.07-.16-.14a.32.32,0,0,1,.34-.28c.54,0,1.57.31,1.57.52A4,4,0,0,0,111.92,338.63Zm3,11.34c0,.13-.31.34-.76.34-.17,0-.24-.07-.24-.22V338a1.19,1.19,0,0,0-.07-.4,1.66,1.66,0,0,0-.86-.56c-.12-.05-.15-.07-.15-.14a.32.32,0,0,1,.35-.3c.59,0,1.75.31,1.75.55a3.84,3.84,0,0,0-.08.67c0,.39,0,7.8,0,8.54C114.82,347.41,114.86,349.58,114.91,350Z"/><path class="cls-2" d="M121.49,347.68a.3.3,0,0,1-.08-.2c0-.08,0-.17.06-.17l.14,0c1.15.14,10.46,0,10.8,0,.15,0,1.29-.25,1.45-.29s.58.59.58.94c0,.12-.07.18-.24.17s-1.46,0-2.17,0c-.94,0-7.13,0-7.8.08-.45,0-1.45.09-1.84.14A2.25,2.25,0,0,1,121.49,347.68Zm8.27-1.94a.66.66,0,0,1,0-.15,32.42,32.42,0,0,0,.74-5.77c-1.2,0-4.9.18-5.77.35a1.63,1.63,0,0,1-.78-.7.32.32,0,0,1,0-.16c0-.11,0-.15.07-.15,1,.11,5.26,0,6.12,0a.86.86,0,0,0,.38-.11c.47,0,1.13.35,1.13.54a1.05,1.05,0,0,0-.06.33,14.42,14.42,0,0,1-1.26,5.7.49.49,0,0,1-.4.25C129.82,345.87,129.76,345.81,129.76,345.74Z"/><path class="cls-2" d="M139.19,345.6c0,.14,0,.21-.22.33a5.74,5.74,0,0,1-1.47.47.61.61,0,0,1-.24,0,2.34,2.34,0,0,1-.64-.48.28.28,0,0,1-.07-.22v-4.72a1.59,1.59,0,0,1-.4-.35.39.39,0,0,1-.05-.13c0-.07,0-.22,0-.22.25,0,1.9,0,2,0s.46-.1.54-.12.32.39.32.7c0,.1,0,.14-.15.14h-1.41v4.46c0,.08,0,.11.16.11a10.48,10.48,0,0,0,1.39-.18l.07,0S139.19,345.48,139.19,345.6Zm3.34-.11a.32.32,0,0,1-.21.31,7.38,7.38,0,0,1-1.89.49.56.56,0,0,1-.23,0,2.47,2.47,0,0,1-.67-.46.27.27,0,0,1-.07-.21v-4.79a1,1,0,0,1-.18-.33.2.2,0,0,1,0-.1c0-.08,0-.16,0-.16.33,0,1.95,0,2.08,0l.56-.14c.11,0,.32.38.32.71,0,.1,0,.14-.15.14-.33,0-1.12,0-1.75,0v4.39c0,.09,0,.12.16.12a12.29,12.29,0,0,0,1.82-.19h.07C142.46,345.24,142.53,345.37,142.53,345.49Zm4.3,4.48c0,.13-.31.34-.76.34-.17,0-.24-.07-.24-.22,0-.44,0-3.37,0-6.22H144v2.27c0,1,0,2.81.08,3.2,0,.13-.29.34-.74.34-.18,0-.24-.07-.24-.22V338.8a1.06,1.06,0,0,0-.06-.34,1.19,1.19,0,0,0-.68-.55c-.13,0-.16-.07-.16-.14a.32.32,0,0,1,.34-.28c.54,0,1.57.31,1.57.52a4,4,0,0,0-.09.62c0,.17,0,2.51,0,4.54h1.85V338a1.19,1.19,0,0,0-.07-.4,1.66,1.66,0,0,0-.86-.56c-.12-.05-.15-.07-.15-.14a.32.32,0,0,1,.35-.3c.59,0,1.75.31,1.75.55a3.84,3.84,0,0,0-.08.67c0,.39,0,7.8,0,8.54C146.74,347.41,146.78,349.58,146.83,350Z"/><path class="cls-2" d="M155.54,343.31c-.07.49-.42.95-.68.95s-.17-.06-.17-.25l-.11-4.25c0-.17-.59-.46-.77-.52s-.1,0-.1-.08.07-.34.22-.34a9.68,9.68,0,0,1,1.53.19c.32,0,3.07,0,3.25-.05a1.12,1.12,0,0,0,.38-.15c.49,0,1.06.24,1.06.39a2.33,2.33,0,0,0-.05.34l-.13,2.35a2.63,2.63,0,0,1-.14.72.88.88,0,0,1,.25.54c0,.1-.05.14-.15.14Zm3.59-3.63-3.59,0,0,2.87h3.5Zm5.49,10.21c0,.11-.06.15-.17.15l-5.39.1c-1,0-1.32-.33-1.32-1v-1.7a1.13,1.13,0,0,1-.29-.34.18.18,0,0,1,0-.11s0-.1,0-.1c.8,0,4.54,0,5,0v-1.6c-1,0-3.83.13-4.58.27a1.9,1.9,0,0,1-.72-.65.28.28,0,0,1,0-.15c0-.11,0-.16.07-.16a36.21,36.21,0,0,0,5.24-.07c.45,0,1.08.28,1.08.41a2.17,2.17,0,0,0-.05.25l-.15,1.72a1.66,1.66,0,0,1,.13.52.12.12,0,0,1-.13.13c-.42,0-3.29,0-4.68.07v1.44c0,.2.09.28.42.3s3.87-.09,4.09-.1a10.25,10.25,0,0,0,1-.23C164.35,349.06,164.62,349.64,164.62,349.89Zm2-8.28c0,.13-.06.16-.17.16h-3c0,.82,0,1.72,0,2s-.33.32-.75.32c-.16,0-.24-.07-.24-.23v-5.7a2,2,0,0,0-.07-.52c-.06-.18-.63-.47-1-.58-.13-.05-.17-.07-.17-.14a.33.33,0,0,1,.35-.3c.59,0,1.9.31,1.9.55a3.84,3.84,0,0,0-.08.67c0,.32,0,2.26,0,2.93v.29h1.87a3.45,3.45,0,0,0,.88-.28C166.33,340.77,166.67,341.32,166.67,341.61Z"/><path class="cls-2" d="M175.2,343.53a41.48,41.48,0,0,1-5.59.93.64.64,0,0,1-.23,0,2.28,2.28,0,0,1-.73-.46.29.29,0,0,1-.07-.22v-2.22a1.36,1.36,0,0,1-.3-.35.18.18,0,0,1,0-.11c0-.05,0-.1.05-.1.87,0,4.2,0,4.79,0v-1.65c-.91,0-3.32.14-4.06.29a2,2,0,0,1-.72-.66.26.26,0,0,1,0-.15c0-.11,0-.15.07-.15.7.09,3.94,0,4.37,0a.73.73,0,0,0,.36-.11c.45,0,1.07.33,1.07.47a1.18,1.18,0,0,0,0,.26l-.16,1.72a1.53,1.53,0,0,1,.13.52c0,.08,0,.12-.13.12-.42,0-3.07.05-4.42.12v1.76c0,.07,0,.11.15.11.6,0,5.2-.49,5.58-.61l.11,0s.11.11.11.22A.37.37,0,0,1,175.2,343.53Zm2.4,4.4c0,1.44-1.15,2.48-3,2.48s-3-1-3-2.48,1.15-2.48,3-2.48S177.6,346.46,177.6,347.93Zm-1,0c0-1-.71-1.71-2-1.71s-2.05.67-2.05,1.71.72,1.71,2.05,1.71S176.63,349,176.63,347.93Zm4-5.62c0,.13-.06.16-.17.16h-3.06c0,.95.05,2.15.07,2.46,0,.13-.33.32-.75.32-.16,0-.24-.07-.24-.22v-6.88a2,2,0,0,0-.07-.52c-.06-.18-.63-.47-1-.58-.13-.05-.17-.07-.17-.14a.33.33,0,0,1,.35-.3c.59,0,1.9.31,1.9.55a3.84,3.84,0,0,0-.08.67c0,.32,0,3.18,0,3.92h1.87a3.45,3.45,0,0,0,.88-.28C180.33,341.47,180.67,342,180.67,342.31Z"/><path class="cls-2" d="M183.54,343.31c-.07.49-.42.95-.68.95s-.17-.06-.17-.25l-.11-4.25c0-.17-.59-.46-.77-.52s-.1,0-.1-.08.07-.34.22-.34a9.68,9.68,0,0,1,1.53.19c.32,0,3.07,0,3.25-.05a1.12,1.12,0,0,0,.38-.15c.49,0,1.06.24,1.06.39a2.33,2.33,0,0,0-.05.34l-.13,2.35a2.63,2.63,0,0,1-.14.72.88.88,0,0,1,.25.54c0,.1-.05.14-.15.14Zm3.59-3.63-3.59,0,0,2.87h3.5Zm5.49,10.21c0,.11-.06.15-.17.15l-5.39.1c-1,0-1.32-.33-1.32-1v-1.7a1.13,1.13,0,0,1-.29-.34.18.18,0,0,1,0-.11s0-.1,0-.1c.8,0,4.54,0,5,0v-1.6c-1,0-3.83.13-4.58.27a1.9,1.9,0,0,1-.72-.65.28.28,0,0,1,0-.15c0-.11,0-.16.07-.16a36.21,36.21,0,0,0,5.24-.07c.45,0,1.08.28,1.08.41a2.17,2.17,0,0,0-.05.25l-.15,1.72a1.66,1.66,0,0,1,.13.52.12.12,0,0,1-.13.13c-.42,0-3.29,0-4.68.07v1.44c0,.2.09.28.42.3s3.87-.09,4.09-.1a10.25,10.25,0,0,0,1-.23C192.35,349.06,192.62,349.64,192.62,349.89Zm2-8.28c0,.13-.06.16-.17.16h-3c0,.82,0,1.72,0,2s-.33.32-.75.32c-.16,0-.24-.07-.24-.23v-5.7a2,2,0,0,0-.07-.52c-.06-.18-.63-.47-1-.58-.13-.05-.17-.07-.17-.14a.33.33,0,0,1,.35-.3c.59,0,1.9.31,1.9.55a3.84,3.84,0,0,0-.08.67c0,.32,0,2.26,0,2.93v.29h1.87a3.45,3.45,0,0,0,.88-.28C194.33,340.77,194.67,341.32,194.67,341.61Z"/><path class="cls-2" d="M203.2,343.53a41.48,41.48,0,0,1-5.59.93.64.64,0,0,1-.23,0,2.28,2.28,0,0,1-.73-.46.29.29,0,0,1-.07-.22v-2.22a1.36,1.36,0,0,1-.3-.35.18.18,0,0,1,0-.11c0-.05,0-.1.05-.1.87,0,4.2,0,4.79,0v-1.65c-.91,0-3.32.14-4.06.29a2,2,0,0,1-.72-.66.26.26,0,0,1,0-.15c0-.11,0-.15.07-.15.7.09,3.94,0,4.37,0a.73.73,0,0,0,.36-.11c.45,0,1.07.33,1.07.47a1.18,1.18,0,0,0,0,.26l-.16,1.72a1.53,1.53,0,0,1,.13.52c0,.08,0,.12-.13.12-.42,0-3.07.05-4.42.12v1.76c0,.07,0,.11.15.11.6,0,5.2-.49,5.58-.61l.11,0s.11.11.11.22A.37.37,0,0,1,203.2,343.53Zm2.4,4.4c0,1.44-1.15,2.48-3,2.48s-3-1-3-2.48,1.15-2.48,3-2.48S205.6,346.46,205.6,347.93Zm-1,0c0-1-.71-1.71-2-1.71s-2.05.67-2.05,1.71.72,1.71,2.05,1.71S204.63,349,204.63,347.93Zm4-5.62c0,.13-.06.16-.17.16h-3.06c0,.95.05,2.15.07,2.46,0,.13-.33.32-.75.32-.16,0-.24-.07-.24-.22v-6.88a2,2,0,0,0-.07-.52c-.06-.18-.63-.47-1-.58-.13-.05-.17-.07-.17-.14a.33.33,0,0,1,.35-.3c.59,0,1.9.31,1.9.55a3.84,3.84,0,0,0-.08.67c0,.32,0,3.18,0,3.92h1.87a3.45,3.45,0,0,0,.88-.28C208.33,341.47,208.67,342,208.67,342.31Z"/><path class="cls-2" d="M217.17,341c-1.35,0-6.24,0-7,.18a2.1,2.1,0,0,1-.75-.59.23.23,0,0,1,0-.14c0-.08,0-.15.06-.15.8.11,6.38,0,6.57,0a8.72,8.72,0,0,0,.91-.19c.12,0,.46.49.46.74S217.29,341,217.17,341Zm-3.67,4.69c-1.52,0-2.56-.74-2.56-1.92s1-1.89,2.56-1.89,2.55.74,2.55,1.89S215,345.66,213.5,345.66Zm-2.38-6.91c0-.18.06-.39.1-.39a13.76,13.76,0,0,0,3.21,0,2.3,2.3,0,0,0,.53-.23c.17,0,.52.45.52.73a.19.19,0,0,1-.17.21,10.61,10.61,0,0,1-1.95.11,7.18,7.18,0,0,1-2.08-.24C211.15,338.91,211.12,338.85,211.12,338.75ZM213.5,345c1,0,1.6-.47,1.6-1.23s-.63-1.2-1.6-1.2-1.61.46-1.61,1.2S212.52,345,213.5,345Zm7.46,4.74c0,.11-.06.15-.17.15l-5.41.1c-1.08,0-1.57-.43-1.57-1v-1.59c0-.19-.38-.42-.57-.48a.07.07,0,0,1-.06-.07.28.28,0,0,1,.3-.29c.47,0,1.3.19,1.3.32s0,.36,0,.49v1.48c0,.24.14.4.58.41s3.89-.07,4.14-.1a8.39,8.39,0,0,0,1.05-.25C220.66,348.84,221,349.41,221,349.71Zm1.71-6.61c0,.12-.06.15-.17.15h-3.06v.41c0,1,.05,3,.09,3.46,0,.12-.35.32-.77.32-.16,0-.24-.07-.24-.23v-9.06a2,2,0,0,0-.07-.52c-.06-.18-.63-.47-1-.58-.13-.05-.17-.07-.17-.14a.33.33,0,0,1,.35-.3c.59,0,1.9.31,1.9.55a3.84,3.84,0,0,0-.08.67c0,.24,0,3,0,4.71h1.87a3.89,3.89,0,0,0,.88-.28C222.33,342.26,222.67,342.8,222.67,343.1Z"/><path class="cls-2" d="M231.35,341.79a11.12,11.12,0,0,1-3.58,3.09.79.79,0,0,1-.34.09.33.33,0,0,1-.32-.28c0-.05,0-.08.17-.16a12.88,12.88,0,0,0,4-4.56.51.51,0,0,0-.14-.4,24.48,24.48,0,0,0-2.47.11,2.71,2.71,0,0,1-.7-.59.19.19,0,0,1,0-.13c0-.08,0-.15.05-.15.71.08,5.4,0,5.61,0a6.52,6.52,0,0,0,1-.22c.13,0,.46.5.46.77,0,.1,0,.14-.15.14l-2.91,0a2,2,0,0,1,.46.5,5.12,5.12,0,0,1-.69,1.29,14.78,14.78,0,0,1,3,1.56.48.48,0,0,1,.21.43c0,.38-.18.64-.4.64-.07,0-.1,0-.21-.12A17.79,17.79,0,0,0,231.35,341.79Zm7.75,8.1c0,.11-.06.15-.17.15l-5.6.1c-1,0-1.32-.33-1.32-1v-1.61a1.44,1.44,0,0,1-.29-.34.22.22,0,0,1,0-.11c0-.06,0-.1,0-.1.79,0,4.75,0,5.26,0v-1.54c-1,0-4,.13-4.79.27a1.9,1.9,0,0,1-.72-.65.28.28,0,0,1,0-.15c0-.11,0-.16.07-.16a39.18,39.18,0,0,0,5.45-.07c.45,0,1.08.28,1.08.41a2.17,2.17,0,0,0,0,.25l-.15,1.67a1.54,1.54,0,0,1,.13.5.12.12,0,0,1-.13.13c-.42,0-3.46,0-4.89.07v1.37c0,.2.09.28.42.3s4.08-.09,4.3-.1a10.25,10.25,0,0,0,1-.23C238.83,349.06,239.1,349.64,239.1,349.89Zm-3.19-13a.33.33,0,0,1,.35-.3c.59,0,1.9.31,1.9.55a3.84,3.84,0,0,0-.08.67c0,.32,0,2.38,0,3.05,0,.89,0,2.62.07,3,0,.12-.33.32-.75.32-.16,0-.24-.07-.24-.23v-5.84a2,2,0,0,0-.07-.52c-.06-.18-.63-.47-1-.58C236,337,235.91,337,235.91,336.91Z"/><path class="cls-2" d="M254.28,344.15c0,.12-.07.18-.24.17s-1.46,0-2.17,0l-3.18,0v.75c0,.73,0,2.07.05,2.35,0,.13-.32.31-.71.31-.18,0-.24-.07-.24-.24v-3.17l-3.72.05c-.45,0-1.45.09-1.84.14a2.25,2.25,0,0,1-.9-.64.3.3,0,0,1-.08-.2c0-.08,0-.17.06-.17l.14,0c1.15.14,10.46,0,10.8,0,.15,0,1.29-.25,1.45-.29S254.28,343.8,254.28,344.15ZM252,349.71c0,.11-.06.15-.17.15l-5.76.1c-1.09,0-1.57-.46-1.57-1.06v-2.25c0-.19-.46-.44-.7-.51,0,0-.05,0-.05-.07a.28.28,0,0,1,.29-.3c.53,0,1.44.24,1.44.37s0,.37,0,.5v2.13c0,.24.14.41.58.42s4.23-.07,4.48-.1a8.39,8.39,0,0,0,1-.25C251.74,348.84,252,349.41,252,349.71Zm-8.18-11.78c0-.14.07-.34.22-.34a12.44,12.44,0,0,1,1.53.16c.26,0,3.72-.06,3.89-.07a1.54,1.54,0,0,0,.38-.16c.49,0,1.06.24,1.06.41l-.07.36-.11,1.78a3.63,3.63,0,0,1-.21.95h0c.1,0,.31.34.31.58s-.05.14-.15.14l-5.09.05a.91.91,0,0,1-.67.59c-.13,0-.15-.07-.17-.26l-.11-3.58c0-.16-.55-.47-.76-.53S243.86,338,243.86,337.93Zm6.06.47-4.24.07v2.61l4.16,0Z"/><path class="cls-2" d="M256.26,343a3.07,3.07,0,1,1,3.07,2.9A2.82,2.82,0,0,1,256.26,343Zm5.14,0a2.08,2.08,0,1,0-2.07,2.12A2,2,0,0,0,261.4,343Zm3.74,7.09V338.28a2.49,2.49,0,0,0-.07-.58,2.08,2.08,0,0,0-1-.65c-.13-.05-.17-.06-.17-.14a.33.33,0,0,1,.35-.3c.6,0,1.9.38,1.9.62a4.94,4.94,0,0,0-.08.77c0,.33,0,7.62,0,8.36,0,1,.05,3.22.09,3.61,0,.13-.31.34-.77.34C265.21,350.31,265.14,350.23,265.14,350.07Z"/><path class="cls-2" d="M281.31,341.81c0,.1,0,.14-.15.14-1.36,0-6.39.05-7.19.18a2.11,2.11,0,0,1-.76-.59.23.23,0,0,1,0-.14c0-.08,0-.15.06-.15.8.11,6.51,0,6.69,0a9,9,0,0,0,.93-.19C281,341.07,281.31,341.56,281.31,341.81ZM280,345.14c0,1.3-1.08,2.13-2.62,2.13s-2.63-.81-2.63-2.13,1.09-2.11,2.63-2.11S280,343.85,280,345.14ZM275,339.51c0-.17.06-.38.1-.38a13.9,13.9,0,0,0,3.35,0,2.79,2.79,0,0,0,.53-.21c.17,0,.52.45.52.73a.19.19,0,0,1-.17.21,11.35,11.35,0,0,1-2,.11,7.48,7.48,0,0,1-2.14-.24A.2.2,0,0,1,275,339.51Zm4.11,5.63c0-.89-.67-1.43-1.67-1.43s-1.67.55-1.67,1.43a1.69,1.69,0,0,0,3.34,0Zm7.44-.64c0,.12-.06.15-.17.15h-3.06v1.71c0,1,.05,3.22.09,3.61,0,.13-.31.34-.77.34-.17,0-.24-.08-.24-.24V338.28a2.49,2.49,0,0,0-.07-.58,2.08,2.08,0,0,0-1-.65c-.13-.05-.17-.06-.17-.14a.33.33,0,0,1,.35-.3c.6,0,1.9.38,1.9.62a4.94,4.94,0,0,0-.08.77c0,.22,0,3.53,0,5.94h1.87a3.89,3.89,0,0,0,.88-.28C286.17,343.66,286.51,344.2,286.51,344.5Z"/><path class="cls-2" d="M295.32,344.58a.36.36,0,0,1-.24.38,26.67,26.67,0,0,1-5.49,1.27.62.62,0,0,1-.23,0,2.66,2.66,0,0,1-.76-.47.3.3,0,0,1-.07-.23V340.7c0-.24-.65-.52-.91-.6-.05,0-.06,0-.06-.07a.3.3,0,0,1,.29-.32c.48,0,1.7.23,1.7.39a2.51,2.51,0,0,0-.06.55v4.51c0,.12,0,.18.22.18a49.18,49.18,0,0,0,5.39-.94l.13,0C295.27,344.36,295.32,344.46,295.32,344.58Zm5.19-.57c0,.12-.06.15-.17.15h-3.06v2.2c0,1,.05,3.22.09,3.61,0,.13-.31.34-.77.34-.17,0-.24-.08-.24-.24V338.28a2.49,2.49,0,0,0-.07-.58,2.08,2.08,0,0,0-1-.65c-.13-.05-.17-.06-.17-.14a.33.33,0,0,1,.35-.3c.6,0,1.9.38,1.9.62a4.94,4.94,0,0,0-.08.77c0,.21,0,3.11,0,5.45h1.87a3.89,3.89,0,0,0,.88-.28C300.17,343.17,300.51,343.71,300.51,344Z"/><path class="cls-2" d="M308.59,341.71a10.28,10.28,0,0,1-3,3.11c-.19.1-.24.11-.31.11a.37.37,0,0,1-.34-.29c0-.06,0-.1.13-.17a12.88,12.88,0,0,0,3.54-5.18c0-.19-.36-.45-.52-.52s-.1-.06-.1-.1a.24.24,0,0,1,.26-.24,2.92,2.92,0,0,1,1.57.63,7.33,7.33,0,0,1-.91,2.12,12.55,12.55,0,0,1,2.15,2,.63.63,0,0,1,.14.42c0,.46-.18.73-.39.73s-.11,0-.21-.17A23.9,23.9,0,0,0,308.59,341.71Zm7.82,6.15c0,1.48-1.18,2.55-3.08,2.55s-3.08-1.07-3.08-2.55,1.17-2.55,3.08-2.55S316.41,346.35,316.41,347.86Zm-1,0c0-1.08-.74-1.78-2.11-1.78s-2.12.7-2.12,1.78.74,1.78,2.12,1.78S315.44,348.92,315.44,347.86Zm1.05-3.07c0,.13-.3.32-.74.32-.17,0-.24-.07-.24-.22v-3.1H313.3v.06c0,.78,0,2.13.07,2.48,0,.13-.29.32-.73.32-.17,0-.24-.07-.24-.22v-5.75a.8.8,0,0,0-.06-.33,1,1,0,0,0-.57-.51c-.13,0-.16-.07-.16-.14a.32.32,0,0,1,.34-.28c.53,0,1.46.31,1.46.51a3.85,3.85,0,0,0-.09.6c0,.21,0,1.61,0,2.56h2.2V338a1.17,1.17,0,0,0-.07-.38,1.41,1.41,0,0,0-.74-.54c-.13-.05-.16-.07-.16-.14a.33.33,0,0,1,.37-.3c.56,0,1.62.32,1.62.55a3.25,3.25,0,0,0-.08.63c0,.29,0,3.47,0,4.14C316.42,342.79,316.45,344.4,316.49,344.79Z"/><path class="cls-2" d="M319.57,345.38a1.08,1.08,0,0,1-.28.06.4.4,0,0,1-.34-.33c0-.05,0-.08.16-.12,1.52-.6,5.14-3.8,5.81-5.37a38.55,38.55,0,0,0-4.29.34,1.86,1.86,0,0,1-.7-.69.28.28,0,0,1,0-.15c0-.11,0-.16.07-.16a41.14,41.14,0,0,0,4.58,0,.75.75,0,0,0,.38-.11c.46,0,1.22.42,1.22.59a2.28,2.28,0,0,0-.17.35A13.68,13.68,0,0,1,319.57,345.38Zm9.68.81c0,.27,0,3.46,0,3.88,0,.13-.36.3-.76.3-.16,0-.23-.07-.23-.23v-4c-1.12,0-4.25.21-5,.35a1.87,1.87,0,0,1-.77-.66.26.26,0,0,1,0-.15c0-.11,0-.15.07-.15a46.28,46.28,0,0,0,5.73-.13c.47,0,1.06.28,1.06.43A2.32,2.32,0,0,0,329.25,346.19Zm3.18-3.85c0,.13-.06.15-.17.15h-3c0,.87,0,1.83,0,2.11,0,.12-.33.32-.75.32-.16,0-.24-.07-.24-.23v-6.54a2,2,0,0,0-.07-.52c-.06-.18-.63-.47-1-.58-.13-.05-.17-.07-.17-.14a.33.33,0,0,1,.35-.3c.59,0,1.9.31,1.9.55a3.84,3.84,0,0,0-.08.67c0,.32,0,3,0,3.66v.29h1.87a3.89,3.89,0,0,0,.88-.28C332.09,341.5,332.43,342.05,332.43,342.34Z"/><path class="cls-2" d="M334.52,343.15a.28.28,0,0,1-.07-.22v-3.42c0-.24-.65-.52-.92-.6,0,0,0,0,0-.07a.3.3,0,0,1,.29-.32c.48,0,1.7.23,1.7.39a2.48,2.48,0,0,0-.06.54v3.14c0,.13.05.18.22.18a49.1,49.1,0,0,0,5.39-.93l.13,0c.06,0,.11.1.11.23a.38.38,0,0,1-.24.38,26.67,26.67,0,0,1-5.49,1.27.62.62,0,0,1-.23,0A2.47,2.47,0,0,1,334.52,343.15Zm3.14,4.36a8.54,8.54,0,0,1-2.59,2.42.69.69,0,0,1-.28.09.31.31,0,0,1-.33-.28c0-.07,0-.1.16-.19a10.28,10.28,0,0,0,2.94-3.93.45.45,0,0,0-.2-.41c-.05,0-.07,0-.07-.08a.25.25,0,0,1,.26-.23,1.64,1.64,0,0,1,1.17.63A5,5,0,0,1,338,347a9,9,0,0,1,1.45,1,.67.67,0,0,1,.21.49c0,.36-.19.62-.38.62s-.13,0-.21-.13A15.12,15.12,0,0,0,337.66,347.51Zm6.9,1.54a.8.8,0,0,1,.19.52c0,.36-.19.61-.4.61s-.14,0-.24-.16a19.75,19.75,0,0,0-2.17-2.4,8.71,8.71,0,0,1-2.71,2.61.85.85,0,0,1-.28.07.31.31,0,0,1-.33-.28c0-.07,0-.1.16-.17a11.37,11.37,0,0,0,3.21-4.47.43.43,0,0,0-.2-.41c-.06,0-.07,0-.07-.08a.23.23,0,0,1,.25-.22,1.63,1.63,0,0,1,1.15.64,6.24,6.24,0,0,1-.83,1.81A12.35,12.35,0,0,1,344.56,349.05Zm1.87-7.37c0,.13-.06.16-.17.16H343.2c0,.85.05,1.82.07,2.1,0,.12-.33.32-.75.32-.16,0-.24-.07-.24-.22v-5.89a2,2,0,0,0-.07-.52c-.06-.18-.63-.47-1-.58-.13-.05-.17-.07-.17-.14a.33.33,0,0,1,.35-.3c.59,0,1.9.31,1.9.55a3.84,3.84,0,0,0-.08.67c0,.32,0,2.41,0,3.1v.19h1.87a3.45,3.45,0,0,0,.88-.28C346.09,340.84,346.43,341.39,346.43,341.68Z"/><path class="cls-2" d="M358,350c0,.13-.31.34-.77.34-.17,0-.24-.08-.24-.24,0-.47,0-3.72,0-6.71h-2.75a2.92,2.92,0,1,1,0-.7H357v-4.38a2.49,2.49,0,0,0-.07-.58,2.08,2.08,0,0,0-1-.65c-.13-.05-.17-.06-.17-.14a.33.33,0,0,1,.35-.3c.6,0,1.9.38,1.9.62a4.94,4.94,0,0,0-.08.77c0,.33,0,7.62,0,8.36C357.9,347.4,358,349.58,358,350Zm-4.75-7a2.08,2.08,0,1,0-2.07,2.12A2,2,0,0,0,353.24,343Z"/><path class="cls-2" d="M374.12,348c0,.12-.07.18-.24.17s-1.46,0-2.17,0c-.94,0-7.13,0-7.8.08-.45,0-1.45.09-1.84.14a2.25,2.25,0,0,1-.9-.64.37.37,0,0,1-.08-.2c0-.08,0-.17.06-.17l.14,0c.45.05,2.17.07,4.1.07,0-.63,0-2-.06-2.1a.57.57,0,0,0-.27-.38c-.06,0-.08,0-.08-.07a.25.25,0,0,1,.24-.25c.44,0,1.1.22,1.08.33l0,.37v2.08h2.89c0-.6.06-2.1,0-2.21a.59.59,0,0,0-.29-.35c-.06,0-.07-.05-.07-.07a.26.26,0,0,1,.24-.26c.44,0,1.24.33,1.2.49l-.1.38-.26,2c1.2,0,2.07,0,2.17-.05s1.29-.25,1.45-.29S374.12,347.61,374.12,348Zm-9.84-6.57c0-1.66,1.34-2.79,3.32-2.79s3.32,1.13,3.32,2.79-1.33,2.77-3.32,2.77S364.28,343,364.28,341.39Zm1,0c0,1.16.83,2,2.32,2s2.33-.83,2.33-2-.83-2-2.33-2S365.28,340.21,365.28,341.39Z"/><path class="cls-2" d="M375.76,347.69a.94.94,0,1,1,.94.94A.93.93,0,0,1,375.76,347.69Z"/><path class="cls-2" d="M82,387c-1.29,0-5,.05-5.83.19a2.18,2.18,0,0,1-.66-.58.23.23,0,0,1,0-.14c0-.08,0-.15.06-.15.8.09,5.12,0,5.31,0a7.48,7.48,0,0,0,.91-.17c.12,0,.4.42.4.7C82.17,386.91,82.13,387,82,387Zm-2.82,4.3c-1.5,0-2.42-.72-2.42-1.78s.92-1.75,2.42-1.75,2.43.73,2.43,1.75S80.72,391.25,79.2,391.25ZM76.93,385c0-.18.06-.41.1-.41a11.06,11.06,0,0,0,2.93,0,2.39,2.39,0,0,0,.49-.2c.17,0,.5.42.5.69a.18.18,0,0,1-.16.21,9.13,9.13,0,0,1-1.8.11,9,9,0,0,1-1.9-.19C77,385.1,76.93,385.05,76.93,385Zm3.74,4.52c0-.65-.54-1.07-1.47-1.07s-1.47.4-1.47,1.07.56,1.11,1.47,1.11S80.67,390.15,80.67,389.47Zm6.14,4.67c0,1.32-1.16,2.27-3.08,2.27s-3.08-1-3.08-2.27,1.16-2.27,3.08-2.27S86.81,392.79,86.81,394.14Zm-1,0c0-.91-.74-1.5-2.11-1.5s-2.12.59-2.12,1.5.74,1.5,2.12,1.5S85.84,395,85.84,394.14Zm1-2.77c0,.12-.31.32-.74.32-.17,0-.24-.07-.24-.23v-3.18H83.84v.07c0,.82,0,2.2.07,2.57,0,.12-.29.32-.73.32-.17,0-.24-.07-.24-.22v-6.34a1,1,0,0,0-.06-.33,1,1,0,0,0-.59-.51c-.12,0-.15-.07-.15-.14a.32.32,0,0,1,.34-.28c.53,0,1.47.31,1.47.51a3.85,3.85,0,0,0-.09.6c0,.21,0,2,0,3.05H85.9V384a1.17,1.17,0,0,0-.07-.38,1.43,1.43,0,0,0-.76-.54c-.12-.05-.15-.07-.15-.14a.32.32,0,0,1,.36-.3c.58,0,1.64.32,1.64.55a3.25,3.25,0,0,0-.08.63c0,.31,0,4,0,4.63C86.82,389.29,86.85,391,86.89,391.37Z"/><path class="cls-2" d="M102.52,390.19c0,.13-.07.18-.24.17s-1.46,0-2.17,0c-.94,0-7.13.06-7.8.08-.45,0-1.45.09-1.84.14a2.16,2.16,0,0,1-.9-.64.3.3,0,0,1-.08-.2c0-.08,0-.17.06-.17l.14,0c.59.07,3.29.07,5.85.05V388H93.86a.88.88,0,0,1-.66.5c-.12,0-.17-.07-.17-.28L93,384.12c0-.15-.59-.43-.78-.47s-.07,0-.07-.07.08-.3.23-.3a3.78,3.78,0,0,1,1.63.34l0,.43v.86l4.18,0v-1.13c0-.13-.58-.41-.78-.48s-.08,0-.08-.07.08-.29.24-.29c.5,0,1.61.25,1.6.39l0,.39,0,2.36a8.35,8.35,0,0,1-.16,1.2H99c.1,0,.3.35.3.53s-.06.14-.16.14H96.47v1.67c2.08,0,3.88,0,4-.06s1.29-.25,1.45-.29S102.52,389.84,102.52,390.19Zm-3.1,2.48c0,.22,0,2.94,0,3.4,0,.13-.37.3-.76.3-.17,0-.24-.07-.24-.23V392.6c-1.19,0-4.52.18-5.29.32a1.87,1.87,0,0,1-.77-.66.3.3,0,0,1,0-.15c0-.11,0-.16.07-.16a49.24,49.24,0,0,0,6-.09c.48,0,1.07.28,1.07.43A3.79,3.79,0,0,0,99.42,392.67Zm-1.31-7.09H93.93v1.69l4.18,0Z"/><path class="cls-2" d="M104.5,389a3.07,3.07,0,1,1,3.07,2.9A2.82,2.82,0,0,1,104.5,389Zm5.14,0a2.08,2.08,0,1,0-2.07,2.12A2,2,0,0,0,109.64,389Zm3.74,7.09V384.28a2.49,2.49,0,0,0-.07-.58,2.08,2.08,0,0,0-1-.65c-.13-.05-.17-.06-.17-.14a.33.33,0,0,1,.35-.3c.6,0,1.9.38,1.9.62a4.94,4.94,0,0,0-.08.77c0,.33,0,7.62,0,8.36,0,1,0,3.22.09,3.61,0,.13-.31.34-.77.34C113.45,396.31,113.38,396.23,113.38,396.07Z"/><path class="cls-2" d="M133.26,395.89c0,.11,0,.15-.17.15l-5.49.1c-1,0-1.29-.33-1.29-1v-1.25a1.11,1.11,0,0,1-.29-.31.18.18,0,0,1,0-.11c0-.06,0-.1,0-.1.72,0,4.61,0,5.12,0v-1.23c-1,0-3.7.13-4.49.25a1.89,1.89,0,0,1-.71-.63.28.28,0,0,1,0-.15,4.83,4.83,0,0,1-.9,1.4.66.66,0,0,1-.45.21.19.19,0,0,1-.21-.17s0-.06.07-.17a11.26,11.26,0,0,0,1-2.93.81.81,0,0,0-.17-.46l-1.36.14a9.82,9.82,0,0,0-1.58.3,2.81,2.81,0,0,1-.88-.7.27.27,0,0,1-.06-.17c0-.1,0-.17.07-.17a64.09,64.09,0,0,0,8.73-.76l.14,0s.12.14.12.25a.36.36,0,0,1-.29.38,28.36,28.36,0,0,1-4.1.67c.25.17.46.37.46.48l-.09.32a5.87,5.87,0,0,1-.4,1.26,34.81,34.81,0,0,0,5.14-.07c.45,0,1.08.28,1.08.41a2.17,2.17,0,0,0,0,.25l-.15,1.36a1.49,1.49,0,0,1,.13.49.12.12,0,0,1-.13.13c-.42,0-3.35,0-4.75.05v1c0,.2.09.28.42.3s3.94-.09,4.16-.1a10.25,10.25,0,0,0,1-.23C133,395.06,133.26,395.64,133.26,395.89Zm-10.62-11.37c0-.14.09-.34.24-.34a9.87,9.87,0,0,1,1.42.17c.3,0,2.73,0,2.91,0a1.17,1.17,0,0,0,.36-.16c.49,0,1.07.25,1.07.39s0,.21-.06.34l-.12,1.26a2,2,0,0,1-.14.53,1.06,1.06,0,0,1,.25.55c0,.1-.06.14-.16.14h-4a.82.82,0,0,1-.68.56c-.12,0-.15-.05-.16-.23l-.12-2.62c0-.16-.47-.42-.67-.48S122.64,384.56,122.64,384.52Zm5,.5-3.24,0v1.6h3.16Zm2.45-2.11a.33.33,0,0,1,.35-.3c.59,0,1.9.31,1.9.55a3.84,3.84,0,0,0-.08.67c0,.32,0,3,0,3.66,0,.91,0,2.71.07,3.11,0,.12-.33.32-.75.32-.16,0-.24-.07-.24-.23v-.26c-.71,0-2.1.11-2.52.19a1.54,1.54,0,0,1-.56-.51.31.31,0,0,1,0-.15c0-.08,0-.15,0-.15.44.06,2.3,0,3.07,0,0-1.78,0-5.32,0-5.62a2,2,0,0,0-.07-.52c-.06-.18-.63-.47-1-.58C130.11,383,130.07,383,130.07,382.91Z"/><path class="cls-2" d="M139.32,386.84a10.58,10.58,0,0,1-3.43,5.44.54.54,0,0,1-.31.12.31.31,0,0,1-.31-.28c0-.05,0-.08.11-.15a13.22,13.22,0,0,0,3-5.21,16.22,16.22,0,0,0-1.79.22,1.78,1.78,0,0,1-.55-.64.36.36,0,0,1,0-.16c0-.09,0-.14.08-.14a12,12,0,0,0,1.9.06,1,1,0,0,0,.38-.11c.47,0,1.06.35,1.06.54S139.33,386.76,139.32,386.84Zm3.78-.31a2,2,0,0,0-.08.31,11.77,11.77,0,0,1-3.94,6.42.45.45,0,0,1-.28.11.29.29,0,0,1-.31-.27c0-.05,0-.08.13-.17a14.93,14.93,0,0,0,3.43-6.17,14.57,14.57,0,0,0-1.76.22,1.71,1.71,0,0,1-.56-.64.36.36,0,0,1,0-.16c0-.09,0-.14.07-.14a11.69,11.69,0,0,0,1.87.06A.82.82,0,0,0,142,386C142.5,386,143.1,386.34,143.1,386.53Zm5.65,3.77c0,.13-.06.16-.17.16h-3.06v1.9c0,1,0,3.22.09,3.61,0,.13-.31.34-.77.34-.17,0-.24-.08-.24-.24V384.28a2.49,2.49,0,0,0-.07-.58,2.08,2.08,0,0,0-1-.65c-.13-.05-.17-.06-.17-.14a.33.33,0,0,1,.35-.3c.6,0,1.9.38,1.9.62a4.94,4.94,0,0,0-.08.77c0,.22,0,3.36,0,5.74h1.87a3.89,3.89,0,0,0,.88-.28C148.41,389.46,148.75,390,148.75,390.3Z"/><path class="cls-2" d="M151.62,391.13c0-.17-.05-.6-.07-1,0-.58.1-.77,1.22-1.82a2.6,2.6,0,0,0,1-1.9c0-1.21-.63-1.64-1.66-1.64a3.25,3.25,0,0,0-1,.15l-.66,1.19c-.35-.25-.9-.75-.9-1s.09-.28.27-.41a4,4,0,0,1,2.34-.75,2.33,2.33,0,0,1,2.6,2.42,3.11,3.11,0,0,1-1.25,2.48c-.68.64-1,.87-1.05,1.2a9,9,0,0,0-.08,1c0,.15-.13.19-.41.19S151.64,391.28,151.62,391.13Zm-.51,2.58a.92.92,0,1,1,.92.91A.92.92,0,0,1,151.11,393.71Z"/><path class="cls-2" d="M82,410c-1.29,0-5,.05-5.83.19a2.18,2.18,0,0,1-.66-.58.23.23,0,0,1,0-.14c0-.08,0-.15.06-.15.8.09,5.12,0,5.31,0a7.48,7.48,0,0,0,.91-.17c.12,0,.4.42.4.7C82.17,409.91,82.13,410,82,410Zm-2.82,4.3c-1.5,0-2.42-.72-2.42-1.78s.92-1.75,2.42-1.75,2.43.73,2.43,1.75S80.72,414.25,79.2,414.25ZM76.93,408c0-.18.06-.41.1-.41a11.06,11.06,0,0,0,2.93,0,2.39,2.39,0,0,0,.49-.2c.17,0,.5.42.5.69a.18.18,0,0,1-.16.21,9.13,9.13,0,0,1-1.8.11,9,9,0,0,1-1.9-.19C77,408.1,76.93,408.05,76.93,408Zm3.74,4.52c0-.65-.54-1.07-1.47-1.07s-1.47.4-1.47,1.07.56,1.11,1.47,1.11S80.67,413.15,80.67,412.47Zm6.14,4.67c0,1.32-1.16,2.27-3.08,2.27s-3.08-1-3.08-2.27,1.16-2.27,3.08-2.27S86.81,415.79,86.81,417.14Zm-1,0c0-.91-.74-1.5-2.11-1.5s-2.12.59-2.12,1.5.74,1.5,2.12,1.5S85.84,418,85.84,417.14Zm1-2.77c0,.12-.31.32-.74.32-.17,0-.24-.07-.24-.23v-3.18H83.84v.07c0,.82,0,2.2.07,2.57,0,.12-.29.32-.73.32-.17,0-.24-.07-.24-.22v-6.34a1,1,0,0,0-.06-.33,1,1,0,0,0-.59-.51c-.12,0-.15-.07-.15-.14a.32.32,0,0,1,.34-.28c.53,0,1.47.31,1.47.51a3.85,3.85,0,0,0-.09.6c0,.21,0,2,0,3.05H85.9V407a1.17,1.17,0,0,0-.07-.38,1.43,1.43,0,0,0-.76-.54c-.12-.05-.15-.07-.15-.14a.32.32,0,0,1,.36-.3c.58,0,1.64.32,1.64.55a3.25,3.25,0,0,0-.08.63c0,.31,0,4,0,4.63C86.82,412.29,86.85,414,86.89,414.37Z"/><path class="cls-2" d="M102.52,413.19c0,.13-.07.18-.24.17s-1.46,0-2.17,0c-.94,0-7.13.06-7.8.08-.45,0-1.45.09-1.84.14a2.16,2.16,0,0,1-.9-.64.3.3,0,0,1-.08-.2c0-.08,0-.17.06-.17l.14,0c.59.07,3.29.07,5.85.05V411H93.86a.88.88,0,0,1-.66.5c-.12,0-.17-.07-.17-.28L93,407.12c0-.15-.59-.43-.78-.47s-.07,0-.07-.07.08-.3.23-.3a3.78,3.78,0,0,1,1.63.34l0,.43v.86l4.18,0v-1.13c0-.13-.58-.41-.78-.48s-.08,0-.08-.07.08-.29.24-.29c.5,0,1.61.25,1.6.39l0,.39,0,2.36a8.35,8.35,0,0,1-.16,1.2H99c.1,0,.3.35.3.53s-.06.14-.16.14H96.47v1.67c2.08,0,3.88,0,4-.06s1.29-.25,1.45-.29S102.52,412.84,102.52,413.19Zm-3.1,2.48c0,.22,0,2.94,0,3.4,0,.13-.37.3-.76.3-.17,0-.24-.07-.24-.23V415.6c-1.19,0-4.52.18-5.29.32a1.87,1.87,0,0,1-.77-.66.3.3,0,0,1,0-.15c0-.11,0-.16.07-.16a49.24,49.24,0,0,0,6-.09c.48,0,1.07.28,1.07.43A3.79,3.79,0,0,0,99.42,415.67Zm-1.31-7.09H93.93v1.69l4.18,0Z"/><path class="cls-2" d="M103.57,413.11a.32.32,0,0,1-.08-.2c0-.09,0-.17.06-.17l.14,0c1.15.14,10.46,0,10.8,0,.15,0,1.29-.25,1.45-.29s.58.59.58.94c0,.12-.07.18-.24.16l-2.17,0c-.94,0-7.13.05-7.8.08-.45,0-1.45.08-1.84.14A2.35,2.35,0,0,1,103.57,413.11Zm5,5.85c-1.09,0-1.57-.46-1.57-1.06v-2.23c0-.2-.46-.45-.7-.52,0,0,0,0,0-.07a.27.27,0,0,1,.29-.29c.53,0,1.45.23,1.45.36a3.84,3.84,0,0,0,0,.5v2.12c0,.24.14.41.57.42s4-.07,4.2-.1a8,8,0,0,0,1-.25c.14,0,.44.57.44.87,0,.11-.06.15-.17.15ZM107,408.8c0-1.44,1.17-2.45,3-2.45s3,1,3,2.45-1.16,2.44-3,2.44S107,410.23,107,408.8Zm5.12,0c0-1-.73-1.68-2.08-1.68s-2.07.68-2.07,1.68.73,1.69,2.07,1.69S112.08,409.79,112.08,408.8Z"/><path class="cls-2" d="M132.31,419c0,.13-.31.34-.77.34-.17,0-.24-.08-.24-.24,0-.47,0-3.72,0-6.71h-2.75a2.92,2.92,0,1,1,0-.7h2.75v-4.38a2.49,2.49,0,0,0-.07-.58,2.08,2.08,0,0,0-1-.65c-.13-.05-.17-.06-.17-.14a.33.33,0,0,1,.35-.3c.6,0,1.9.38,1.9.62a4.94,4.94,0,0,0-.08.77c0,.33,0,7.62,0,8.36C132.22,416.4,132.27,418.58,132.31,419Zm-4.75-7a2.08,2.08,0,1,0-2.07,2.12A2,2,0,0,0,127.56,412Z"/><path class="cls-2" d="M144.25,413.85a.37.37,0,0,1-.27.38,41.57,41.57,0,0,1-6.15,1.12.64.64,0,0,1-.23-.05,2.23,2.23,0,0,1-.76-.47.3.3,0,0,1-.07-.23v-4.86a4.41,4.41,0,0,1-.81-.3c-.07-.05-.09-.06-.1-.12s0-.32.06-.32c.44.06,5,0,5.23,0a7.11,7.11,0,0,0,.9-.26c.13,0,.48.6.48.85,0,.1-.05.14-.16.14-.45,0-3.22,0-4.65,0v4.55c0,.08.06.14.2.14.54,0,5.64-.64,6.11-.8l.11,0S144.25,413.72,144.25,413.85Zm2.06,5.12c0,.13-.31.34-.77.34-.17,0-.24-.08-.24-.24V407.28a2.49,2.49,0,0,0-.07-.58,2.08,2.08,0,0,0-1-.65c-.13-.05-.17-.06-.17-.14a.33.33,0,0,1,.35-.3c.6,0,1.9.38,1.9.62a4.94,4.94,0,0,0-.08.77c0,.33,0,7.62,0,8.36C146.22,416.4,146.27,418.58,146.31,419Z"/><path class="cls-2" d="M158,407.63c0,.29,0,6.75,0,7.51,0,1,0,2.81.08,3.2,0,.13-.29.34-.74.34-.18,0-.24-.07-.24-.22,0-.41,0-3.41,0-6.11h-1.63a2.58,2.58,0,0,1-2.74,2.53,2.83,2.83,0,0,1,0-5.65,2.59,2.59,0,0,1,2.74,2.46h1.63V407.8a1.06,1.06,0,0,0-.06-.34,1.19,1.19,0,0,0-.68-.55c-.13,0-.16-.07-.16-.14a.32.32,0,0,1,.34-.28c.54,0,1.57.31,1.57.52A4,4,0,0,0,158,407.63Zm-3.48,4.42a1.82,1.82,0,1,0-1.81,2.05A1.82,1.82,0,0,0,154.5,412.05Zm6.33,6.92c0,.13-.31.34-.76.34-.17,0-.24-.07-.24-.22V407a1.19,1.19,0,0,0-.07-.4,1.66,1.66,0,0,0-.86-.56c-.12-.05-.15-.07-.15-.14a.32.32,0,0,1,.35-.3c.59,0,1.75.31,1.75.55a3.84,3.84,0,0,0-.08.67c0,.39,0,7.8,0,8.54C160.74,416.41,160.78,418.58,160.83,419Z"/><path class="cls-2" d="M168.34,410.19c0-1.5,1.18-2.51,3-2.51s3,1,3,2.51-1.17,2.51-3,2.51S168.34,411.69,168.34,410.19Zm3.72,6.39a8.4,8.4,0,0,1-2.66,2.35.68.68,0,0,1-.3.09.31.31,0,0,1-.33-.27c0-.07,0-.1.14-.17a10.51,10.51,0,0,0,3.2-4,.46.46,0,0,0-.23-.44s-.07,0-.07-.08a.24.24,0,0,1,.25-.23,1.66,1.66,0,0,1,1.21.65,5.91,5.91,0,0,1-.85,1.62,6.11,6.11,0,0,1,1.49.88.69.69,0,0,1,.21.5c0,.36-.18.61-.37.61s-.14,0-.21-.14A11.43,11.43,0,0,0,172.06,416.58Zm-2.74-6.39a2,2,0,1,0,2-1.74C170.1,408.45,169.32,409.14,169.32,410.19Zm10.09,8.38c0,.36-.19.61-.4.61s-.14,0-.24-.16a19.48,19.48,0,0,0-2.19-2.45,9.23,9.23,0,0,1-2.86,2.66.75.75,0,0,1-.28.07.3.3,0,0,1-.32-.27c0-.07,0-.1.16-.2a11.35,11.35,0,0,0,3.35-4.49.47.47,0,0,0-.22-.44c-.06,0-.07,0-.07-.08a.23.23,0,0,1,.25-.22,1.71,1.71,0,0,1,1.2.65,6.42,6.42,0,0,1-.86,1.81,12.36,12.36,0,0,1,2.29,2A.8.8,0,0,1,179.41,418.57ZM176,405.91a.33.33,0,0,1,.35-.3c.59,0,1.9.31,1.9.55a3.84,3.84,0,0,0-.08.67c0,.32,0,2.35,0,3,0,.88,0,2.61.07,3,0,.12-.33.32-.75.32-.16,0-.24-.07-.24-.23v-5.81a2,2,0,0,0-.07-.52c-.06-.18-.63-.47-1-.58C176,406,176,406,176,405.91Z"/><path class="cls-2" d="M181.41,413a.3.3,0,0,1-.08-.2c0-.08,0-.17.06-.17l.14,0c1.15.14,10.46,0,10.8,0,.15,0,1.29-.25,1.45-.29s.58.59.58.94c0,.12-.07.18-.24.17s-1.46,0-2.17,0c-.94,0-7.13.05-7.8.08-.45,0-1.45.09-1.84.14A2.25,2.25,0,0,1,181.41,413Zm4.65-2.29c-1,0-1.44-.35-1.44-1v-2.29c0-.17-.61-.47-.85-.54,0,0-.06,0-.06-.07a.31.31,0,0,1,.3-.33,3.93,3.93,0,0,1,1.59.37c0,.12,0,.36,0,.53v2.2c0,.28.11.39.56.41.66,0,3.73-.05,4-.07.15,0,.82-.19,1-.26s.44.58.44.83-.06.15-.17.15Zm.38,8.24c-1.09,0-1.57-.46-1.57-1.06v-2.22c0-.19-.46-.45-.7-.52,0,0,0,0,0-.07a.27.27,0,0,1,.29-.29,2.92,2.92,0,0,1,1.45.36,4.12,4.12,0,0,0,0,.51v2.1c0,.24.14.41.57.42s3.95-.07,4.2-.1a8,8,0,0,0,1.05-.25c.14,0,.44.57.44.87,0,.11-.06.15-.17.15Z"/><path class="cls-2" d="M199.71,414.17a.84.84,0,0,1-.26.06.4.4,0,0,1-.34-.33s0-.08.15-.12c1.55-.56,5.24-3.64,6-5.16a41.33,41.33,0,0,0-4.43.34,1.86,1.86,0,0,1-.7-.69.28.28,0,0,1,0-.15c0-.11,0-.16.07-.16a43.69,43.69,0,0,0,4.72,0,.75.75,0,0,0,.38-.11c.46,0,1.23.42,1.23.59a2.28,2.28,0,0,0-.18.35A13.67,13.67,0,0,1,199.71,414.17Zm11.39,4.72c0,.11-.06.15-.17.15l-5.6.1c-1,0-1.32-.33-1.32-1v-1.7a1.13,1.13,0,0,1-.29-.34.18.18,0,0,1,0-.11s0-.1,0-.1c.8,0,4.75,0,5.26,0v-1.6c-1,0-4,.13-4.79.27a1.9,1.9,0,0,1-.72-.65.28.28,0,0,1,0-.15c0-.11,0-.16.07-.16a39.18,39.18,0,0,0,5.45-.07c.45,0,1.08.28,1.08.41a2.17,2.17,0,0,0,0,.25l-.15,1.72a1.66,1.66,0,0,1,.13.52.12.12,0,0,1-.13.13c-.42,0-3.46,0-4.89.07v1.44c0,.2.09.28.42.3s4.08-.09,4.3-.1a10.25,10.25,0,0,0,1-.23C210.83,418.06,211.1,418.64,211.1,418.89Zm-2-8.46c0-1.47,0-3.07,0-3.28a2,2,0,0,0-.07-.52c-.06-.18-.63-.47-1-.58-.13-.05-.17-.07-.17-.14a.33.33,0,0,1,.35-.3c.59,0,1.9.31,1.9.55a3.84,3.84,0,0,0-.08.67c0,.32,0,2.26,0,2.93,0,.88,0,2.6.07,3,0,.12-.33.32-.75.32-.16,0-.24-.07-.24-.23v-1.78a23.9,23.9,0,0,0-2.8.23,2.37,2.37,0,0,1-.62-.6.31.31,0,0,1,0-.14c0-.09,0-.16.06-.16C206.2,410.46,208.34,410.44,209.14,410.43Z"/><path class="cls-2" d="M217.16,409.84a10.58,10.58,0,0,1-3.43,5.44c-.19.11-.24.12-.31.12a.31.31,0,0,1-.31-.28c0-.05,0-.08.11-.15a13.22,13.22,0,0,0,3-5.21,16.22,16.22,0,0,0-1.79.22,1.78,1.78,0,0,1-.55-.64.36.36,0,0,1,0-.16c0-.09,0-.14.08-.14a12,12,0,0,0,1.9.06,1,1,0,0,0,.38-.11c.47,0,1.06.35,1.06.54A2,2,0,0,0,217.16,409.84Zm3.78-.31a2,2,0,0,0-.08.31,11.77,11.77,0,0,1-3.94,6.42.45.45,0,0,1-.28.11.29.29,0,0,1-.31-.27c0-.05,0-.08.13-.17a14.93,14.93,0,0,0,3.43-6.17,14.57,14.57,0,0,0-1.76.22,1.83,1.83,0,0,1-.57-.64.53.53,0,0,1,0-.16c0-.09,0-.14.07-.14a11.69,11.69,0,0,0,1.87.06.82.82,0,0,0,.38-.11C220.34,409,220.94,409.34,220.94,409.53Zm5.65,3.77c0,.13-.06.16-.17.16h-3.06v1.9c0,1,0,3.22.09,3.61,0,.13-.31.34-.77.34-.17,0-.24-.08-.24-.24V407.28a2.49,2.49,0,0,0-.07-.58,2.08,2.08,0,0,0-1-.65c-.13-.05-.17-.06-.17-.14a.33.33,0,0,1,.35-.3c.6,0,1.9.38,1.9.62a4.94,4.94,0,0,0-.08.77c0,.22,0,3.36,0,5.74h1.87a3.89,3.89,0,0,0,.88-.28C226.25,412.46,226.59,413,226.59,413.3Z"/><path class="cls-2" d="M229.46,414.13c0-.17-.05-.6-.07-1,0-.58.1-.77,1.22-1.82a2.6,2.6,0,0,0,1-1.9c0-1.21-.63-1.64-1.66-1.64a3.25,3.25,0,0,0-1,.15l-.66,1.19c-.35-.25-.9-.75-.9-1s.08-.28.27-.41a4,4,0,0,1,2.34-.75,2.33,2.33,0,0,1,2.6,2.42,3.11,3.11,0,0,1-1.25,2.48c-.68.64-1,.87-1,1.2a9,9,0,0,0-.08,1c0,.15-.13.19-.41.19S229.48,414.28,229.46,414.13Zm-.51,2.58a.92.92,0,1,1,.92.91A.92.92,0,0,1,229,416.71Z"/><path class="cls-2" d="M88.52,440c0,.12-.07.18-.24.17s-1.46,0-2.17,0c-.94,0-7.13,0-7.8.08-.45,0-1.45.09-1.84.14a2.25,2.25,0,0,1-.9-.64.3.3,0,0,1-.08-.2c0-.08,0-.17.06-.17l.14,0c.59.07,3.3.07,5.87.05l0-2a.5.5,0,0,0-.27-.35c-.05,0-.07,0-.07-.07a.25.25,0,0,1,.24-.25c.41,0,1.08.19,1.06.3l0,.37,0,2c2.1,0,3.9,0,4-.06s1.29-.25,1.45-.29S88.52,439.61,88.52,440Zm-11.31-8.72c0-.07,0-.23.05-.23.39.05,3,0,3.18,0a7.2,7.2,0,0,0,.75-.16c.13,0,.38.42.38.74,0,.1,0,.14-.15.14H78.71v3.34c0,.08,0,.12.18.12a24.77,24.77,0,0,0,2.74-.33l.11,0s.11.11.11.24,0,.23-.22.33a12.68,12.68,0,0,1-2.86.65.93.93,0,0,1-.24,0,2.49,2.49,0,0,1-.66-.47.32.32,0,0,1-.07-.22v-3.63a3.48,3.48,0,0,1-.49-.32A.32.32,0,0,1,77.21,431.24Zm5,.35a1.31,1.31,0,0,1-.27-.32.25.25,0,0,1,0-.1c0-.09,0-.21,0-.21.36.05,3.21,0,3.32,0l.71-.18c.11,0,.35.43.35.75,0,.1,0,.14-.15.14-.44,0-2.06,0-3.08,0v3.19c0,.18.09.27.39.28s1.82,0,2,0a5.79,5.79,0,0,0,.77-.18c.13,0,.34.46.34.77,0,.1,0,.14-.15.14l-3,0c-.93,0-1.25-.3-1.25-.91Z"/><path class="cls-2" d="M104.31,442c0,.13-.31.34-.77.34-.17,0-.24-.08-.24-.24,0-.47,0-3.72,0-6.71h-2.75a2.92,2.92,0,1,1,0-.7h2.75v-4.38a2.49,2.49,0,0,0-.07-.58,2.08,2.08,0,0,0-1-.65c-.13-.05-.17-.06-.17-.14a.33.33,0,0,1,.35-.3c.6,0,1.9.38,1.9.62a4.94,4.94,0,0,0-.08.77c0,.33,0,7.62,0,8.36C104.22,439.4,104.27,441.58,104.31,442Zm-4.75-7a2.08,2.08,0,1,0-2.07,2.12A2,2,0,0,0,99.56,435Z"/><path class="cls-2" d="M116.25,436.85a.37.37,0,0,1-.27.38,41.57,41.57,0,0,1-6.15,1.12.64.64,0,0,1-.23-.05,2.23,2.23,0,0,1-.76-.47.3.3,0,0,1-.07-.23v-4.86a4.41,4.41,0,0,1-.81-.3c-.07-.05-.09-.06-.1-.12s0-.32.06-.32c.44.06,5,0,5.23,0a7.11,7.11,0,0,0,.9-.26c.13,0,.48.6.48.85,0,.1,0,.14-.16.14-.45,0-3.22,0-4.65,0v4.55c0,.08.06.14.2.14.54,0,5.64-.64,6.11-.8l.11,0S116.25,436.72,116.25,436.85Zm2.06,5.12c0,.13-.31.34-.77.34-.17,0-.24-.08-.24-.24V430.28a2.49,2.49,0,0,0-.07-.58,2.08,2.08,0,0,0-1-.65c-.13-.05-.17-.06-.17-.14a.33.33,0,0,1,.35-.3c.6,0,1.9.38,1.9.62a4.94,4.94,0,0,0-.08.77c0,.33,0,7.62,0,8.36C118.22,439.4,118.27,441.58,118.31,442Z"/><path class="cls-2" d="M130,430.63c0,.29,0,6.75,0,7.51,0,1,0,2.81.08,3.2,0,.13-.29.34-.74.34-.18,0-.24-.07-.24-.22,0-.41,0-3.41,0-6.11h-1.63a2.58,2.58,0,0,1-2.74,2.53,2.83,2.83,0,0,1,0-5.65,2.59,2.59,0,0,1,2.74,2.46h1.63V430.8a1.06,1.06,0,0,0-.06-.34,1.19,1.19,0,0,0-.68-.55c-.13,0-.16-.07-.16-.14a.32.32,0,0,1,.34-.28c.54,0,1.57.31,1.57.52A4,4,0,0,0,130,430.63Zm-3.48,4.42a1.82,1.82,0,1,0-1.81,2.05A1.82,1.82,0,0,0,126.5,435.05Zm6.33,6.92c0,.13-.31.34-.76.34-.17,0-.24-.07-.24-.22V430a1.19,1.19,0,0,0-.07-.4,1.66,1.66,0,0,0-.86-.56c-.12-.05-.15-.07-.15-.14a.32.32,0,0,1,.35-.3c.59,0,1.75.31,1.75.55a3.84,3.84,0,0,0-.08.67c0,.39,0,7.8,0,8.54C132.74,439.41,132.78,441.58,132.83,442Z"/><path class="cls-2" d="M142.57,437.58a.74.74,0,0,1,.12.46c0,.42-.21.73-.43.73-.07,0-.1,0-.15-.14a37.57,37.57,0,0,0-2.88-3.38,11.84,11.84,0,0,1-3.36,3.36.47.47,0,0,1-.25.09.4.4,0,0,1-.35-.31c0-.06,0-.09.14-.16a15,15,0,0,0,4.3-6.09c0-.17-.42-.48-.6-.56s-.1-.06-.1-.1a.23.23,0,0,1,.25-.24,3.33,3.33,0,0,1,1.66.66,9.61,9.61,0,0,1-1.32,2.83A20.94,20.94,0,0,1,142.57,437.58Zm3.74,4.39c0,.13-.31.34-.77.34-.17,0-.24-.08-.24-.24,0-.52,0-4.33,0-7.49a20.66,20.66,0,0,0-2.68.22,2.24,2.24,0,0,1-.59-.6.26.26,0,0,1,0-.14c0-.08,0-.15.06-.15.44,0,2.5,0,3.25,0v-3.64a2.49,2.49,0,0,0-.07-.58,2.08,2.08,0,0,0-1-.65c-.13-.05-.17-.06-.17-.14a.33.33,0,0,1,.35-.3c.6,0,1.9.38,1.9.62a4.94,4.94,0,0,0-.08.77c0,.33,0,7.62,0,8.36C146.22,439.4,146.27,441.58,146.31,442Z"/><path class="cls-2" d="M166.36,440c0,.12-.07.18-.24.17s-1.46,0-2.17,0c-.94,0-7.13,0-7.8.08-.45,0-1.45.09-1.84.14a2.25,2.25,0,0,1-.9-.64.3.3,0,0,1-.08-.2c0-.08,0-.17.06-.17l.14,0c.59.07,3.3.07,5.87.05l0-2c0-.12-.16-.29-.27-.35s-.07,0-.07-.07a.25.25,0,0,1,.24-.25c.41,0,1.08.2,1.06.31l0,.36,0,2c2.1,0,3.9,0,4-.06s1.29-.25,1.45-.29S166.36,439.61,166.36,440Zm-9.84-6.57c0-1.66,1.34-2.79,3.32-2.79s3.32,1.13,3.32,2.79-1.33,2.77-3.32,2.77S156.52,435,156.52,433.39Zm1,0c0,1.16.83,2,2.32,2s2.33-.83,2.33-2-.83-2-2.33-2S157.52,432.21,157.52,433.39Z"/><path class="cls-2" d="M167.41,436a.3.3,0,0,1-.08-.2c0-.08,0-.17.06-.17l.14,0c1.15.14,10.46,0,10.8,0,.15,0,1.29-.25,1.45-.29s.58.59.58.94c0,.12-.07.18-.24.17s-1.46,0-2.17,0c-.94,0-7.13.05-7.8.08-.45,0-1.45.09-1.84.14A2.25,2.25,0,0,1,167.41,436Zm4.65-2.29c-1,0-1.44-.35-1.44-1v-2.29c0-.17-.61-.47-.85-.54,0,0-.06,0-.06-.07a.31.31,0,0,1,.3-.33,3.93,3.93,0,0,1,1.59.37c0,.12,0,.36,0,.53v2.2c0,.28.11.39.56.41.66,0,3.73-.05,4-.07.15,0,.82-.19,1-.26s.44.58.44.83-.06.15-.17.15Zm.38,8.24c-1.09,0-1.57-.46-1.57-1.06v-2.22c0-.19-.46-.45-.7-.52,0,0,0,0,0-.07a.27.27,0,0,1,.29-.29,2.92,2.92,0,0,1,1.45.36,4.12,4.12,0,0,0,0,.51v2.1c0,.24.14.41.57.42s3.95-.07,4.2-.1a8,8,0,0,0,1.05-.25c.14,0,.44.57.44.87,0,.11-.06.15-.17.15Z"/><path class="cls-2" d="M185.71,437.17a.84.84,0,0,1-.26.06.4.4,0,0,1-.34-.33s0-.08.15-.12c1.55-.56,5.24-3.64,6-5.16a41.33,41.33,0,0,0-4.43.34,1.86,1.86,0,0,1-.7-.69.28.28,0,0,1,0-.15c0-.11,0-.16.07-.16a43.69,43.69,0,0,0,4.72,0,.75.75,0,0,0,.38-.11c.46,0,1.23.42,1.23.59a2.28,2.28,0,0,0-.18.35A13.67,13.67,0,0,1,185.71,437.17Zm11.39,4.72c0,.11-.06.15-.17.15l-5.6.1c-1,0-1.32-.33-1.32-1v-1.7a1.13,1.13,0,0,1-.29-.34.18.18,0,0,1,0-.11s0-.1,0-.1c.8,0,4.75,0,5.26,0v-1.6c-1,0-4,.13-4.79.27a1.9,1.9,0,0,1-.72-.65.28.28,0,0,1,0-.15c0-.11,0-.16.07-.16a39.18,39.18,0,0,0,5.45-.07c.45,0,1.08.28,1.08.41a2.17,2.17,0,0,0,0,.25l-.15,1.72a1.66,1.66,0,0,1,.13.52.12.12,0,0,1-.13.13c-.42,0-3.46,0-4.89.07v1.44c0,.2.09.28.42.3s4.08-.09,4.3-.1a10.25,10.25,0,0,0,1-.23C196.83,441.06,197.1,441.64,197.1,441.89Zm-2-8.46c0-1.47,0-3.07,0-3.28a2,2,0,0,0-.07-.52c-.06-.18-.63-.47-1-.58-.13-.05-.17-.07-.17-.14a.33.33,0,0,1,.35-.3c.59,0,1.9.31,1.9.55a3.84,3.84,0,0,0-.08.67c0,.32,0,2.26,0,2.93,0,.88,0,2.6.07,3,0,.12-.33.32-.75.32-.16,0-.24-.07-.24-.23v-1.78a23.9,23.9,0,0,0-2.8.23,2.37,2.37,0,0,1-.62-.6.31.31,0,0,1,0-.14c0-.09,0-.16.06-.16C192.2,433.46,194.34,433.44,195.14,433.43Z"/><path class="cls-2" d="M203.16,432.84a10.58,10.58,0,0,1-3.43,5.44c-.19.11-.24.12-.31.12a.31.31,0,0,1-.31-.28c0-.05,0-.08.11-.15a13.22,13.22,0,0,0,3-5.21,16.22,16.22,0,0,0-1.79.22,1.78,1.78,0,0,1-.55-.64.36.36,0,0,1,0-.16c0-.09,0-.14.08-.14a12,12,0,0,0,1.9.06,1,1,0,0,0,.38-.11c.47,0,1.06.35,1.06.54A2,2,0,0,0,203.16,432.84Zm3.78-.31a2,2,0,0,0-.08.31,11.77,11.77,0,0,1-3.94,6.42.45.45,0,0,1-.28.11.29.29,0,0,1-.31-.27c0-.05,0-.08.13-.17a14.93,14.93,0,0,0,3.43-6.17,14.57,14.57,0,0,0-1.76.22,1.83,1.83,0,0,1-.57-.64.53.53,0,0,1,0-.16c0-.09,0-.14.07-.14a11.69,11.69,0,0,0,1.87.06.82.82,0,0,0,.38-.11C206.34,432,206.94,432.34,206.94,432.53Zm5.65,3.77c0,.13-.06.16-.17.16h-3.06v1.9c0,1,0,3.22.09,3.61,0,.13-.31.34-.77.34-.17,0-.24-.08-.24-.24V430.28a2.49,2.49,0,0,0-.07-.58,2.08,2.08,0,0,0-1-.65c-.13-.05-.17-.06-.17-.14a.33.33,0,0,1,.35-.3c.6,0,1.9.38,1.9.62a4.94,4.94,0,0,0-.08.77c0,.22,0,3.36,0,5.74h1.87a3.89,3.89,0,0,0,.88-.28C212.25,435.46,212.59,436,212.59,436.3Z"/><path class="cls-2" d="M215.46,437.13c0-.17-.05-.6-.07-1,0-.58.1-.77,1.22-1.82a2.6,2.6,0,0,0,1-1.9c0-1.21-.63-1.64-1.66-1.64a3.25,3.25,0,0,0-1,.15l-.66,1.19c-.35-.25-.9-.75-.9-1s.08-.28.27-.41a4,4,0,0,1,2.34-.75,2.33,2.33,0,0,1,2.6,2.42,3.11,3.11,0,0,1-1.25,2.48c-.68.64-1,.87-1,1.2a9,9,0,0,0-.08,1c0,.15-.13.19-.41.19S215.48,437.28,215.46,437.13Zm-.51,2.58a.92.92,0,1,1,.92.91A.92.92,0,0,1,215,439.71Z"/><path class="cls-2" d="M82.58,89.63l-.06,2.49H76.2a1,1,0,0,1-.31-1c3.4-3.18,5.25-5.09,5.25-6.87,0-1.23-.74-1.74-2.07-1.74a3,3,0,0,0-1.73.49c-.15.12-.31.65-.36,1.67a1.07,1.07,0,0,1-.75,0,9.17,9.17,0,0,1-.06-1,6.24,6.24,0,0,1,.11-1.21,7.4,7.4,0,0,1,2.83-.69c2.07,0,3,.88,3.08,2.49,0,1.84-1.8,3.75-5.13,7H81.5a10.64,10.64,0,0,0,.34-1.53c0-.09.17-.11.36-.11A.82.82,0,0,1,82.58,89.63Z"/><path class="cls-2" d="M84.27,87.06c0-3,1.16-5.38,3.6-5.38s3.51,2.14,3.51,5.28-1.14,5.4-3.59,5.4S84.27,90.29,84.27,87.06ZM90.33,87c0-3-1-4.48-2.5-4.48S85.32,84,85.32,87s1,4.52,2.51,4.52S90.33,90.12,90.33,87Z"/><path class="cls-2" d="M99.67,89.63l-.06,2.49H93.3a1.06,1.06,0,0,1-.32-1c3.41-3.18,5.25-5.09,5.25-6.87,0-1.23-.73-1.74-2.06-1.74a3,3,0,0,0-1.73.49c-.15.12-.31.65-.36,1.67a1.07,1.07,0,0,1-.75,0,9.17,9.17,0,0,1-.06-1,5.54,5.54,0,0,1,.11-1.21,7.4,7.4,0,0,1,2.83-.69c2.07,0,3,.88,3.07,2.49,0,1.84-1.8,3.75-5.13,7h4.44a10.72,10.72,0,0,0,.35-1.53c0-.09.17-.11.36-.11A.78.78,0,0,1,99.67,89.63Z"/><path class="cls-2" d="M102.67,92.12c-.09,0-.15-.06-.18-.2a1.89,1.89,0,0,1,0-.39l2.28-.33V83.34c0-.33-.27-.45-.82-.45a8.09,8.09,0,0,0-1.41.14c-.12,0-.17-.08-.17-.21a.4.4,0,0,1,.27-.41,8.87,8.87,0,0,1,2.79-.58,2.45,2.45,0,0,1,.51,0,9.18,9.18,0,0,0-.16,1.67V91.2l2.26.35a2.06,2.06,0,0,1,0,.42c0,.09-.08.15-.15.15Z"/><path class="cls-2" d="M110.25,88.2c0-.16.06-.33.14-.33h4.06c.13,0,1-.06,1.14-.09a1.63,1.63,0,0,1,.15.79c0,.11-.06.15-.2.15-1.66,0-4.46,0-5.21.09A2,2,0,0,1,110.25,88.2Z"/><path class="cls-2" d="M117.51,87.06c0-3,1.16-5.38,3.6-5.38s3.51,2.14,3.51,5.28-1.14,5.4-3.59,5.4S117.51,90.29,117.51,87.06Zm6.06-.06c0-3-1-4.48-2.51-4.48s-2.5,1.45-2.5,4.48,1,4.52,2.5,4.52S123.57,90.12,123.57,87Z"/><path class="cls-2" d="M133.17,89.57c0,1.3-1,2.76-3.6,2.76-2,0-3.51-.89-3.51-2.66,0-1.45,1.15-2.29,2.38-2.73a2.69,2.69,0,0,1-2-2.58c0-1.68,1.33-2.68,3.16-2.68s3.09.9,3.09,2.44a2.94,2.94,0,0,1-1.8,2.67C132.34,87.32,133.17,88.07,133.17,89.57Zm-3.42-2.16-.48-.15c-1.34.54-2.19,1.14-2.18,2.37s1,1.89,2.51,1.89c1.74,0,2.52-.77,2.53-1.91S131.5,87.93,129.75,87.41Zm.42-.87a2.47,2.47,0,0,0,1.54-2.43c0-1.07-.78-1.64-2.1-1.64s-2.11.57-2.11,1.82S128.56,86.06,130.17,86.54Z"/><path class="cls-2" d="M134.94,88.2c0-.16.06-.33.13-.33h4.07c.13,0,1-.06,1.14-.09a1.63,1.63,0,0,1,.15.79c0,.11-.06.15-.2.15-1.66,0-4.47,0-5.22.09A2.47,2.47,0,0,1,134.94,88.2Z"/><path class="cls-2" d="M142.2,87.06c0-3,1.15-5.38,3.6-5.38s3.51,2.14,3.51,5.28-1.14,5.4-3.59,5.4S142.2,90.29,142.2,87.06Zm6.06-.06c0-3-1-4.48-2.51-4.48s-2.5,1.45-2.5,4.48,1,4.52,2.5,4.52S148.26,90.12,148.26,87Z"/><path class="cls-2" d="M157.65,86.6c0,2.73-1.59,5.32-5.67,5.76-.26,0-.44-.39-.44-.66,0-.06,0-.14.06-.14a1.2,1.2,0,0,0,.27,0c3.75-.58,4.7-2.68,4.74-4.62a4.29,4.29,0,0,1-2.85,1.16,2.76,2.76,0,0,1-2.95-3,3.17,3.17,0,0,1,3.36-3.4C156.1,81.68,157.65,83,157.65,86.6ZM156.58,86c-.16-2.62-1.24-3.52-2.49-3.52a2.16,2.16,0,0,0-2.25,2.4c0,1.65.8,2.34,2.09,2.34A4,4,0,0,0,156.58,86Z"/><path class="cls-2" d="M84.65,181.83c-.25,1.75-1.5,3.4-2.45,3.4-.45,0-.6-.2-.6-.9l-.4-15.15c0-.6-2.1-1.65-2.75-1.85-.3-.1-.35-.15-.35-.3,0-.55.25-1.2.8-1.2a34.65,34.65,0,0,1,5.45.65c1.15.05,11-.1,11.6-.15a4.52,4.52,0,0,0,1.35-.55c1.75,0,3.8.85,3.8,1.4a12,12,0,0,0-.2,1.2l-.45,8.4a9.61,9.61,0,0,1-.5,2.55,3.35,3.35,0,0,1,.9,1.95c0,.35-.2.5-.55.5Zm12.8-13-12.8.15,0,10.25,12.5-.05Zm19.6,36.45c0,.4-.2.55-.6.55l-19.25.35c-3.5.05-4.7-1.2-4.7-3.45v-6.05a4.1,4.1,0,0,1-1-1.2.76.76,0,0,1-.1-.4c0-.2.05-.35.15-.35,2.85.1,16.2-.05,18-.1V189c-3.55.1-13.65.45-16.35,1a6.71,6.71,0,0,1-2.55-2.3,1.14,1.14,0,0,1-.15-.55c0-.4.1-.55.25-.55,2.15.3,17.35.3,18.7-.25,1.6,0,3.85,1,3.85,1.45a8.22,8.22,0,0,0-.15.9l-.55,6.15a6.25,6.25,0,0,1,.45,1.85.4.4,0,0,1-.45.45c-1.5,0-11.75.1-16.7.25v5.15c0,.7.3,1,1.5,1.05s13.8-.3,14.6-.35a35.13,35.13,0,0,0,3.7-.8C116.1,202.38,117.05,204.43,117.05,205.33Zm7.3-29.55c0,.45-.2.55-.6.55H112.9c0,2.95.1,6.15.2,7.1.05.45-1.2,1.15-2.7,1.15-.55,0-.85-.25-.85-.8l0-20.35a6.9,6.9,0,0,0-.25-1.85c-.2-.65-2.25-1.7-3.5-2.1-.45-.15-.6-.25-.6-.5a1.21,1.21,0,0,1,1.25-1c2.1,0,6.8,1.1,6.8,1.95a14.21,14.21,0,0,0-.3,2.4c-.05,1.15-.05,8.05-.05,10.45v1.05h6.65a13.48,13.48,0,0,0,3.15-1C123.15,172.78,124.35,174.73,124.35,175.78Z"/><path class="cls-2" d="M154.85,182.63c-2,.85-16.85,3.2-19.95,3.3a2.54,2.54,0,0,1-.85-.15,8.92,8.92,0,0,1-2.6-1.65,1.1,1.1,0,0,1-.25-.8v-7.9a4.86,4.86,0,0,1-1-1.25.76.76,0,0,1-.1-.4c0-.2,0-.35.15-.35,3.1.1,15-.05,17.1-.15v-5.9c-3.25.1-11.85.5-14.5,1.05a7.26,7.26,0,0,1-2.55-2.35,1.14,1.14,0,0,1-.15-.55c0-.4.1-.55.25-.55,2.5.35,14.05.15,15.6.05a2.66,2.66,0,0,0,1.3-.4c1.6,0,3.8,1.2,3.8,1.7a8.22,8.22,0,0,0-.15.9l-.55,6.15a5.9,5.9,0,0,1,.45,1.85.4.4,0,0,1-.45.45c-1.5,0-10.95.15-15.8.4v6.3c0,.25.15.4.55.4,2.15,0,18.55-1.75,19.9-2.2a1.2,1.2,0,0,1,.4-.1c.15,0,.4.4.4.8A1.3,1.3,0,0,1,154.85,182.63Zm8.55,15.7c0,5.15-4.1,8.85-10.75,8.85s-10.75-3.7-10.75-8.85,4.1-8.85,10.75-8.85S163.4,193.08,163.4,198.33Zm-3.45,0c0-3.7-2.55-6.1-7.3-6.1s-7.3,2.4-7.3,6.1,2.55,6.1,7.3,6.1S160,202,160,198.33Zm14.4-20.05c0,.45-.2.55-.6.55h-10.9c.05,3.4.15,7.7.25,8.8.05.45-1.2,1.15-2.7,1.15-.55,0-.85-.25-.85-.8l-.05-24.55a6.9,6.9,0,0,0-.25-1.85c-.2-.65-2.25-1.7-3.5-2.1-.45-.15-.6-.25-.6-.5a1.21,1.21,0,0,1,1.25-1c2.1,0,6.8,1.1,6.8,1.95a14.21,14.21,0,0,0-.3,2.4c-.05,1.15-.05,11.35-.05,14h6.65a13.48,13.48,0,0,0,3.15-1C173.15,175.28,174.35,177.23,174.35,178.28Z"/><path class="cls-2" d="M184.65,181.83c-.25,1.75-1.5,3.4-2.45,3.4-.45,0-.6-.2-.6-.9l-.4-15.15c0-.6-2.1-1.65-2.75-1.85-.3-.1-.35-.15-.35-.3,0-.55.25-1.2.8-1.2a34.65,34.65,0,0,1,5.45.65c1.15.05,11-.1,11.6-.15a4.52,4.52,0,0,0,1.35-.55c1.75,0,3.8.85,3.8,1.4a12,12,0,0,0-.2,1.2l-.45,8.4a9.61,9.61,0,0,1-.5,2.55,3.35,3.35,0,0,1,.9,1.95c0,.35-.2.5-.55.5Zm12.8-13-12.8.15,0,10.25,12.5-.05Zm19.6,36.45c0,.4-.2.55-.6.55l-19.25.35c-3.5.05-4.7-1.2-4.7-3.45v-6.05a4.1,4.1,0,0,1-1.05-1.2.76.76,0,0,1-.1-.4c0-.2.05-.35.15-.35,2.85.1,16.2-.05,18-.1V189c-3.55.1-13.65.45-16.35,1a6.71,6.71,0,0,1-2.55-2.3,1.14,1.14,0,0,1-.15-.55c0-.4.1-.55.25-.55,2.15.3,17.35.3,18.7-.25,1.6,0,3.85,1,3.85,1.45a8.22,8.22,0,0,0-.15.9l-.55,6.15a6.25,6.25,0,0,1,.45,1.85.4.4,0,0,1-.45.45c-1.5,0-11.75.1-16.7.25v5.15c0,.7.3,1,1.5,1.05s13.8-.3,14.6-.35a35.13,35.13,0,0,0,3.7-.8C216.1,202.38,217.05,204.43,217.05,205.33Zm7.3-29.55c0,.45-.2.55-.6.55H212.9c0,2.95.1,6.15.2,7.1.05.45-1.2,1.15-2.7,1.15-.55,0-.85-.25-.85-.8l-.05-20.35a6.9,6.9,0,0,0-.25-1.85c-.2-.65-2.25-1.7-3.5-2.1-.45-.15-.6-.25-.6-.5a1.21,1.21,0,0,1,1.25-1c2.1,0,6.8,1.1,6.8,1.95a14.21,14.21,0,0,0-.3,2.4c-.05,1.15-.05,8.05-.05,10.45v1.05h6.65a13.48,13.48,0,0,0,3.15-1C223.15,172.78,224.35,174.73,224.35,175.78Z"/><path class="cls-2" d="M254.85,182.63c-2,.85-16.85,3.2-19.95,3.3a2.54,2.54,0,0,1-.85-.15,8.92,8.92,0,0,1-2.6-1.65,1.1,1.1,0,0,1-.25-.8v-7.9a4.86,4.86,0,0,1-1-1.25.76.76,0,0,1-.1-.4c0-.2,0-.35.15-.35,3.1.1,15-.05,17.1-.15v-5.9c-3.25.1-11.85.5-14.5,1.05a7.26,7.26,0,0,1-2.55-2.35,1.14,1.14,0,0,1-.15-.55c0-.4.1-.55.25-.55,2.5.35,14.05.15,15.6.05a2.66,2.66,0,0,0,1.3-.4c1.6,0,3.8,1.2,3.8,1.7a8.22,8.22,0,0,0-.15.9l-.55,6.15a5.9,5.9,0,0,1,.45,1.85.4.4,0,0,1-.45.45c-1.5,0-10.95.15-15.8.4v6.3c0,.25.15.4.55.4,2.15,0,18.55-1.75,19.9-2.2a1.2,1.2,0,0,1,.4-.1c.15,0,.4.4.4.8A1.3,1.3,0,0,1,254.85,182.63Zm8.55,15.7c0,5.15-4.1,8.85-10.75,8.85s-10.75-3.7-10.75-8.85,4.1-8.85,10.75-8.85S263.4,193.08,263.4,198.33Zm-3.45,0c0-3.7-2.55-6.1-7.3-6.1s-7.3,2.4-7.3,6.1,2.55,6.1,7.3,6.1S260,202,260,198.33Zm14.4-20.05c0,.45-.2.55-.6.55h-10.9c0,3.4.15,7.7.25,8.8,0,.45-1.2,1.15-2.7,1.15-.55,0-.85-.25-.85-.8l-.05-24.55a6.9,6.9,0,0,0-.25-1.85c-.2-.65-2.25-1.7-3.5-2.1-.45-.15-.6-.25-.6-.5a1.21,1.21,0,0,1,1.25-1c2.1,0,6.8,1.1,6.8,1.95a14.21,14.21,0,0,0-.3,2.4c0,1.15,0,11.35,0,14h6.65a13.48,13.48,0,0,0,3.15-1C273.15,175.28,274.35,177.23,274.35,178.28Z"/><path class="cls-2" d="M304.75,173.48c-4.85,0-22.3.15-25.2.65a7.84,7.84,0,0,1-2.65-2.1.78.78,0,0,1-.15-.5c0-.3.1-.55.2-.55,2.85.4,22.8.1,23.45.05a29.34,29.34,0,0,0,3.25-.7c.45,0,1.65,1.75,1.65,2.65C305.3,173.33,305.15,173.48,304.75,173.48Zm-13.1,16.75c-5.45,0-9.15-2.65-9.15-6.85s3.7-6.75,9.15-6.75,9.1,2.65,9.1,6.75S297.1,190.23,291.65,190.23Zm-8.5-24.65c0-.65.2-1.4.35-1.4a48.67,48.67,0,0,0,11.45,0,8,8,0,0,0,1.9-.8c.6,0,1.85,1.6,1.85,2.6a.68.68,0,0,1-.6.75,39.78,39.78,0,0,1-7,.4,27.73,27.73,0,0,1-7.45-.85C283.25,166.13,283.15,165.93,283.15,165.58Zm8.5,22.2c3.45,0,5.7-1.7,5.7-4.4s-2.25-4.3-5.7-4.3-5.75,1.65-5.75,4.3S288.15,187.78,291.65,187.78Zm26.6,16.9c0,.4-.2.55-.6.55l-19.3.35c-3.85.1-5.6-1.55-5.6-3.7v-5.7c-.05-.65-1.35-1.5-2.05-1.7-.15,0-.2-.1-.2-.25a1,1,0,0,1,1.05-1c1.7,0,4.65.7,4.65,1.15s-.1,1.3-.1,1.75v5.3c0,.85.5,1.4,2,1.45s13.9-.25,14.8-.35a37,37,0,0,0,3.75-.9C317.2,201.58,318.25,203.63,318.25,204.68Zm6.1-23.6c0,.45-.2.55-.6.55h-10.9v1.45c0,3.7.15,10.9.3,12.35.05.45-1.25,1.15-2.75,1.15-.55,0-.85-.25-.85-.8l-.05-32.35a6.9,6.9,0,0,0-.25-1.85c-.2-.65-2.25-1.7-3.5-2.1-.45-.15-.6-.25-.6-.5a1.21,1.21,0,0,1,1.25-1c2.1,0,6.8,1.1,6.8,1.95a14.21,14.21,0,0,0-.3,2.4c0,.85,0,10.85,0,16.8h6.65a13.48,13.48,0,0,0,3.15-1C323.15,178.08,324.35,180,324.35,181.08Z"/><path class="cls-2" d="M355.4,176.43c-3.7,4.7-9.1,9.45-12.8,11a2.76,2.76,0,0,1-1.2.35,1.19,1.19,0,0,1-1.15-1c0-.2.05-.3.6-.6,3.95-2,12.5-11.65,14.2-16.25a1.74,1.74,0,0,0-.5-1.45c-4.1.1-7.75.2-8.8.4a8.6,8.6,0,0,1-2.5-2.1.67.67,0,0,1-.15-.45c0-.3.1-.55.2-.55,2.5.3,19.25.15,20,.05a27.88,27.88,0,0,0,3.4-.8c.45,0,1.65,1.8,1.65,2.75,0,.35-.15.5-.55.5-1.9,0-6.15.05-10.4.1a6.45,6.45,0,0,1,1.65,1.8,18.08,18.08,0,0,1-2.45,4.6,53.69,53.69,0,0,1,10.65,5.55,1.81,1.81,0,0,1,.75,1.55c0,1.35-.65,2.3-1.45,2.3-.25,0-.35-.1-.75-.45C364.2,182,358.4,178.08,355.4,176.43Zm27.65,28.9c0,.4-.2.55-.6.55l-20,.35c-3.5.05-4.7-1.2-4.7-3.45V197a4.85,4.85,0,0,1-1.05-1.2.76.76,0,0,1-.1-.4c0-.2,0-.35.15-.35,2.8.1,16.95-.05,18.75-.1v-5.5c-3.55.1-14.4.45-17.1,1a6.71,6.71,0,0,1-2.55-2.3,1.14,1.14,0,0,1-.15-.55c0-.4.1-.55.25-.55,2.15.3,18.1.3,19.45-.25,1.6,0,3.85,1,3.85,1.45a8.22,8.22,0,0,0-.15.9l-.55,6a6,6,0,0,1,.45,1.8.4.4,0,0,1-.45.45c-1.5,0-12.35.1-17.45.25v4.9c0,.7.3,1,1.5,1.05s14.55-.3,15.35-.35a35.13,35.13,0,0,0,3.7-.8C382.1,202.38,383.05,204.43,383.05,205.33ZM371.65,159a1.21,1.21,0,0,1,1.25-1c2.1,0,6.8,1.1,6.8,1.95a14.21,14.21,0,0,0-.3,2.4c0,1.15,0,8.5,0,10.9,0,3.15.1,9.35.25,10.75,0,.45-1.2,1.15-2.7,1.15-.55,0-.85-.25-.85-.8L376,163.43a6.9,6.9,0,0,0-.25-1.85c-.2-.65-2.25-1.7-3.5-2.1C371.8,159.33,371.65,159.23,371.65,159Z"/><path class="cls-2" d="M437.25,184.83c0,.45-.25.65-.85.6-.85-.05-5.2-.1-7.75-.1l-11.35.1v2.7c0,2.6.1,7.4.2,8.4.05.45-1.15,1.1-2.55,1.1-.65,0-.85-.25-.85-.85V185.43c-6.15.1-12.1.15-13.3.2-1.6.05-5.15.3-6.55.5a7.87,7.87,0,0,1-3.2-2.3,1.11,1.11,0,0,1-.3-.7c0-.3.1-.6.2-.6l.5.05c4.1.5,37.35,0,38.55-.05.55-.05,4.6-.9,5.2-1.05C435.85,181.48,437.25,183.58,437.25,184.83Zm-8,19.85c0,.4-.2.55-.6.55l-20.55.35c-3.9,0-5.6-1.65-5.6-3.8v-8c-.05-.7-1.65-1.6-2.5-1.85-.15-.05-.2-.1-.2-.25a1,1,0,0,1,1.05-1.05c1.9,0,5.15.85,5.15,1.3s-.1,1.35-.1,1.8v7.6c0,.85.5,1.45,2.05,1.5s15.1-.25,16-.35a37,37,0,0,0,3.75-.9C428.2,201.58,429.25,203.63,429.25,204.68Zm-29.2-42.05c0-.5.25-1.2.8-1.2a50,50,0,0,1,5.45.55c.95.05,13.3-.2,13.9-.25a5.12,5.12,0,0,0,1.35-.55c1.75,0,3.8.85,3.8,1.45a11.91,11.91,0,0,0-.25,1.3l-.4,6.35a13.78,13.78,0,0,1-.75,3.4h.15c.35,0,1.1,1.2,1.1,2,0,.35-.2.5-.55.5l-18.15.2a3.3,3.3,0,0,1-2.4,2.1c-.45,0-.55-.25-.6-.95l-.4-12.75c-.05-.6-2-1.7-2.7-1.9C400.1,162.83,400.05,162.78,400.05,162.63Zm21.65,1.7-15.15.25.05,9.3,14.85-.15Z"/><path class="cls-2" d="M93,564.59a.68.68,0,0,1-.56.71c-1.6.56-8.68,1.36-11.88,1.66a20.65,20.65,0,0,0-3,.55,5,5,0,0,1-1.67-1.33.56.56,0,0,1-.11-.32c0-.18,0-.32.13-.32a67.24,67.24,0,0,0,7.56-.34l0-2.74a1,1,0,0,0-.5-.67c-.11,0-.14-.08-.14-.13a.47.47,0,0,1,.45-.48c.86,0,2.06.42,2,.64l0,.69,0,2.53a73,73,0,0,0,7.32-.85l.27-.08C92.87,564.11,93,564.37,93,564.59Zm-16.27-3.31c0-.1,0-.16.32-.24,1.49-.39,5.86-3.48,6.73-4.89.11-.19,0-.54-.26-.78-2.11.06-3.94.14-4.48.22a4.44,4.44,0,0,1-1.3-1.07.35.35,0,0,1-.08-.24c0-.16,0-.29.11-.29,1.43.16,10.22,0,10.62,0s1.41-.24,1.78-.35.91.85.91,1.36c0,.19-.08.27-.29.27-1,0-3.36,0-5.75.08a3.39,3.39,0,0,1,.87.93,9,9,0,0,1-1.43,1.7,40.44,40.44,0,0,1,6.07,1.65.77.77,0,0,1,.48.72c0,.64-.24,1-.64,1a.69.69,0,0,1-.38-.13,49.54,49.54,0,0,0-6.41-2.53A16.44,16.44,0,0,1,78,561.82a3,3,0,0,1-.59.08A.71.71,0,0,1,76.76,561.28Zm3.51-10.54c0-.4.11-.8.19-.8a24.8,24.8,0,0,0,6,0,4.18,4.18,0,0,0,.94-.37c.31,0,.93.8.93,1.33a.36.36,0,0,1-.32.4,17.56,17.56,0,0,1-3.38.22,21.51,21.51,0,0,1-4-.38C80.33,551,80.27,550.93,80.27,550.74Zm16.38,20.85c0,.24-.59.64-1.47.64a.39.39,0,0,1-.45-.45l0-22.42a4.43,4.43,0,0,0-.13-1.1A4,4,0,0,0,92.71,547c-.24-.08-.32-.1-.32-.26a.62.62,0,0,1,.66-.56c1.15,0,3.62.72,3.62,1.17a10.14,10.14,0,0,0-.16,1.46c0,.64,0,14.49,0,15.9C96.49,566.69,96.57,570.84,96.65,571.59Z"/><path class="cls-2" d="M102.72,560.43a.58.58,0,0,1-.16-.37c0-.16.06-.32.11-.32l.27,0c2.18.26,19.89,0,20.52,0,.3,0,2.45-.48,2.77-.56s1.1,1.12,1.1,1.78c0,.24-.14.35-.46.32s-2.77,0-4.12,0c-1.79,0-13.56.11-14.84.16-.85,0-2.74.16-3.48.27A4.28,4.28,0,0,1,102.72,560.43Zm9.56,11.13c-2.08,0-3-.88-3-2V565.3c0-.37-.88-.85-1.33-1-.08,0-.11-.05-.11-.13a.53.53,0,0,1,.56-.56c1,0,2.74.45,2.74.69s0,.69,0,1v4c0,.45.27.77,1.09.8s7.51-.14,8-.19a19.93,19.93,0,0,0,2-.48c.26,0,.82,1.09.82,1.65,0,.22-.1.3-.32.3Zm-3.11-19.3c0-2.74,2.21-4.66,5.77-4.66s5.78,1.92,5.78,4.66-2.21,4.63-5.78,4.63S109.17,555,109.17,552.26Zm9.71,0c0-1.92-1.38-3.2-3.94-3.2s-3.94,1.28-3.94,3.2,1.39,3.19,3.94,3.19S118.88,554.12,118.88,552.26Z"/><path class="cls-2" d="M149.88,561.6c0,.24-.64.62-1.44.62a.39.39,0,0,1-.45-.43v-3.67h-6.87a5.69,5.69,0,0,1-4.45,1.75c-3.35,0-5.56-1.94-5.56-4.87s2.21-4.87,5.56-4.87a5.85,5.85,0,0,1,4.42,1.7H148v-2.71a3.71,3.71,0,0,0-.13-1c-.11-.35-1.2-.9-1.86-1.12-.24-.08-.32-.13-.32-.26a.64.64,0,0,1,.66-.56c1.12,0,3.62.58,3.62,1a9.09,9.09,0,0,0-.16,1.27c0,.62,0,5.83,0,7.17C149.75,557.4,149.8,560.86,149.88,561.6ZM140.4,555c0-2-1.44-3.41-3.73-3.41S133,553,133,555s1.43,3.41,3.72,3.41S140.4,557,140.4,555Zm9.3,12.51c0,2.85-2.19,4.9-5.73,4.9s-5.72-2-5.72-4.9,2.18-4.89,5.72-4.89S149.7,564.61,149.7,567.51Zm-1.84,0c0-2.07-1.36-3.43-3.89-3.43s-3.89,1.36-3.89,3.43S141.44,571,144,571,147.86,569.57,147.86,567.51Zm.13-10.65c0-1.25,0-2.58,0-3.78h-6.09a5.05,5.05,0,0,1,.37,1.92,4.67,4.67,0,0,1-.35,1.86Z"/><path class="cls-2" d="M171.37,567.2l1.92.55a3.82,3.82,0,0,1-.08.75c-.05.16-.13.27-.27.27H167.7c-.16,0-.27-.11-.32-.35a3.6,3.6,0,0,1,0-.69l2-.53-1.65-4.64h-7.14l-1.68,4.64,2.24.55a3.82,3.82,0,0,1-.08.75c0,.16-.13.27-.27.27h-5.16c-.16,0-.27-.11-.32-.35a3,3,0,0,1-.06-.69l2-.53,6.17-16.54h1.28c.43,0,.59.21.88,1Zm-10.25-6.13h6.07l-3-8.47Z"/></g></g></svg>