<svg width="348" height="23" viewBox="0 0 348 23" fill="none" xmlns="http://www.w3.org/2000/svg">
<rect x="50.2" y="0.2" width="22.6" height="22.6" rx="3.8" fill="white" stroke="black" stroke-width="0.4"/>
<rect x="75.2" y="0.2" width="22.6" height="22.6" rx="3.8" fill="white" stroke="black" stroke-width="0.4"/>
<rect x="100.2" y="0.2" width="22.6" height="22.6" rx="3.8" fill="white" stroke="black" stroke-width="0.4"/>
<rect x="125.2" y="0.2" width="22.6" height="22.6" rx="3.8" fill="white" stroke="black" stroke-width="0.4"/>
<rect x="150.2" y="0.2" width="22.6" height="22.6" rx="3.8" fill="white" stroke="black" stroke-width="0.4"/>
<rect x="175.2" y="0.2" width="22.6" height="22.6" rx="3.8" fill="white" stroke="black" stroke-width="0.4"/>
<rect x="200.2" y="0.2" width="22.6" height="22.6" rx="3.8" fill="white" stroke="black" stroke-width="0.4"/>
<rect x="225.2" y="0.2" width="22.6" height="22.6" rx="3.8" fill="white" stroke="black" stroke-width="0.4"/>
<rect x="250.2" y="0.2" width="22.6" height="22.6" rx="3.8" fill="white" stroke="black" stroke-width="0.4"/>
<rect x="300.2" y="0.2" width="22.6" height="22.6" rx="3.8" fill="white" stroke="black" stroke-width="0.4"/>
<rect x="275.2" y="0.2" width="22.6" height="22.6" rx="3.8" fill="white" stroke="black" stroke-width="0.4"/>
<rect x="325.2" y="0.2" width="22.6" height="22.6" rx="3.8" fill="white" stroke="black" stroke-width="0.4"/>
<path d="M58.968 16H63.39V15.164H61.773V7.926H61.003C60.563 8.19 60.046 8.377 59.331 8.509V9.147H60.761V15.164H58.968V16Z" fill="black"/>
<path d="M83.484 16H88.555V15.131H86.322C85.915 15.131 85.42 15.175 85.002 15.208C86.894 13.415 88.159 11.776 88.159 10.17C88.159 8.729 87.257 7.783 85.816 7.783C84.793 7.783 84.1 8.256 83.44 8.971L84.023 9.543C84.463 9.015 85.035 8.608 85.695 8.608C86.696 8.608 87.18 9.279 87.18 10.203C87.18 11.589 86.014 13.195 83.484 15.406V16Z" fill="black"/>
<path d="M110.904 16.143C112.334 16.143 113.489 15.285 113.489 13.844C113.489 12.744 112.73 12.018 111.784 11.798V11.754C112.631 11.435 113.214 10.786 113.214 9.807C113.214 8.531 112.224 7.783 110.871 7.783C109.936 7.783 109.221 8.19 108.616 8.751L109.155 9.389C109.606 8.927 110.178 8.608 110.827 8.608C111.663 8.608 112.191 9.114 112.191 9.884C112.191 10.753 111.619 11.424 109.958 11.424V12.194C111.817 12.194 112.466 12.843 112.466 13.8C112.466 14.735 111.784 15.307 110.827 15.307C109.914 15.307 109.298 14.878 108.825 14.383L108.319 15.043C108.847 15.615 109.639 16.143 110.904 16.143Z" fill="black"/>
<path d="M134.265 12.975L136.102 10.225C136.333 9.829 136.553 9.433 136.751 9.037H136.795C136.773 9.455 136.74 10.104 136.74 10.5V12.975H134.265ZM136.74 16H137.686V13.778H138.753V12.975H137.686V7.926H136.575L133.22 13.118V13.778H136.74V16Z" fill="black"/>
<path d="M160.871 16.143C162.235 16.143 163.511 15.142 163.511 13.371C163.511 11.6 162.422 10.808 161.08 10.808C160.596 10.808 160.244 10.929 159.881 11.127L160.079 8.795H163.126V7.926H159.199L158.946 11.71L159.485 12.04C159.947 11.732 160.288 11.567 160.827 11.567C161.839 11.567 162.499 12.249 162.499 13.404C162.499 14.581 161.729 15.307 160.783 15.307C159.848 15.307 159.265 14.878 158.803 14.416L158.308 15.076C158.847 15.615 159.617 16.143 160.871 16.143Z" fill="black"/>
<path d="M186.223 11.743C187.202 11.743 187.686 12.436 187.686 13.525C187.686 14.625 187.081 15.362 186.311 15.362C185.299 15.362 184.694 14.449 184.573 12.777C185.068 12.04 185.717 11.743 186.223 11.743ZM186.311 16.143C187.565 16.143 188.621 15.087 188.621 13.525C188.621 11.842 187.752 10.995 186.388 10.995C185.75 10.995 185.046 11.369 184.551 11.974C184.595 9.466 185.53 8.619 186.63 8.619C187.125 8.619 187.609 8.85 187.928 9.235L188.478 8.608C188.038 8.135 187.433 7.783 186.597 7.783C185.035 7.783 183.616 8.993 183.616 12.15C183.616 14.812 184.76 16.143 186.311 16.143Z" fill="black"/>
<path d="M210.178 16H211.223C211.344 12.843 211.696 10.962 213.588 8.542V7.926H208.539V8.795H212.444C210.871 10.995 210.31 12.942 210.178 16Z" fill="black"/>
<path d="M236.069 16.143C237.587 16.143 238.599 15.23 238.599 14.053C238.599 12.953 237.939 12.348 237.235 11.941V11.886C237.719 11.512 238.313 10.786 238.313 9.939C238.313 8.696 237.477 7.816 236.102 7.816C234.848 7.816 233.891 8.63 233.891 9.862C233.891 10.709 234.386 11.314 234.98 11.721V11.776C234.243 12.172 233.495 12.92 233.495 13.998C233.495 15.241 234.584 16.143 236.069 16.143ZM236.619 11.622C235.673 11.248 234.804 10.83 234.804 9.862C234.804 9.081 235.343 8.553 236.091 8.553C236.96 8.553 237.455 9.202 237.455 9.994C237.455 10.588 237.169 11.138 236.619 11.622ZM236.091 15.395C235.123 15.395 234.408 14.768 234.408 13.91C234.408 13.14 234.859 12.502 235.508 12.084C236.652 12.546 237.642 12.953 237.642 14.031C237.642 14.834 237.015 15.395 236.091 15.395Z" fill="black"/>
<path d="M259.43 10.401C259.43 9.301 260.024 8.575 260.794 8.575C261.828 8.575 262.444 9.455 262.554 11.116C262.037 11.875 261.421 12.194 260.871 12.194C259.914 12.194 259.43 11.49 259.43 10.401ZM260.574 16.143C262.092 16.143 263.5 14.889 263.5 11.622C263.5 9.059 262.345 7.783 260.794 7.783C259.54 7.783 258.484 8.839 258.484 10.401C258.484 12.073 259.364 12.942 260.706 12.942C261.377 12.942 262.07 12.557 262.565 11.952C262.488 14.449 261.586 15.307 260.541 15.307C260.024 15.307 259.529 15.076 259.199 14.691L258.638 15.318C259.089 15.791 259.705 16.143 260.574 16.143Z" fill="black"/>
<path d="M280.968 16H285.39V15.164H283.773V7.926H283.003C282.563 8.19 282.046 8.377 281.331 8.509V9.147H282.761V15.164H280.968V16ZM289.16 16.143C290.689 16.143 291.668 14.746 291.668 11.941C291.668 9.147 290.689 7.783 289.16 7.783C287.62 7.783 286.641 9.136 286.641 11.941C286.641 14.746 287.62 16.143 289.16 16.143ZM289.16 15.34C288.236 15.34 287.62 14.317 287.62 11.941C287.62 9.587 288.236 8.586 289.16 8.586C290.073 8.586 290.689 9.587 290.689 11.941C290.689 14.317 290.073 15.34 289.16 15.34Z" fill="black"/>
<path d="M309 7L314 12L309 17" stroke="black"/>
<path d="M333 7L338 12L333 17" stroke="black"/>
<path d="M336 7L341 12L336 17" stroke="black"/>
<rect x="-0.2" y="0.2" width="22.6" height="22.6" rx="3.8" transform="matrix(-1 0 0 1 47.6 0)" fill="white" stroke="black" stroke-width="0.4"/>
<rect x="-0.2" y="0.2" width="22.6" height="22.6" rx="3.8" transform="matrix(-1 0 0 1 22.6 0)" fill="white" stroke="black" stroke-width="0.4"/>
<path d="M39 7L34 12L39 17" stroke="black"/>
<path d="M15 7L10 12L15 17" stroke="black"/>
<path d="M12 7L7 12L12 17" stroke="black"/>
</svg>
